<?xml version="1.0" encoding="utf-8"?>
<!-- Generator: Adobe Illustrator 17.1.0, SVG Export Plug-In . SVG Version: 6.00 Build 0)  -->
<!DOCTYPE svg PUBLIC "-//W3C//DTD SVG 1.1 Tiny//EN" "http://www.w3.org/Graphics/SVG/1.1/DTD/svg11-tiny.dtd">
<svg version="1.1" baseProfile="tiny" id="Layer_1" xmlns="http://www.w3.org/2000/svg" xmlns:xlink="http://www.w3.org/1999/xlink"
	 x="0px" y="0px" viewBox="0 0 69 69" xml:space="preserve">
<g>
	<circle display="none" fill="#FFCA00" cx="34.5" cy="34.5" r="34.5"/>
	<circle fill="#FFFFFF" cx="18.3" cy="25.4" r="11.8"/>
	<path fill="#453700" d="M47.5,19.7c4.1-0.5,8.2,0.7,11.6,1.9c-2.7-3.2-7.6-5-12.3-4.2c-4.2,0.7-7.3,3.2-8.4,6.4
		C40.5,22.2,43.6,20.2,47.5,19.7z"/>
	<path fill="#453700" d="M49.7,22.9c3.4,0.1,6.9,0.5,9.9,1.2c-2.5-1.3-6.7-2.8-10.7-2.8c-3.5,0-5.9,1.3-6.7,2.3
		C44,23,46.6,22.8,49.7,22.9z"/>
	<path fill="#453700" d="M53.5,24.8c1.6,0.4,3.2,1.1,4.5,1.7c-1-0.9-2.7-2.1-4.5-2.5c-1.7-0.4-3.1-0.2-3.6,0.2
		C50.7,24.2,52,24.3,53.5,24.8z"/>
	<circle fill="#2D2D2D" cx="20.8" cy="27.4" r="6.8"/>
	<circle fill="#FFFFFF" cx="18.5" cy="25.9" r="2.5"/>
	<path fill="#FC9F47" d="M59.6,34.3c-5.3-4.9-17.5-4.7-20.2,0C36.8,38.9,53.7,52,58,47.7S63,37.4,59.6,34.3z"/>
	<path fill="#631B1A" d="M36.5,56.6c-1.4,0.9-3,1.5-4.8,1.8c-1.7,0.3-3.6,0.1-5.3-0.9c-0.8-0.5-1.6-1.2-2-2.2
		c-0.4-0.9-0.6-2.1-0.2-3.1c0.3-1,0.9-1.9,1.7-2.5c0.7-0.6,1.6-1.1,2.4-1.5l-0.4,1.5c-0.5-0.7-0.8-1.4-1.1-2.2
		c-0.3-0.8-0.5-1.7-0.4-2.6c0.1-0.9,0.6-2,1.4-2.5c0.8-0.6,1.6-0.8,2.5-0.9c0.8-0.2,1.8,0,2.5,0.3c0.8,0.3,1.5,0.7,2.1,1.2
		c1.2,1,2.2,2.2,2.9,3.5c-1.1-1.1-2.2-2.1-3.4-2.8c-1.2-0.7-2.6-1.1-3.9-0.8c-0.7,0.2-1.3,0.4-1.7,0.8c-0.4,0.4-0.6,0.8-0.6,1.4
		c0,1.1,0.6,2.5,1.3,3.6l0.7,1l-1.1,0.5c-1.4,0.6-2.6,1.5-3,2.7c-0.4,1.2,0.1,2.5,1.3,3.3c1.2,0.8,2.7,1.2,4.3,1.2
		C33.3,57.4,34.9,57.1,36.5,56.6z"/>
</g>
</svg>
