<?xml version="1.0" encoding="utf-8"?>
<!-- Generator: Adobe Illustrator 17.1.0, SVG Export Plug-In . SVG Version: 6.00 Build 0)  -->
<!DOCTYPE svg PUBLIC "-//W3C//DTD SVG 1.1 Tiny//EN" "http://www.w3.org/Graphics/SVG/1.1/DTD/svg11-tiny.dtd">
<svg version="1.1" baseProfile="tiny" id="Layer_1" xmlns="http://www.w3.org/2000/svg" xmlns:xlink="http://www.w3.org/1999/xlink"
	 x="0px" y="0px" viewBox="0 0 69 69" xml:space="preserve">
<g>
	<circle display="none" fill="#FFCA00" cx="34.5" cy="34.5" r="34.5"/>
	<path fill="#FFFFFF" d="M3.7,25.9c0,2.1,0,4.7,0.5,6.8c1.3,5.3,5.7,8.2,9.3,8.4c10.7,0.5,13.9-4.1,14.8-11.6
		c0.2-1.6,0.5-4.7,0.6-6.2c0.1-2.4-8.1-3.4-13.2-3.4C9.1,19.9,3.7,19.3,3.7,25.9z"/>
	<path fill="#FFFFFF" d="M53.7,19.9c-5.1,0-13.3,0.9-13.2,3.4c0.1,1.6,0.4,4.7,0.6,6.2C42,37,45.2,41.6,55.9,41.1
		c3.6-0.2,8.1-3.1,9.3-8.4c0.5-2.2,0.5-4.7,0.5-6.8C65.7,19.3,60.4,19.9,53.7,19.9z"/>
	<circle fill="#2D2D2D" cx="22.7" cy="29.5" r="6.8"/>
	<circle fill="#FFFFFF" cx="21.1" cy="27.3" r="2.5"/>
	<circle fill="#2D2D2D" cx="46.3" cy="29.5" r="6.8"/>
	<circle fill="#FFFFFF" cx="44.6" cy="27.3" r="2.5"/>
	<path fill="#2D2D2D" d="M67.4,18.1C61.7,16.5,56.8,16,53.7,16c-4.1,0-8.5,0.5-13.3,2.5c-0.4,0.2-0.8,0.4-1,0.7
		c-2.4-1.5-6.6-1.8-9.6-0.2c-0.2-0.2-0.4-0.3-0.7-0.4c-4.8-2-9.2-2.5-13.3-2.5c-3.2,0-8,0.5-13.7,2.2c-0.3,1.6-0.6,4-0.6,6.4v0
		c0,2.6,0,5.6,0.6,8.3c1.5,6.4,6.8,10,11.1,10.2c12.7,0.6,16.6-4.9,17.6-14.1c0.2-1.9,0.6-5.7,0.7-7.6c0-0.2,0-0.4-0.1-0.6
		c2.2-0.9,5.2-0.6,6.6,0.3c0,0.1,0,0.2,0,0.2c0.1,1.9,0.5,5.7,0.7,7.6c1.1,9.1,4.9,14.7,17.6,14.1c4.3-0.2,9.6-3.8,11.1-10.2
		c0.6-2.6,0.6-5.7,0.6-8.3l0,0C67.9,21.7,67.8,20.2,67.4,18.1z M28.4,29.5c-0.9,7.6-4.1,12.1-14.8,11.6c-3.6-0.2-8.1-3.1-9.3-8.4
		c-0.5-2.2-0.5-4.7-0.5-6.8c0-6.6,5.3-6,12-6c5.1,0,13.3,0.9,13.2,3.4C28.9,24.8,28.6,27.9,28.4,29.5z M65.2,32.7
		c-1.3,5.3-5.7,8.2-9.3,8.4C45.2,41.6,42,37,41.1,29.5c-0.2-1.6-0.5-4.7-0.6-6.2c-0.1-2.4,8.1-3.4,13.2-3.4c6.7,0,12-0.6,12,6
		C65.7,28,65.8,30.5,65.2,32.7z"/>
	<path fill="#631B1A" d="M51.5,46.8c1.1,0,2,1,1.7,2.1C51.7,54.6,44,59,34.7,59c-9.2,0-16.8-4.3-18.5-9.9c-0.3-1.1,0.5-2.3,1.7-2.3
		H51.5z"/>
	<path fill="#D55359" d="M39.5,53.7c-1.8,0-3.5,0.6-4.8,1.7c-1.3-1.1-3-1.7-4.8-1.7c-2.5,0-4.6,1.2-6,3c3.1,1.4,6.8,2.3,10.9,2.3
		c4,0,7.8-0.8,10.9-2.3C44.2,54.9,42,53.7,39.5,53.7z"/>
	<path fill="#FFFFFF" d="M23,50.4c0.8,0.1,1.6,0,2.3-0.2c0.8,0.7,1.8,1.2,3,1.4c1,0.1,1.9-0.1,2.8-0.4c0.7,0.5,1.6,0.9,2.6,1
		c1.5,0.2,2.8-0.3,3.9-1.1c0.5,0.2,1,0.4,1.6,0.4c1.6,0.2,3.1-0.3,4.2-1.3c0.4,0.2,0.9,0.3,1.4,0.3c2.6,0.3,5-1.3,5.8-3.7h-32
		C19.2,48.7,20.9,50.2,23,50.4z"/>
	<path fill="none" d="M53.7,19.9c-5.1,0-13.3,0.9-13.2,3.4c0.1,1.6,0.4,4.7,0.6,6.2C42,37,45.2,41.6,55.9,41.1
		c3.6-0.2,8.1-3.1,9.3-8.4c0.5-2.2,0.5-4.7,0.5-6.8C65.7,19.3,60.4,19.9,53.7,19.9z"/>
	<path fill="none" d="M15.7,19.9c-6.7,0-12-0.6-12,6c0,2.1,0,4.7,0.5,6.8c1.3,5.3,5.7,8.2,9.3,8.4c10.7,0.5,13.9-4.1,14.8-11.6
		c0.2-1.6,0.5-4.7,0.6-6.2C29.1,20.8,20.8,19.9,15.7,19.9z"/>
</g>
</svg>
