<?xml version="1.0" encoding="utf-8"?>
<!-- Generator: Adobe Illustrator 17.1.0, SVG Export Plug-In . SVG Version: 6.00 Build 0)  -->
<!DOCTYPE svg PUBLIC "-//W3C//DTD SVG 1.1 Tiny//EN" "http://www.w3.org/Graphics/SVG/1.1/DTD/svg11-tiny.dtd">
<svg version="1.1" baseProfile="tiny" id="Layer_1" xmlns="http://www.w3.org/2000/svg" xmlns:xlink="http://www.w3.org/1999/xlink"
	 x="0px" y="0px" viewBox="0 0 40.3 40.3" xml:space="preserve">
<path display="none" fill="#FFCA00" d="M20.2,0c11.1,0,20.2,9,20.2,20.2s-9,20.2-20.2,20.2C9,40.3,0,31.3,0,20.2S9,0,20.2,0"/>
<g>
	<polygon fill="#2D2D2D" points="0.1,13.1 0.1,14.8 0.1,16.4 1.7,16.4 1.7,18.1 3.4,18.1 3.4,19.7 5.1,19.7 5.1,21.4 16,21.4 
		16,19.7 17.5,19.7 17.5,18.1 19.1,18.1 19.1,16.4 19.1,14.8 21.2,14.8 21.2,16.4 21.2,18.1 22.9,18.1 22.9,19.7 24.6,19.7 
		24.6,21.4 35.5,21.4 35.5,19.7 37,19.7 37,18.1 38.6,18.1 38.6,16.4 40.2,16.4 40.2,14.8 40.2,13.1 	"/>
	<g>
		<rect x="35.3" y="14.8" fill="#7D7D7D" width="1.6" height="1.6"/>
		<rect x="33.7" y="16.4" fill="#7D7D7D" width="1.6" height="1.6"/>
		<rect x="32" y="18.1" fill="#7D7D7D" width="1.6" height="1.6"/>
		<rect x="30.4" y="16.4" fill="#7D7D7D" width="1.6" height="1.6"/>
		<rect x="28.7" y="18.1" fill="#7D7D7D" width="1.6" height="1.6"/>
		<rect x="32" y="14.8" fill="#7D7D7D" width="1.6" height="1.6"/>
		<rect x="15.8" y="14.8" fill="#7D7D7D" width="1.6" height="1.6"/>
		<rect x="12.5" y="18.1" fill="#7D7D7D" width="1.6" height="1.6"/>
		<rect x="9.2" y="18.1" fill="#7D7D7D" width="1.6" height="1.6"/>
		<rect x="10.9" y="16.4" fill="#7D7D7D" width="1.6" height="1.6"/>
		<rect x="12.5" y="14.8" fill="#7D7D7D" width="1.6" height="1.6"/>
		<rect x="14.2" y="16.4" fill="#7D7D7D" width="1.6" height="1.6"/>
	</g>
</g>
<path fill="none" stroke="#5E522D" stroke-width="2" stroke-linecap="round" stroke-linejoin="bevel" stroke-miterlimit="10" d="
	M32.8,26.6c-1.4,1.6-3.3,3.4-7.1,5.1c-1.1,0.5-2.1,0.8-3.2,1"/>
</svg>
