<?xml version="1.0" encoding="utf-8"?>
<!-- Generator: Adobe Illustrator 17.1.0, SVG Export Plug-In . SVG Version: 6.00 Build 0)  -->
<!DOCTYPE svg PUBLIC "-//W3C//DTD SVG 1.1 Tiny//EN" "http://www.w3.org/Graphics/SVG/1.1/DTD/svg11-tiny.dtd">
<svg version="1.1" baseProfile="tiny" id="Layer_1" xmlns="http://www.w3.org/2000/svg" xmlns:xlink="http://www.w3.org/1999/xlink"
	 x="0px" y="0px" viewBox="0 0 48 48" xml:space="preserve">
<circle display="none" fill="#FFCD24" cx="24" cy="24" r="24"/>
<path fill="#FFFFFF" d="M12.7,19.1C12.7,19.1,12.7,19.1,12.7,19.1c-0.4,1.6-2.3,1.4-2.6-0.1c0-0.1,0-0.1-0.1-0.2
	c0-0.1,0.1-0.3,0.1-0.4c0-0.1,0.1-0.2,0-0.3c0.3,0.1,0.6,0.2,0.9,0.3C11.7,18.7,12.2,18.9,12.7,19.1z"/>
<path fill="#FFFFFF" d="M37.9,18.8c0,0.1-0.1,0.1-0.1,0.2c-0.3,1.5-2.1,1.7-2.5,0.1c0,0,0-0.1,0-0.1c0.5-0.2,1.1-0.4,1.6-0.6
	c0.3-0.1,0.6-0.2,0.8-0.3c0,0.1,0,0.2,0,0.3C37.8,18.6,37.8,18.7,37.9,18.8z"/>
<path fill="#0D0D0D" d="M40.2,16c-1.6,0.6-3.3,1.2-4.9,1.9c-1,0.4-2.4,0.7-3.2,1.4c-1.4,1.2-0.6,3.1,0.7,4c3.6,2.4,7.6-1.7,5.9-5.4
	c0,0,0-0.1-0.1-0.1c0.6-0.2,1.3-0.5,1.9-0.7C41.2,16.8,40.9,15.8,40.2,16z M37.8,19c-0.3,1.5-2.1,1.7-2.5,0.1c0,0,0-0.1,0-0.1
	c0.5-0.2,1.1-0.4,1.6-0.6c0.3-0.1,0.6-0.2,0.8-0.3c0,0.1,0,0.2,0,0.3c0.1,0.1,0.1,0.3,0.2,0.4C37.9,18.9,37.8,18.9,37.8,19z
	 M15.9,19.3c-0.8-0.7-2.2-1-3.2-1.4C11,17.3,9.4,16.7,7.8,16c-0.7-0.2-0.9,0.8-0.3,1c0.6,0.2,1.3,0.5,1.9,0.7c0,0-0.1,0.1-0.1,0.1
	c-1.7,3.7,2.2,7.7,5.9,5.4C16.6,22.4,17.3,20.5,15.9,19.3z M12.7,19.2c-0.4,1.5-2.3,1.3-2.5-0.1c0-0.1,0-0.1-0.1-0.2
	c0-0.1,0.1-0.3,0.1-0.4c0-0.1,0.1-0.2,0-0.3c0.3,0.1,0.6,0.2,0.9,0.3C11.7,18.7,12.2,18.9,12.7,19.2C12.7,19.1,12.7,19.1,12.7,19.2z
	 M38.6,31.2c-1.8-2.6-4.8-3.9-7.9-2.9c-0.8,0.3-2.2,1.8-3,1.8c-0.2,0-1.8-1.3-2-1.4c-0.6-0.2-1.1-0.4-1.8-0.5
	c-1.7-0.2-3.3,0.3-4.6,1.3c-0.2,0.2-0.6,0.7-0.8,0.8c-0.2,0-1.5-1-1.8-1.1c-2.6-1-5.4-0.3-7.3,1.7c-0.5,0.5,0.3,1.3,0.8,0.8
	c2.2-2.3,5.8-2.4,8.1-0.1c0.2,0.2,0.6,0.2,0.8,0c2.3-3,6.1-3,8.4-0.1c0.2,0.2,0.6,0.2,0.8,0c2.6-3.2,7.1-3.2,9.4,0.3
	C38.1,32.3,39,31.8,38.6,31.2z"/>
</svg>
