<?xml version="1.0" encoding="utf-8"?>
<!-- Generator: Adobe Illustrator 17.1.0, SVG Export Plug-In . SVG Version: 6.00 Build 0)  -->
<!DOCTYPE svg PUBLIC "-//W3C//DTD SVG 1.1 Tiny//EN" "http://www.w3.org/Graphics/SVG/1.1/DTD/svg11-tiny.dtd">
<svg version="1.1" baseProfile="tiny" id="Layer_1" xmlns="http://www.w3.org/2000/svg" xmlns:xlink="http://www.w3.org/1999/xlink"
	 x="0px" y="0px" viewBox="0 0 48 48" xml:space="preserve">
<circle display="none" fill="#FFCD24" cx="24" cy="24" r="24"/>
<path fill="#0D0D0D" d="M12.5,17.6c0,1.1-0.8,2.1-1.8,2.3c0,5.2,0,10.4,0,15.6c0,0.9-1.3,0.9-1.3,0c0-5.2,0-10.4,0-15.6
	c-1-0.3-1.8-1.2-1.8-2.3c0-1.3,1.1-2.4,2.4-2.4C11.4,15.2,12.5,16.3,12.5,17.6z M40.4,17.6c0-1.3-1.1-2.4-2.4-2.4
	c-1.3,0-2.4,1.1-2.4,2.4c0,1.1,0.7,2,1.7,2.3c0.1,5.6,0.2,11.2,0.2,16.8c0,0.9,1.4,0.9,1.3,0c-0.1-5.6-0.2-11.1-0.2-16.7
	C39.6,19.7,40.4,18.8,40.4,17.6z M24.4,16.8c-5.1-0.2-8.9,4.1-8.8,9.1c0,0.9,1.4,0.9,1.3,0c-0.2-10.3,15.2-9.7,14.1,0.6
	c-0.1,0.9,1.3,0.9,1.3,0C32.9,21.6,29.5,17,24.4,16.8z"/>
</svg>
