<?xml version="1.0" encoding="utf-8"?>
<!-- Generator: Adobe Illustrator 17.1.0, SVG Export Plug-In . SVG Version: 6.00 Build 0)  -->
<!DOCTYPE svg PUBLIC "-//W3C//DTD SVG 1.1 Tiny//EN" "http://www.w3.org/Graphics/SVG/1.1/DTD/svg11-tiny.dtd">
<svg version="1.1" baseProfile="tiny" id="Layer_1" xmlns="http://www.w3.org/2000/svg" xmlns:xlink="http://www.w3.org/1999/xlink"
	 x="0px" y="0px" viewBox="0 0 48 48" xml:space="preserve">
<circle display="none" fill="#FFCD24" cx="24" cy="24" r="24"/>
<path fill="#0D0D0D" d="M23.2,37.8c1.8,1.4,5.4,3.2,6.9,0.3c0.8-1.5,0-3-1.2-3.6c0.8-0.9,1-2.3,0.1-3.4c-1.4-1.8-4-1.4-4.9,0.6
	c-0.4,0.8,0.8,1.5,1.2,0.7c0.5-0.9,1.7-1.5,2.5-0.6c1,1,0.2,2.3-0.9,2.6c-0.8,0.2-0.5,1.5,0.4,1.3c1.3-0.3,2.3,1.2,1.4,2.2
	c-0.4,0.5-1.2,0.6-1.7,0.5c-1.2-0.1-2.2-0.9-3.1-1.6C23.2,36.1,22.5,37.3,23.2,37.8z"/>
<path fill="#0D0D0D" d="M18.5,19.7c1.4,4.9-4,9.2-8.3,6.2c-0.5-0.4-0.9-0.8-1.3-1.2c-1.3-0.2-2.7,0-4,0.4c-0.7,0.2-1-0.9-0.3-1.1
	c1.2-0.4,2.4-0.6,3.6-0.5c-0.1-0.2-0.1-0.3-0.2-0.5c-1.3-0.1-2.5,0.1-3.7,0.6c-0.7,0.3-1-0.9-0.3-1.1c1.2-0.5,2.5-0.7,3.8-0.6
	c-0.1-2.8,2.2-5.7,5.5-5.8c0.4,0,0.7,0.1,0.9,0.4c0.6,0.5,0.7,1.4-0.1,1.9c-2.8,1.6,1.3,4.6,2,1.5C16.5,18.5,18.2,18.6,18.5,19.7z
	 M43.3,22.3c-1.2-0.5-2.5-0.7-3.8-0.6c0.1-0.7,0-1.3-0.2-2c-0.3-1.1-2-1.2-2.3,0c-0.7,3.1-4.8,0.1-2-1.5c0.8-0.5,0.7-1.4,0.1-1.9
	c-0.2-0.2-0.5-0.4-0.9-0.4c-5.2,0.1-7.7,6.8-3.3,9.9c2.7,1.9,5.7,0.9,7.4-1.2c1.4-0.2,2.7,0,4,0.4c0.7,0.2,1-0.9,0.3-1.1
	c-1.2-0.4-2.4-0.6-3.6-0.5c0.1-0.2,0.1-0.3,0.2-0.5c1.3-0.1,2.5,0.1,3.7,0.6C43.7,23.8,44,22.6,43.3,22.3z"/>
</svg>
