<?xml version="1.0" encoding="utf-8"?>
<!-- Generator: Adobe Illustrator 17.1.0, SVG Export Plug-In . SVG Version: 6.00 Build 0)  -->
<!DOCTYPE svg PUBLIC "-//W3C//DTD SVG 1.1 Tiny//EN" "http://www.w3.org/Graphics/SVG/1.1/DTD/svg11-tiny.dtd">
<svg version="1.1" baseProfile="tiny" id="Layer_1" xmlns="http://www.w3.org/2000/svg" xmlns:xlink="http://www.w3.org/1999/xlink"
	 x="0px" y="0px" viewBox="0 0 48 48" xml:space="preserve">
<circle display="none" fill="#FFCD24" cx="24" cy="24" r="24"/>
<path fill="#FFFFFF" d="M29.8,38.6h-1.4c-0.3,0-0.6,0-0.9,0c-0.1,0-0.1,0-0.1,0c0,0,0-0.1,0-0.2c0.1-1.3-0.1-2.9-0.1-4.2
	c0.9,0,1.8,0,2.6,0c0,0,0,0.1,0,0.1C29.7,35.7,29.8,37.2,29.8,38.6z"/>
<path fill="#FFFFFF" d="M19.6,38.6h-1.4c-0.3,0-0.6,0-0.9,0c0,0-0.1,0-0.1,0c0,0,0-0.1,0-0.2c0.1-1.3-0.1-2.8-0.1-4.1
	c0.9,0,1.7,0,2.6,0C19.5,35.7,19.6,37.2,19.6,38.6z"/>
<circle fill="#FFFFFF" stroke="#0D0D0D" stroke-width="1.3" stroke-miterlimit="10" cx="14.5" cy="23.4" r="7.2"/>
<circle fill="#FFFFFF" stroke="#0D0D0D" stroke-width="1.3" stroke-miterlimit="10" cx="33.5" cy="23.4" r="7.2"/>
<g id="Layer_2">
	<path fill="none" stroke="#000000" stroke-width="1.3" stroke-miterlimit="10" d="M26.4,23.4c-1.3-1.3-3.4-1.3-4.8,0"/>
</g>
<path fill="#0D0D0D" d="M30.8,23.8c-0.8,0-1.5,0.7-1.5,1.5c0,0.8,0.7,1.5,1.5,1.5s1.5-0.7,1.5-1.5C32.3,24.5,31.7,23.8,30.8,23.8z
	 M17.6,23.8c-0.8,0-1.5,0.7-1.5,1.5c0,0.8,0.7,1.5,1.5,1.5c0.8,0,1.5-0.7,1.5-1.5C19.1,24.5,18.4,23.8,17.6,23.8z M38.4,32.8
	c-9.6,0.2-19.2,0.3-28.8,0.5c-0.8,0-0.8,1.2,0,1.2c2,0,4.1-0.1,6.1-0.1c0,1,0.1,1.9,0.1,2.9c0,0.6-0.1,1.6,0.2,2.2
	c0.3,0.5,0.7,0.4,1.2,0.4c1,0,2,0,3,0c0.3,0,0.6-0.3,0.6-0.6c0-1.7-0.1-3.3-0.1-5c1.7,0,3.5-0.1,5.2-0.1c0,1,0.1,2,0.1,3
	c0,0.6-0.1,1.6,0.2,2.2c0.3,0.5,0.7,0.4,1.2,0.4c1,0,2,0,3,0c0.3,0,0.6-0.3,0.6-0.6c0-1.7-0.1-3.3-0.1-5c0-0.1,0-0.1,0-0.2
	c2.5,0,5-0.1,7.5-0.1C39.2,34,39.2,32.7,38.4,32.8z M18.2,38.6c-0.3,0-0.6,0-0.9,0c0,0-0.1,0-0.1,0c0,0,0-0.1,0-0.2
	c0.1-1.3-0.1-2.8-0.1-4.1c0.9,0,1.7,0,2.6,0c0,1.4,0.1,2.9,0.1,4.3H18.2z M28.4,38.6c-0.3,0-0.6,0-0.9,0c-0.1,0-0.1,0-0.1,0
	c0,0,0-0.1,0-0.2c0.1-1.3-0.1-2.9-0.1-4.2c0.9,0,1.8,0,2.6,0c0,0,0,0.1,0,0.1c0,1.4,0.1,2.9,0.1,4.3H28.4z"/>
</svg>
