<?xml version="1.0" encoding="utf-8"?>
<!-- Generator: Adobe Illustrator 17.1.0, SVG Export Plug-In . SVG Version: 6.00 Build 0)  -->
<!DOCTYPE svg PUBLIC "-//W3C//DTD SVG 1.1 Tiny//EN" "http://www.w3.org/Graphics/SVG/1.1/DTD/svg11-tiny.dtd">
<svg version="1.1" baseProfile="tiny" id="Layer_1" xmlns="http://www.w3.org/2000/svg" xmlns:xlink="http://www.w3.org/1999/xlink"
	 x="0px" y="0px" viewBox="0 0 48 48" xml:space="preserve">
<circle display="none" fill="#FFCD24" cx="24" cy="24" r="24"/>
<path fill="#FFFFFF" d="M28.4,33c0,2.1-0.2,4.4-1.3,5.7c-1.5,1.8-4.2,1.2-5.4-0.4c0,0,0-0.1-0.1-0.1C21.7,34.6,24.9,32.1,28.4,33z"
	/>
<path fill="#0D0D0D" d="M30.1,23.7C30.1,23.6,30.1,23.6,30.1,23.7c-0.9-2.1-4.9-1.5-6.5-1.5c-0.8,0-1.6,0-2.4,0c-0.5,0-1,0-1.4,0.2
	c-1.8,0.7-1.3,3.7-1.3,5.2c0,2.2,0.2,4.3,0.5,6.5c0.2,1.6,0.5,3.3,1.3,4.7c0,0.1,0.1,0.2,0.1,0.2c0.6,1,1.5,1.9,2.7,2.4
	c4.4,1.8,6-2.9,6.3-6.3c0.2-3.1,0.5-6.2,0.8-9.3C30.3,24.9,30.4,24.2,30.1,23.7z M26.9,23.9C26.9,23.9,26.9,23.9,26.9,23.9
	C26.9,23.9,26.9,23.9,26.9,23.9L26.9,23.9z M27.2,38.7c-1.5,1.8-4.2,1.2-5.4-0.4c0,0,0-0.1-0.1-0.1c0-3.6,3.2-6.1,6.8-5.2
	C28.4,35.1,28.3,37.4,27.2,38.7z M33.3,12.8c-2.9,0.3-4.9,2.8-5.1,5.5c-0.1,0.9,1.3,0.9,1.4,0C30,13.2,37.2,13,38,18
	c0.2,0.9,1.5,0.5,1.4-0.4C38.9,14.8,36.3,12.5,33.3,12.8z M13.7,12.8c-2.8,0.3-4.9,2.8-5.1,5.5c-0.1,0.9,1.3,0.9,1.4,0
	c0.3-5.1,7.5-5.3,8.4-0.3c0.1,0.9,1.5,0.5,1.3-0.4C19.2,14.8,16.6,12.5,13.7,12.8z"/>
</svg>
