<?xml version="1.0" encoding="utf-8"?>
<!-- Generator: Adobe Illustrator 17.1.0, SVG Export Plug-In . SVG Version: 6.00 Build 0)  -->
<!DOCTYPE svg PUBLIC "-//W3C//DTD SVG 1.1 Tiny//EN" "http://www.w3.org/Graphics/SVG/1.1/DTD/svg11-tiny.dtd">
<svg version="1.1" baseProfile="tiny" id="Layer_1" xmlns="http://www.w3.org/2000/svg" xmlns:xlink="http://www.w3.org/1999/xlink"
	 x="0px" y="0px" viewBox="0 0 48 48" xml:space="preserve">
<circle display="none" fill="#FFCD24" cx="24" cy="24" r="24"/>
<path fill="#0D0D0D" d="M16.7,18.8c-1-1.4-2.9-2.1-4.5-1.3c-1.1,0.6-1.6,1.6-2,2.8c-0.7-0.7-1.6-1.2-2.7-1.3
	c-1.5-0.1-2.8,0.7-3.3,2.2c-1.2,3.6,2.3,5.2,5,7c0.2,0.1,0.5,0.2,0.8,0.3c1,0.6,2,0.9,3.1,0.8c1.6-0.5,2.6-1.9,3.3-3.5
	C17.4,23.6,18.3,21,16.7,18.8z M31.6,25.8c0.8,1.6,1.7,3,3.3,3.5c1.1,0.1,2.1-0.2,3.1-0.8c0.3-0.2,0.5-0.3,0.8-0.3
	c2.7-1.7,6.2-3.4,5-7c-0.5-1.4-1.8-2.3-3.3-2.2c-1.1,0.1-2,0.6-2.7,1.3c-0.3-1.2-0.9-2.2-2-2.8c-1.6-0.9-3.5-0.1-4.5,1.3
	C29.7,21,30.6,23.6,31.6,25.8z M24.3,31.1c-2.3,0.2-3.9-2-3.6-4.1c0.2-0.9,1.6-0.5,1.4,0.4c-0.2,1.2,1,2.5,2.2,2.2
	c1.1-0.2,1.8-1.5,1.4-2.6c-0.3-0.9,1.1-1.3,1.4-0.4C27.8,28.5,26.4,30.9,24.3,31.1z"/>
</svg>
