<?xml version="1.0" encoding="utf-8"?>
<!-- Generator: Adobe Illustrator 17.1.0, SVG Export Plug-In . SVG Version: 6.00 Build 0)  -->
<!DOCTYPE svg PUBLIC "-//W3C//DTD SVG 1.1 Tiny//EN" "http://www.w3.org/Graphics/SVG/1.1/DTD/svg11-tiny.dtd">
<svg version="1.1" baseProfile="tiny" id="Layer_1" xmlns="http://www.w3.org/2000/svg" xmlns:xlink="http://www.w3.org/1999/xlink"
	 x="0px" y="0px" viewBox="0 0 48 48" xml:space="preserve">
<circle display="none" fill="#FFCD24" cx="24" cy="24" r="24"/>
<path fill="#FFFFFF" d="M28.3,38.9c-1.6,0.6-3.4,0.8-5.4,0.2C21.3,38.7,20.1,38,19,37C22.1,34.3,26.5,35.3,28.3,38.9
	C28.2,38.9,28.3,38.9,28.3,38.9z"/>
<path fill="#0D0D0D" d="M10.4,16.4c-0.9,0-1.6,0.7-1.6,1.6c0,0.9,0.7,1.5,1.6,1.5c0.9,0,1.6-0.7,1.6-1.5
	C11.9,17.1,11.2,16.4,10.4,16.4z M37.6,16.4c-0.9,0-1.6,0.7-1.6,1.6c0,0.9,0.7,1.5,1.6,1.5c0.9,0,1.5-0.7,1.5-1.5
	C39.2,17.1,38.5,16.4,37.6,16.4z M32.6,20.7c-2.4-1.7-6.1,0.3-8.5,1.1c-4.5,1.5-9.1,3-13.6,4.4c-0.8,0.3-0.5,1.5,0.4,1.3
	c1.4-0.5,2.7-0.9,4.1-1.3v0c-0.3,0.1-0.5,0.3-0.6,0.6c-0.5,5.4,1.8,11.3,7.2,13.3C26.5,42,31.9,40,34,35.2
	C35.6,31.7,36.3,23.4,32.6,20.7z M22.9,39.1C21.3,38.7,20.1,38,19,37c3.1-2.7,7.4-1.7,9.2,1.9c0,0,0,0,0,0
	C26.7,39.6,24.9,39.7,22.9,39.1z"/>
</svg>
