<?xml version="1.0" encoding="utf-8"?>
<!-- Generator: Adobe Illustrator 17.1.0, SVG Export Plug-In . SVG Version: 6.00 Build 0)  -->
<!DOCTYPE svg PUBLIC "-//W3C//DTD SVG 1.1 Tiny//EN" "http://www.w3.org/Graphics/SVG/1.1/DTD/svg11-tiny.dtd">
<svg version="1.1" baseProfile="tiny" id="Layer_1" xmlns="http://www.w3.org/2000/svg" xmlns:xlink="http://www.w3.org/1999/xlink"
	 x="0px" y="0px" viewBox="0 0 48 48" xml:space="preserve">
<circle display="none" fill="#FFCD24" cx="24" cy="24" r="24"/>
<path fill="#0D0D0D" d="M43.5,18.7c-0.1,0.5-0.3,1-0.5,1.5c-1.5,3.8-4.6,6.7-9,6.7c-4.1,0-7.2-2.9-7.8-6.7h-4.8
	c-1.5,3.8-4.6,6.7-9,6.7c-4.1,0-7.2-2.9-7.8-6.7c-0.1-0.5-0.1-1-0.1-1.5H43.5z M31.8,32.8c-0.9,2-2.9,2.9-5,2
	c-0.9-0.3-1.2,1.1-0.4,1.4c2.6,1,5.5-0.1,6.6-2.7C33.4,32.7,32.2,31.9,31.8,32.8z"/>
</svg>
