<?xml version="1.0" encoding="utf-8"?>
<!-- Generator: Adobe Illustrator 17.1.0, SVG Export Plug-In . SVG Version: 6.00 Build 0)  -->
<!DOCTYPE svg PUBLIC "-//W3C//DTD SVG 1.1 Tiny//EN" "http://www.w3.org/Graphics/SVG/1.1/DTD/svg11-tiny.dtd">
<svg version="1.1" baseProfile="tiny" id="Layer_1" xmlns="http://www.w3.org/2000/svg" xmlns:xlink="http://www.w3.org/1999/xlink"
	 x="0px" y="0px" viewBox="0 0 48 48" xml:space="preserve">
<circle display="none" fill="#FFCD24" cx="24" cy="24" r="24"/>
<path fill="#FFFFFF" d="M33,35.5c-0.1,0.1-0.2,0.2-0.3,0.4c-2.7,3.3-6.7,2.5-10.3,1.2c-0.9-0.3-1.8-0.7-2.6-1
	C23.6,32.8,28.7,32.5,33,35.5z"/>
<path fill="#0D0D0D" d="M35.2,31.1c-0.9-5-5.8-6-10.2-5.2c-2.5,0.5-4.9,1.4-7.1,2.5c-2.8,1.5-6.3,3.4-5.8,7.1
	c0.1,0.5,0.4,0.7,0.9,0.7c5.8-1,10.6,4.7,16.5,3.3C33.2,38.6,36,35.1,35.2,31.1z M32.7,35.9c-2.7,3.3-6.7,2.5-10.3,1.2
	c-0.9-0.3-1.8-0.7-2.6-1c3.9-3.4,8.9-3.6,13.2-0.6C32.9,35.6,32.8,35.7,32.7,35.9z M33.2,22.4c-0.9,0-0.9,1.4,0,1.4
	C34.1,23.7,34.1,22.4,33.2,22.4z M35.3,13.1c-2-1.7-4.6-0.1-5.2,2.1c-0.2,0.8,1.1,1.2,1.3,0.4c0.3-1,1.2-2,2.4-1.8
	c1.3,0.3,1.4,1.8,0.6,2.6c-1.1,1-2.3,1.6-2.4,3.2c0,0.9,1.3,0.9,1.4,0c0.1-1.6,2.4-2.2,2.9-3.7C36.6,14.9,36.1,13.8,35.3,13.1z
	 M13.8,22c-0.9,0-0.9,1.4,0,1.4S14.7,22,13.8,22z M16.7,13.8c-1.9-2-5.1-0.2-5.1,2.3c0,0.9,1.4,0.9,1.4,0c0-1,1-2.1,2.1-1.8
	c0.9,0.2,1.4,1.4,1.1,2.2c-0.3,0.8-1.2,1.2-1.8,1.7c-0.5,0.4-0.8,0.9-1.1,1.5c-0.3,0.8,1,1.2,1.3,0.4c0.5-1.4,2.3-1.7,2.8-3.2
	C17.8,15.8,17.5,14.6,16.7,13.8z"/>
</svg>
