<?xml version="1.0" encoding="utf-8"?>
<!-- Generator: Adobe Illustrator 22.0.1, SVG Export Plug-In . SVG Version: 6.00 Build 0)  -->
<svg version="1.1" baseProfile="tiny" id="Layer_3" xmlns="http://www.w3.org/2000/svg" xmlns:xlink="http://www.w3.org/1999/xlink"
	 x="0px" y="0px" viewBox="0 0 16 16" xml:space="preserve">
<path d="M16,5l-3-2v1h-1.5c-0.3,0-0.6,0-0.7,0s-0.4,0-0.7,0h-0.1C9.8,4,9.4,4.2,9.2,4.4L3.9,9.6C3.7,9.8,3.4,10,3.1,10H3H1
	c-0.5,0-1,0.5-1,1s0.5,1,1,1h1.8c0,0,0.1,0,0.2,0c0.3,0,0.6,0,0.8,0h0.1c0.3,0,0.7-0.2,0.9-0.4l5.3-5.3C10.3,6.2,10.6,6,10.9,6H13v1
	L16,5z"/>
<g>
	<path d="M1,6h2h0.1c0.3,0,0.7,0.2,0.9,0.4l0.9,0.9l1.4-1.4L4.8,4.4C4.6,4.2,4.2,4,3.9,4H3.8C3.6,4,3.3,4,3,4C2.9,4,2.9,4,2.8,4H1
		C0.5,4,0,4.5,0,5S0.5,6,1,6z"/>
	<path d="M13,10h-2.1c-0.3,0-0.7-0.2-0.9-0.4L9.1,8.7l-1.4,1.4l1.5,1.5c0.2,0.2,0.6,0.4,0.9,0.4h0.1c0.3,0,0.6,0,0.7,0s0.4,0,0.7,0
		H13v1l3-2l-3-2V10z"/>
</g>
</svg>
