<?xml version="1.0" encoding="utf-8"?>
<!-- Generator: Adobe Illustrator 22.0.1, SVG Export Plug-In . SVG Version: 6.00 Build 0)  -->
<svg version="1.1" baseProfile="tiny" id="Layer_3" xmlns="http://www.w3.org/2000/svg" xmlns:xlink="http://www.w3.org/1999/xlink"
	 x="0px" y="0px" viewBox="0 0 16 16" xml:space="preserve">
<path d="M11,8H5c-1.7,0-3,1.3-3,3v2.3C3.5,14.9,5.6,16,8,16s4.5-1.1,6-2.7V11C14,9.3,12.7,8,11,8z M13,12.9C11.7,14.2,9.9,15,8,15
	s-3.7-0.8-5-2.1V11c0-1.1,0.9-2,2-2h6c1.1,0,2,0.9,2,2V12.9z"/>
<g>
	<path d="M8,0C6.1,0,4.5,1.6,4.5,3.5S6.1,7,8,7s3.5-1.6,3.5-3.5S9.9,0,8,0z M8,6C6.6,6,5.5,4.9,5.5,3.5S6.6,1,8,1
		c1.4,0,2.5,1.1,2.5,2.5S9.4,6,8,6z"/>
</g>
</svg>
