<?xml version="1.0" encoding="utf-8"?>
<!-- Generator: Adobe Illustrator 22.0.1, SVG Export Plug-In . SVG Version: 6.00 Build 0)  -->
<svg version="1.1" baseProfile="tiny" id="Layer_3" xmlns="http://www.w3.org/2000/svg" xmlns:xlink="http://www.w3.org/1999/xlink"
	 x="0px" y="0px" viewBox="0 0 16 16" xml:space="preserve">
<path d="M5,2C3.6,2,2.5,3.1,2.5,4.5C2.5,5.9,3.6,7,5,7s2.5-1.1,2.5-2.5C7.5,3.1,6.4,2,5,2z M5,6C4.2,6,3.5,5.3,3.5,4.5S4.2,3,5,3
	s1.5,0.7,1.5,1.5S5.8,6,5,6z"/>
<path d="M7.5,8h-5C1.1,8,0,9.1,0,10.5v1.9c1.2,1.4,3,2.3,5,2.3c2,0,3.8-0.9,5-2.3v-1.9C10,9.1,8.9,8,7.5,8z M9,12
	c-1.1,1.1-2.5,1.7-4,1.7S2.1,13.1,1,12v-1.5C1,9.7,1.7,9,2.5,9h5C8.3,9,9,9.7,9,10.5V12z"/>
<path fill="#010101" d="M15.5,7H14V5.5C14,5.2,13.8,5,13.5,5S13,5.2,13,5.5V7h-1.5C11.2,7,11,7.2,11,7.5C11,7.8,11.2,8,11.5,8H13
	v1.5c0,0.3,0.2,0.5,0.5,0.5S14,9.8,14,9.5V8h1.5C15.8,8,16,7.8,16,7.5C16,7.2,15.8,7,15.5,7z"/>
</svg>
