<?xml version="1.0" standalone="no"?>
<!DOCTYPE svg PUBLIC "-//W3C//DTD SVG 1.1//EN" "http://www.w3.org/Graphics/SVG/1.1/DTD/svg11.dtd" >
<svg xmlns="http://www.w3.org/2000/svg" xmlns:xlink="http://www.w3.org/1999/xlink" version="1.1">
<metadata></metadata>
<defs>
<font id="spartan_mbsemibold" horiz-adv-x="1413" >
<font-face units-per-em="2048" ascent="1638" descent="-410" />
<missing-glyph horiz-adv-x="540" />
<glyph horiz-adv-x="0" />
<glyph horiz-adv-x="682" />
<glyph horiz-adv-x="0" />
<glyph horiz-adv-x="0" />
<glyph unicode="&#xd;" horiz-adv-x="681" />
<glyph unicode=" "  horiz-adv-x="540" />
<glyph unicode="&#x09;" horiz-adv-x="540" />
<glyph unicode="&#xa0;" horiz-adv-x="540" />
<glyph unicode="!" horiz-adv-x="659" d="M170 127q0 66 46 113t113.5 47t113.5 -47t46 -113t-46 -113t-113.5 -47t-113.5 47t-46 113zM209 1761h242l-31 -1292h-180z" />
<glyph unicode="&#x22;" horiz-adv-x="786" d="M109 1708h237l-43 -563h-151zM440 1708h238l-43 -563h-152z" />
<glyph unicode="#" horiz-adv-x="1519" d="M139 438v164h217l50 367h-267v168h285l57 438h164l-55 -438h383l57 438h164l-55 -438h196v-168h-217l-49 -367h266v-164h-286l-56 -438h-164l56 438h-385l-56 -438h-163l55 438h-197zM520 602h385l49 367h-385z" />
<glyph unicode="$" horiz-adv-x="1349" d="M80 281l170 153q141 -231 412 -231q133 0 229 61.5t96 196.5q0 113 -100.5 187.5t-319.5 160.5q-356 145 -356 428q0 190 126 321.5t308 155.5v258h152v-256q152 -14 259 -80.5t158 -154.5l-149 -135q-96 143 -334 143q-127 0 -199.5 -71.5t-72.5 -172.5q0 -84 66.5 -141 t191.5 -107q98 -39 158.5 -66.5t143.5 -76.5t129 -98t80 -122t34 -159q0 -219 -129 -345t-336 -155v-258h-152v250q-223 6 -364.5 97.5t-200.5 216.5z" />
<glyph unicode="%" horiz-adv-x="2033" d="M76 1317q0 176 123 289.5t309 113.5t309 -113.5t123 -289.5t-123 -290t-309 -114t-309 114t-123 290zM250 1317q0 -115 73.5 -188.5t184 -73.5t184.5 73.5t74 188.5t-74 188.5t-184.5 73.5t-184 -73.5t-73.5 -188.5zM444 0l983 1690h164l-983 -1690h-164zM1092 373 q0 176 122.5 289.5t309 113.5t309.5 -113.5t123 -289.5t-123 -290t-309.5 -114t-309 114t-122.5 290zM1266 372.5q0 -114.5 73.5 -188t184 -73.5t184.5 73.5t74 188t-74 188.5t-184.5 74t-184 -74t-73.5 -188.5z" />
<glyph unicode="&#x26;" horiz-adv-x="1624" d="M96 432q0 289 408 498q-98 109 -150.5 198t-52.5 191q0 174 122 287.5t341 113.5q207 0 324.5 -121.5t117.5 -279.5q0 -246 -346 -420l357 -381q121 121 221 242l159 -148q-104 -133 -221 -260l332 -352h-319l-199 213q-133 -117 -257 -181.5t-294 -64.5q-139 0 -258 45 t-202 154.5t-83 265.5zM377 451q0 -111 83 -177.5t202 -66.5q115 0 214 57.5t152 118.5l-389 405q-113 -55 -187.5 -143t-74.5 -194zM555 1319q0 -121 174 -279q127 61 190.5 124t63.5 155q0 90 -55.5 153.5t-163.5 63.5q-100 0 -154.5 -63.5t-54.5 -153.5z" />
<glyph unicode="'" horiz-adv-x="454" d="M109 1708h237l-43 -563h-151z" />
<glyph unicode="(" horiz-adv-x="743" d="M141 628.5q0 200.5 38 394.5t92.5 327t109.5 237.5t94 153.5l37 51l158 -68q-12 -16 -33 -47.5t-72 -139t-91 -225.5t-72.5 -304.5t-32.5 -379t30.5 -375.5t75.5 -308t89 -221.5t75 -141.5l31 -47l-158 -67q-14 18 -40 52t-89.5 149.5t-112.5 241.5t-89 321.5t-40 396z " />
<glyph unicode=")" horiz-adv-x="743" d="M74 -465q12 16 32.5 48t71.5 138.5t91 225.5t73 304t33 377.5t-31 377t-76 308.5t-89 221t-75 144l-30 45l157 68q14 -18 40 -52t89.5 -149.5t112.5 -242.5t89 -323t40 -396.5t-38 -394t-92 -326.5t-109.5 -236.5t-92.5 -154.5l-39 -49z" />
<glyph unicode="*" horiz-adv-x="759" d="M84 1507l35 109l200 -64v209h119v-209l203 64l35 -109l-201 -69l119 -174l-90 -62l-125 164l-123 -164l-90 62l119 174z" />
<glyph unicode="+" horiz-adv-x="1290" d="M121 745v209h420v420h209v-420h419v-209h-419v-419h-209v419h-420z" />
<glyph unicode="," horiz-adv-x="559" d="M119 129q0 66 47 113t113 47q68 0 114.5 -47t46.5 -113q0 -240 -237 -436l-66 55l8 10q8 10 15.5 20.5t17.5 26t19.5 35t19.5 41t17.5 47t11.5 52.5q-55 10 -91 52t-36 97z" />
<glyph unicode="-" horiz-adv-x="921" d="M131 489v207h660v-207h-660z" />
<glyph unicode="." horiz-adv-x="557" d="M119 127q0 66 46 113t113.5 47t113.5 -47t46 -113t-46 -113t-113.5 -47t-113.5 47t-46 113z" />
<glyph unicode="/" horiz-adv-x="1105" d="M29 -246l843 2007h205l-844 -2007h-204z" />
<glyph unicode="0" horiz-adv-x="1593" d="M109 844q0 418 198.5 647t489 229t489.5 -229t199 -647t-199 -647.5t-489.5 -229.5t-489 229.5t-198.5 647.5zM362 844q0 -309 121 -481.5t313.5 -172.5t313.5 172.5t121 481.5t-121 481t-313.5 172t-313.5 -172t-121 -481z" />
<glyph unicode="1" horiz-adv-x="614" d="M-18 1440v250h462v-1690h-254v1440h-208z" />
<glyph unicode="2" horiz-adv-x="1531" d="M141 0v127q12 10 135 103.5t201 157t206 178t205 202.5t137 192.5t60 184.5q0 147 -88 250.5t-247 103.5q-129 0 -230.5 -98t-142.5 -254l-219 59q16 88 59 174t111.5 165t178 127t243.5 48q166 0 290.5 -54t191 -142t97.5 -183.5t31 -195.5q0 -68 -23.5 -140.5 t-57.5 -134t-93.5 -133t-106.5 -121t-126 -117t-119.5 -101t-120.5 -96t-101 -79.5h779v-223h-1250z" />
<glyph unicode="3" horiz-adv-x="1331" d="M68 395l237 64q14 -96 99 -182.5t245 -86.5q143 0 227.5 79t84.5 210q0 133 -91.5 224.5t-218.5 91.5l-67 -11v174h69q115 0 200 84t85 205q0 111 -82 187.5t-192 76.5q-141 0 -211 -71.5t-91 -165.5l-206 49q8 59 38.5 121.5t88 128t157 106.5t226.5 41 q217 0 362.5 -135t145.5 -336q0 -121 -58.5 -217t-157.5 -145q121 -49 191 -157.5t70 -250.5q0 -223 -157 -367.5t-413 -144.5q-125 0 -226 32t-163.5 80t-105.5 108.5t-61.5 111.5t-24.5 96z" />
<glyph unicode="4" horiz-adv-x="1259" d="M-27 471v88l803 1131h250v-996h197v-223h-197v-471h-238v471h-815zM315 694h473v654z" />
<glyph unicode="5" horiz-adv-x="1366" d="M70 336l202 98q35 -106 135.5 -180t256.5 -74q168 0 266 98.5t98 253.5q0 193 -139 294.5t-344 101.5q-225 0 -375 -133l137 895h862v-224h-647l-61 -385q82 37 198 37q127 0 234.5 -32.5t196 -101.5t138.5 -186.5t50 -273.5q0 -246 -169 -400.5t-447 -154.5 q-238 0 -387.5 108.5t-204.5 258.5z" />
<glyph unicode="6" horiz-adv-x="1419" d="M90 539q0 303 250 602l461 549h313l-514 -607q41 33 174 33q217 0 386 -157.5t169 -419.5q0 -266 -177 -419t-429 -153q-270 0 -451.5 164t-181.5 408zM350 539q0 -156 102.5 -258.5t258.5 -102.5q158 0 262 102.5t104 258.5q0 160 -105.5 265t-260.5 105 q-147 0 -254 -108t-107 -262z" />
<glyph unicode="7" horiz-adv-x="1275" d="M113 0l819 1466h-789v224h1164v-78l-893 -1612h-301z" />
<glyph unicode="8" horiz-adv-x="1353" d="M100 451q0 164 84 279.5t224 172.5q-109 55 -174.5 154.5t-65.5 234.5q0 178 154.5 303t355.5 125t355.5 -125t154.5 -303q0 -135 -65.5 -234.5t-174.5 -154.5q139 -57 223 -173t84 -279q0 -209 -170 -346.5t-407.5 -137.5t-407.5 137.5t-170 346.5zM373 487 q0 -131 86 -217t219 -86t219 86t86 217t-88 214t-217 83t-217 -83t-88 -214zM410 1261.5q0 -116.5 76.5 -191.5t191.5 -75t191.5 75t76.5 191.5t-76.5 191.5t-191.5 75t-191.5 -75t-76.5 -191.5z" />
<glyph unicode="9" horiz-adv-x="1419" d="M90 1149q0 266 177 418.5t429 152.5q270 0 451.5 -163.5t181.5 -407.5q0 -303 -250 -602l-461 -547h-313l514 604q-41 -33 -174 -33q-217 0 -386 158t-169 420zM342 1149q0 -160 105.5 -265.5t261.5 -105.5q147 0 253.5 108.5t106.5 262.5q0 156 -102.5 258t-257.5 102 q-158 0 -262.5 -102t-104.5 -258z" />
<glyph unicode=":" horiz-adv-x="557" d="M119 127q0 66 46 113t113.5 47t113.5 -47t46 -113t-46 -113t-113.5 -47t-113.5 47t-46 113zM119 972.5q0 65.5 46 113t113.5 47.5t113.5 -47.5t46 -113t-46 -112.5t-113.5 -47t-113.5 47t-46 112.5z" />
<glyph unicode=";" horiz-adv-x="559" d="M119 129q0 66 47 113t113 47q68 0 114.5 -47t46.5 -113q0 -240 -237 -436l-66 55l8 10q8 10 15.5 20.5t17.5 26t19.5 35t19.5 41t17.5 47t11.5 52.5q-55 10 -91 52t-36 97zM119 972.5q0 65.5 46 113t113.5 47.5t113.5 -47.5t46 -113t-46 -112.5t-113.5 -47t-113.5 47 t-46 112.5z" />
<glyph unicode="&#x3c;" horiz-adv-x="1304" d="M78 772v160l1120 495v-196l-864 -379l864 -379v-197z" />
<glyph unicode="=" horiz-adv-x="1273" d="M113 522v209h1048v-209h-1048zM113 967v209h1048v-209h-1048z" />
<glyph unicode="&#x3e;" horiz-adv-x="1304" d="M106 276v197l865 379l-865 379v196l1121 -495v-160z" />
<glyph unicode="?" horiz-adv-x="1204" d="M57 1262q18 193 156.5 325.5t376.5 132.5q131 0 237.5 -47t170 -121.5t97 -163t33.5 -176.5q0 -174 -116.5 -322.5t-333.5 -176.5v-230h-221v443q43 -10 123 -11q158 0 239.5 88.5t81.5 209t-81 206.5t-230 86q-287 0 -330 -282zM408 127q0 66 46 113t113.5 47t113.5 -47 t46 -113t-46 -113t-113.5 -47t-113.5 47t-46 113z" />
<glyph unicode="@" horiz-adv-x="1935" d="M88 846q0 250 122 451.5t326.5 312t446.5 110.5q360 0 612 -239.5t252 -599.5q0 -207 -94 -323t-240 -116q-162 0 -256 117q-115 -203 -352 -203q-190 0 -317 134.5t-127 334.5q0 203 127 338t317 135q225 0 342 -180v154h168v-531q0 -49 30 -89t95 -40q70 0 102.5 59.5 t32.5 209.5q0 283 -199.5 470t-492.5 187q-287 0 -488.5 -201.5t-201.5 -490.5q0 -291 198.5 -485.5t491.5 -194.5q180 0 305 67.5t182 149.5l164 -107q-29 -43 -76 -87t-125.5 -98t-197.5 -88t-252 -34q-379 0 -637 249t-258 628zM674 827q0 -131 81 -215t208 -84 q125 0 205.5 84t80.5 215t-82 217t-204.5 86t-205.5 -86t-83 -217z" />
<glyph unicode="A" horiz-adv-x="1511" d="M-35 0l672 1690h237l672 -1690h-272l-172 453h-692l-172 -453h-273zM496 676h520l-260 672z" />
<glyph unicode="B" horiz-adv-x="1343" d="M168 0v1690h430q242 0 381 -105.5t139 -324.5q0 -266 -229 -371q379 -61 379 -430q0 -209 -143.5 -334t-397.5 -125h-559zM422 199h225q172 0 264.5 68.5t92.5 199.5q0 285 -357 285h-225v-553zM422 971h110q340 4 340 266q0 254 -340 254h-110v-520z" />
<glyph unicode="C" horiz-adv-x="1601" d="M88 844q0 365 264 620.5t637 255.5q332 0 551 -166l-113 -215q-53 45 -162.5 88t-240.5 43q-301 0 -480 -186t-179 -440q0 -256 178 -441.5t481 -185.5q131 0 240.5 43t162.5 88l113 -215q-219 -166 -551 -166q-242 0 -449.5 117t-329.5 318.5t-122 441.5z" />
<glyph unicode="D" horiz-adv-x="1536" d="M168 0v1690h428q352 0 602 -242t250 -604q0 -365 -249 -604.5t-603 -239.5h-428zM422 227h147q258 0 432.5 176.5t174.5 440.5t-174.5 441t-432.5 177h-147v-1235z" />
<glyph unicode="E" horiz-adv-x="1177" d="M168 0v1690h901v-224h-647v-508h622v-223h-622v-512h647v-223h-901z" />
<glyph unicode="F" horiz-adv-x="1177" d="M168 0v1690h907v-224h-653v-508h608v-223h-608v-735h-254z" />
<glyph unicode="G" horiz-adv-x="1777" d="M88 844q0 369 235.5 622.5t587.5 253.5q414 0 654 -288l-168 -183q-168 242 -471 242q-238 0 -401 -188.5t-163 -458.5q0 -266 165 -454.5t399 -188.5q203 0 356.5 124t153.5 322v37h-525v199h783v-236q0 -270 -224.5 -475t-558.5 -205q-340 0 -581.5 257.5t-241.5 619.5 z" />
<glyph unicode="H" horiz-adv-x="1605" d="M168 0v1690h254v-732h762v732h254v-1690h-254v735h-762v-735h-254z" />
<glyph unicode="I" horiz-adv-x="589" d="M168 0v1690h254v-1690h-254z" />
<glyph unicode="J" horiz-adv-x="1019" d="M-53 129l84 219q16 -16 42.5 -38.5t100.5 -61.5t137 -39q305 0 305 334v1147h254v-1215q0 -248 -136 -378t-392 -130q-106 0 -205.5 41t-144.5 82z" />
<glyph unicode="K" horiz-adv-x="1480" d="M168 0v1690h254v-756l686 756h309l-733 -809l825 -881h-350l-645 694l-92 -102v-592h-254z" />
<glyph unicode="L" horiz-adv-x="1144" d="M168 0v1690h254v-1467h655v-223h-909z" />
<glyph unicode="M" horiz-adv-x="1941" d="M66 0l190 1690h270l445 -1174l444 1174h271l190 -1690h-254l-141 1229l-428 -1168h-164l-428 1168l-142 -1229h-253z" />
<glyph unicode="N" horiz-adv-x="1654" d="M168 0v1690h254l811 -1264v1264h254v-1690h-254l-811 1262v-1262h-254z" />
<glyph unicode="O" horiz-adv-x="1880" d="M88 843.5q0 366.5 250 621.5t602 255t602 -255t250 -621.5t-250 -621.5t-602 -255t-602 255t-250 621.5zM362 844q0 -260 161 -446.5t417 -186.5t417 186.5t161 446.5t-161 446.5t-417 186.5t-417 -186.5t-161 -446.5z" />
<glyph unicode="P" horiz-adv-x="1327" d="M168 0v1690h516q252 0 403.5 -130t151.5 -366q0 -238 -152.5 -377t-402.5 -139h-262v-678h-254zM422 885h188q164 0 264.5 77.5t100.5 225.5q0 145 -100.5 221t-264.5 76h-188v-600z" />
<glyph unicode="Q" horiz-adv-x="1880" d="M88 843.5q0 366.5 250 621.5t602 255t602 -255t250 -621q0 -322 -199 -563q143 -70 262 -109l-112 -227q-182 76 -328 170q-211 -147 -475 -148q-352 0 -602 255t-250 621.5zM362 844q0 -260 161 -446.5t417 -186.5q145 0 262 63q-145 127 -274 271l108 133 q135 -141 330 -268q152 180 152 434q0 260 -161 446.5t-417 186.5t-417 -186.5t-161 -446.5z" />
<glyph unicode="R" horiz-adv-x="1388" d="M168 0v1690h516q252 0 403.5 -130t151.5 -366q0 -201 -109.5 -333t-300.5 -169l555 -692h-323l-518 678h-121v-678h-254zM422 885h188q164 0 264.5 77.5t100.5 225.5q0 145 -100.5 221t-264.5 76h-188v-600z" />
<glyph unicode="S" horiz-adv-x="1351" d="M80 281l170 153q141 -231 412 -231q133 0 229 61.5t96 196.5q0 113 -100.5 187.5t-319.5 160.5q-356 145 -356 428q0 211 151.5 347t354.5 136q342 0 497 -239l-157 -146q-102 154 -326 154q-127 0 -199.5 -71.5t-72.5 -172.5q0 -84 66.5 -141t191.5 -107 q98 -39 158.5 -66.5t143.5 -76.5t129 -98t80 -122t34 -159q0 -250 -165 -379t-419 -129q-238 0 -387.5 92.5t-210.5 221.5z" />
<glyph unicode="T" horiz-adv-x="1208" d="M10 1466v224h1188v-224h-469v-1466h-254v1466h-465z" />
<glyph unicode="U" horiz-adv-x="1531" d="M150 602v1088h253v-1020q0 -238 89.5 -345.5t273.5 -107.5t273 107.5t89 345.5v1020h254v-1088q0 -311 -157.5 -473t-458.5 -162t-458.5 162t-157.5 473z" />
<glyph unicode="V" horiz-adv-x="1548" d="M-35 1690h287l522 -1307l522 1307h287l-709 -1690h-200z" />
<glyph unicode="W" horiz-adv-x="2256" d="M-35 1690h283l364 -1348l420 1348h193l420 -1348l364 1348h283l-494 -1690h-282l-388 1198l-387 -1198h-282z" />
<glyph unicode="X" horiz-adv-x="1531" d="M-35 0l643 911l-540 779h305l393 -568l393 568h305l-540 -779l643 -911h-316l-485 690l-485 -690h-316z" />
<glyph unicode="Y" horiz-adv-x="1384" d="M-35 1690h305l422 -684l422 684h305l-600 -947v-743h-254v743z" />
<glyph unicode="Z" horiz-adv-x="1560" d="M61 0l988 1464h-871v226h1321l-989 -1465h934v-225h-1383z" />
<glyph unicode="[" horiz-adv-x="755" d="M168 -532v2293h528v-166h-317v-1962h317v-165h-528z" />
<glyph unicode="\" horiz-adv-x="1103" d="M29 1761h204l844 -1761h-205z" />
<glyph unicode="]" horiz-adv-x="755" d="M59 -367h318v1962h-318v166h529v-2293h-529v165z" />
<glyph unicode="^" horiz-adv-x="960" d="M-6 1239l424 483h127l424 -483h-217l-271 313l-270 -313h-217z" />
<glyph unicode="_" horiz-adv-x="1050" d="M0 -86h1051v-121h-1051v121z" />
<glyph unicode="`" horiz-adv-x="679" d="M104 1554l129 166l342 -286l-81 -111z" />
<glyph unicode="a" d="M90 524.5q0 237.5 149.5 397t374.5 159.5q256 0 394 -200v168h241v-1049h-241v174q-63 -94 -167 -150.5t-227 -56.5q-225 0 -374.5 160t-149.5 397.5zM342 524.5q0 -153.5 94 -252t244 -98.5q145 0 240.5 98.5t95.5 252t-96.5 251.5t-239.5 98q-145 0 -241.5 -98 t-96.5 -251.5z" />
<glyph unicode="b" d="M164 0v1761h242v-880q136 200 390 200h3q225 0 374.5 -159.5t149.5 -397t-149.5 -397.5t-374.5 -160q-123 0 -226.5 56.5t-166.5 150.5v-174h-242zM397 524.5q0 -153.5 95.5 -252t240.5 -98.5q150 0 244 98.5t94 252t-96 251.5t-242 98q-143 0 -239.5 -98t-96.5 -251.5z " />
<glyph unicode="c" horiz-adv-x="1091" d="M84 524.5q0 235.5 169 396t404 160.5q219 0 357 -108l-88 -164q-90 74 -236 74q-150 0 -251 -103.5t-101 -255t101.5 -255t250.5 -103.5q146 0 236 74l88 -164q-137 -109 -357 -109q-236 0 -404.5 161t-168.5 396.5z" />
<glyph unicode="d" d="M90 524.5q0 237.5 149.5 397t374.5 159.5q256 0 394 -200v880h241v-1761h-241v174q-63 -94 -167 -150.5t-227 -56.5q-225 0 -374.5 160t-149.5 397.5zM342 524.5q0 -153.5 94 -252t244 -98.5q145 0 240.5 98.5t95.5 252t-96.5 251.5t-239.5 98q-145 0 -241.5 -98 t-96.5 -251.5z" />
<glyph unicode="e" horiz-adv-x="1282" d="M84 526q0 229 166 392t397 163q238 0 394.5 -151.5t156.5 -397.5v-36h-866q0 -154 100 -244t240 -90q109 0 184.5 37t140.5 123l174 -91q-162 -264 -516 -264q-240 0 -405.5 161.5t-165.5 397.5zM340 635h625q-14 125 -100.5 194.5t-211.5 69.5q-133 0 -219 -71.5 t-94 -192.5z" />
<glyph unicode="f" horiz-adv-x="688" d="M76 866v183h125v311q0 205 91 318.5t251 113.5q152 0 241 -76l-84 -170q-39 33 -116 33q-76 0 -109 -51t-33 -170v-309h256v-183h-256v-866h-241v866h-125z" />
<glyph unicode="g" d="M90 524.5q0 237.5 149.5 397t374.5 159.5q256 0 394 -200v168h241v-1078q0 -254 -158.5 -394t-433.5 -140q-422 0 -557 305l201 96q39 -84 132 -138t224 -54q150 0 250.5 88t100.5 246v194q-63 -94 -167 -150.5t-227 -56.5q-225 0 -374.5 160t-149.5 397.5zM342 524.5 q0 -153.5 94 -252t244 -98.5q145 0 240.5 98.5t95.5 252t-96.5 251.5t-239.5 98q-145 0 -241.5 -98t-96.5 -251.5z" />
<glyph unicode="h" horiz-adv-x="1304" d="M164 0v1761h242v-841q53 76 140 118.5t177 42.5q186 0 311 -103.5t125 -299.5v-678h-239v610q0 127 -66 204t-186 77q-109 0 -185.5 -76t-76.5 -172v-643h-242z" />
<glyph unicode="i" horiz-adv-x="569" d="M125 1411.5q0 65.5 46 112.5t113.5 47t113.5 -47t46 -112.5t-46 -113t-113.5 -47.5t-113.5 47.5t-46 113zM164 0v1049h242v-1049h-242z" />
<glyph unicode="j" horiz-adv-x="569" d="M-152 -506l74 195q41 -35 109 -35q133 0 133 182v1213h242v-1250q0 -162 -80 -262t-244 -100q-129 0 -234 57zM125 1411.5q0 65.5 46 112.5t113.5 47t113.5 -47t46 -112.5t-46 -113t-113.5 -47.5t-113.5 47.5t-46 113z" />
<glyph unicode="k" horiz-adv-x="1138" d="M164 0v1761h242v-1108l364 396h309l-422 -449l529 -600h-307l-379 432l-94 -98v-334h-242z" />
<glyph unicode="l" horiz-adv-x="569" d="M164 0v1761h242v-1761h-242z" />
<glyph unicode="m" horiz-adv-x="1998" d="M164 0v1049h242v-129q59 76 144 118.5t173 42.5q279 0 369 -209q68 98 161 153.5t195 55.5q182 0 293.5 -102t111.5 -301v-678h-239v610q0 127 -62.5 202t-185.5 75q-102 0 -169 -68.5t-67 -142.5v-676h-241v610q0 127 -62.5 202t-185.5 75q-104 0 -169.5 -71t-65.5 -146 v-670h-242z" />
<glyph unicode="n" horiz-adv-x="1304" d="M164 0v1049h242v-129q53 76 140 118.5t177 42.5q186 0 311 -103.5t125 -299.5v-678h-239v610q0 127 -66 204t-186 77q-109 0 -185.5 -76t-76.5 -172v-643h-242z" />
<glyph unicode="o" horiz-adv-x="1372" d="M84 524.5q0 243.5 172 400t430 156.5t430 -156.5t172 -400t-172 -400.5t-430 -157t-430 157t-172 400.5zM334 524.5q0 -153.5 100.5 -252t252 -98.5t251.5 98.5t100 252t-100 251.5t-251.5 98t-252 -98t-100.5 -251.5z" />
<glyph unicode="p" d="M164 -532v1581h242v-168q136 200 390 200h3q225 0 374.5 -159.5t149.5 -397t-149.5 -397.5t-374.5 -160q-123 0 -226.5 56.5t-166.5 150.5v-706h-242zM397 524.5q0 -153.5 95.5 -252t240.5 -98.5q150 0 244 98.5t94 252t-96 251.5t-242 98q-143 0 -239.5 -98 t-96.5 -251.5z" />
<glyph unicode="q" d="M90 524.5q0 237.5 149.5 397t374.5 159.5q256 0 394 -200v168h241v-1581h-241v706q-63 -94 -167 -150.5t-227 -56.5q-225 0 -374.5 160t-149.5 397.5zM342 524.5q0 -153.5 94 -252t244 -98.5q145 0 240.5 98.5t95.5 252t-96.5 251.5t-239.5 98q-145 0 -241.5 -98 t-96.5 -251.5z" />
<glyph unicode="r" horiz-adv-x="909" d="M164 0v1049h242v-154q27 59 113.5 122.5t199.5 63.5q129 0 203 -49l-99 -205q-57 45 -170 45q-123 0 -185 -87t-62 -152v-633h-242z" />
<glyph unicode="s" horiz-adv-x="989" d="M90 150l123 129q102 -129 283 -129q78 0 131 38.5t53 118.5q0 33 -12.5 57.5t-44 44t-54 30t-79 29.5t-78.5 30q-53 20 -91 40.5t-79 54.5t-62.5 80t-21.5 103q0 137 106.5 221t286.5 84q178 0 295 -96l-98 -141q-71 65 -193 65h-4q-164 0 -164 -121q0 -51 47 -83.5 t150 -65.5q66 -20 111.5 -40.5t99 -56.5t82 -93.5t28.5 -131.5q0 -98 -39 -169.5t-105.5 -108.5t-139 -54.5t-152.5 -17.5q-121 0 -221.5 50.5t-157.5 132.5z" />
<glyph unicode="t" horiz-adv-x="727" d="M76 866v183h125v393h241v-393h244v-183h-244v-512q0 -172 109 -172q25 0 50.5 8.5t37.5 16.5l12 8l60 -192q-86 -55 -213 -56q-297 0 -297 344v555h-125z" />
<glyph unicode="u" horiz-adv-x="1286" d="M145 444v605h242v-551q0 -186 60.5 -259t195.5 -73t195.5 72.5t60.5 259.5v551h242v-605q0 -256 -120 -366.5t-378 -110.5t-378 110.5t-120 366.5z" />
<glyph unicode="v" horiz-adv-x="1183" d="M-20 1049h284l328 -723l328 723h284l-532 -1049h-160z" />
<glyph unicode="w" horiz-adv-x="1929" d="M-20 1049h276l330 -719l297 719h164l296 -719l330 719h277l-533 -1049h-162l-290 698l-291 -698h-162z" />
<glyph unicode="x" horiz-adv-x="1191" d="M0 0l444 545l-383 504h279l256 -336l256 336h278l-382 -504l444 -545h-289l-307 383l-307 -383h-289z" />
<glyph unicode="y" horiz-adv-x="1193" d="M-20 1049h274l362 -727l324 727h274l-763 -1581h-277l303 618z" />
<glyph unicode="z" horiz-adv-x="1153" d="M35 0l665 860h-583v189h1001l-667 -861h634v-188h-1050z" />
<glyph unicode="{" horiz-adv-x="761" d="M141 547v135q113 0 113 115v594q0 70 14.5 130t49 117.5t101 90t161.5 32.5h133v-180h-62q-88 0 -137 -55.5t-49 -153.5v-596q0 -117 -86 -162q86 -45 86 -161v-596q0 -98 49 -153.5t137 -55.5h62v-180h-133q-94 0 -161 32.5t-101.5 90t-49 118t-14.5 129.5v594 q0 115 -113 115z" />
<glyph unicode="|" horiz-adv-x="548" d="M168 0v1761h211v-1761h-211z" />
<glyph unicode="}" horiz-adv-x="761" d="M49 -352h62q88 0 137 55t49 154v596q0 117 86 161q-86 45 -86 162v596q0 98 -49 153.5t-137 55.5h-62v180h133q94 0 161 -32.5t101.5 -90t49 -118t14.5 -129.5v-594q0 -115 113 -115v-135q-113 0 -113 -115v-594q0 -70 -14.5 -130t-49 -117.5t-101.5 -90t-161 -32.5h-133 v180z" />
<glyph unicode="~" horiz-adv-x="1372" d="M135 797q156 240 326 239q133 0 278 -106q100 -74 172 -74q23 0 44.5 6t40 19.5t32.5 26t28.5 31.5t21.5 29.5t17.5 28t12.5 19.5l129 -115q-156 -240 -326 -239q-133 0 -278 106q-100 74 -172 74q-23 0 -44.5 -6.5t-40 -19.5t-32.5 -25.5t-28.5 -32t-21.5 -29.5 t-17.5 -27.5t-12.5 -19.5z" />
<glyph unicode="&#xa1;" horiz-adv-x="657" d="M170 1101.5q0 65.5 46 113t113.5 47.5t113.5 -47.5t46 -113t-46 -112.5t-113.5 -47t-113.5 47t-46 112.5zM209 -532l31 1292h180l31 -1292h-242z" />
<glyph unicode="&#xa2;" horiz-adv-x="1089" d="M84 524q0 197 124 346.5t312 194.5v238h150v-222q203 -4 344 -108l-88 -164q-90 74 -236 74q-150 0 -251 -103.5t-101 -255t101.5 -255t250.5 -103.5q145 0 236 74l88 -164q-117 -88 -289 -105v-235h-152v237q-209 31 -349 184.5t-140 366.5z" />
<glyph unicode="&#xa3;" horiz-adv-x="1544" d="M129 618v140h250q-63 100 -97 189t-34 212q0 242 151.5 402.5t407.5 160.5q121 0 220 -34.5t157.5 -84t101.5 -110.5t59.5 -104t22.5 -76l-215 -99q-6 37 -25.5 81t-57.5 98.5t-106.5 89.5t-156.5 35q-141 0 -225 -101.5t-84 -257.5q0 -57 6 -103t24.5 -96.5t24.5 -68 t38 -73.5t34 -60h440v-140h-385q23 -61 22 -135q0 -35 -7 -70.5t-14 -55t-19.5 -46t-12.5 -28.5q39 0 178.5 -57.5t243.5 -57.5q92 0 144.5 71.5t56.5 131.5l190 -95q-6 -33 -25.5 -76.5t-59.5 -99t-113.5 -93.5t-167.5 -38q-137 0 -330 75t-283 75q-74 0 -115.5 -40 t-54.5 -79h-155q8 94 91 196.5t202 104.5q39 76 38 174q0 70 -38 143h-322z" />
<glyph unicode="&#xa5;" horiz-adv-x="1425" d="M-14 1690h305l422 -684l422 684h305l-539 -850h356v-183h-417v-192h417v-182h-417v-283h-254v283h-418v182h418v192h-418v183h356z" />
<glyph unicode="&#xa6;" horiz-adv-x="548" d="M168 0v680h211v-680h-211zM168 1081v680h211v-680h-211z" />
<glyph unicode="&#xa7;" horiz-adv-x="1310" d="M106 -244l191 113q35 -86 113.5 -157.5t212.5 -71.5q131 0 205.5 61t74.5 166q0 98 -91 171t-284 146q-203 80 -303 183.5t-100 250.5q4 109 68.5 198t166.5 132q-182 127 -182 342q0 184 130 307t360 123q170 0 279.5 -77.5t156.5 -190.5l-193 -102q-23 68 -87 118 t-156 50q-106 0 -168 -66t-62 -154q0 -90 86 -153.5t254 -128.5q223 -88 332 -194.5t109 -262.5q0 -102 -68 -191t-172 -135q186 -135 186 -358q0 -180 -136 -309t-406 -129q-203 0 -329 91t-188 228zM346 653q2 -78 69.5 -132t192.5 -101q143 -55 209 -94q74 20 127 72.5 t55 123.5q-8 160 -354 281q-70 27 -123 53q-72 -20 -123 -73.5t-53 -129.5z" />
<glyph unicode="&#xa8;" horiz-adv-x="1044" d="M147 1431.5q0 55.5 39 94.5t92.5 39t92.5 -39t39 -94.5t-39 -94.5t-92.5 -39t-92.5 39t-39 94.5zM635 1431.5q0 55.5 39 94.5t92 39t92 -39t39 -94.5t-39 -94.5t-92 -39t-92 39t-39 94.5z" />
<glyph unicode="&#xa9;" horiz-adv-x="1910" d="M88 843.5q0 364.5 254 620.5t612 256q360 0 613.5 -256t253.5 -620.5t-252 -619.5t-615 -255q-367 0 -616.5 255t-249.5 619.5zM254 844q0 -299 201.5 -506t498.5 -207q295 0 498 207t203 506q0 297 -205 506t-496 209q-289 0 -494.5 -209t-205.5 -506zM485 844 q0 203 144.5 343t347.5 140q190 0 305 -92l-68 -125q-29 25 -89 44.5t-121 19.5q-137 0 -230.5 -94.5t-93.5 -233.5q0 -141 92 -234.5t232 -93.5q127 0 210 64l68 -125q-37 -31 -121 -60.5t-184 -29.5q-203 0 -347.5 137t-144.5 340z" />
<glyph unicode="&#xaa;" horiz-adv-x="991" d="M131 1376.5q0 147.5 92 245.5t234 98q156 0 241 -123v103h150v-647h-150v106q-37 -57 -101.5 -92t-139.5 -35q-141 0 -233.5 98.5t-92.5 246zM287 1376q0 -96 58 -156.5t151 -60.5q90 0 149.5 61.5t59.5 155.5t-59.5 155.5t-149.5 61.5t-149.5 -61.5t-59.5 -155.5z" />
<glyph unicode="&#xab;" horiz-adv-x="1177" d="M49 569l400 512l133 -104l-318 -408l318 -407l-133 -105zM561 569l400 512l133 -104l-318 -408l318 -407l-133 -105z" />
<glyph unicode="&#xad;" horiz-adv-x="921" d="M131 489v207h660v-207h-660z" />
<glyph unicode="&#xae;" horiz-adv-x="1032" d="M57 1260q0 190 134.5 325t322.5 135q193 0 327 -135t134 -325q0 -188 -134 -322.5t-327 -134.5q-188 0 -322.5 134.5t-134.5 322.5zM143 1260q0 -154 109.5 -262.5t261.5 -108.5q156 0 266.5 108.5t110.5 262.5q0 156 -110.5 265t-266.5 109q-152 0 -261.5 -109 t-109.5 -265zM377 1006v514h133q76 0 122 -39t46 -111q0 -59 -36 -99t-95 -50l170 -215h-86l-160 211h-27v-211h-67zM444 1270h48q51 0 82.5 25.5t31.5 72.5t-31.5 71.5t-82.5 24.5h-48v-194z" />
<glyph unicode="&#xaf;" horiz-adv-x="1122" d="M143 1339v166h836v-166h-836z" />
<glyph unicode="&#xb0;" horiz-adv-x="671" d="M111 1581q0 92 65.5 151.5t159.5 59.5t159.5 -59.5t65.5 -151.5t-65.5 -151.5t-159.5 -59.5t-159.5 59.5t-65.5 151.5zM221 1581q0 -51 33 -86t82 -35t82 35t33 86t-33 86t-82 35t-82 -35t-33 -86z" />
<glyph unicode="&#xb1;" horiz-adv-x="1327" d="M139 0v207h1049v-207h-1049zM139 774v209h420v422h209v-422h420v-209h-420v-422h-209v422h-420z" />
<glyph unicode="&#xb2;" horiz-adv-x="555" d="M66 1051v49q4 2 65.5 49t100 81t92 86t82 98t28.5 83q0 59 -34.5 99t-96.5 40q-51 0 -90 -37.5t-55 -99.5l-86 23q14 78 73.5 139t157.5 61q125 0 181.5 -68.5t56.5 -156.5q0 -31 -10.5 -61.5t-33 -61.5t-41 -54.5t-54 -55t-52 -46t-55.5 -45t-45 -34.5h303v-88h-487z " />
<glyph unicode="&#xb3;" horiz-adv-x="509" d="M37 1214l90 25q6 -37 38 -69.5t93 -32.5q55 0 87 30.5t32 79.5q0 51 -34 86t-83 35l-27 -4v68h27q43 0 76 31.5t33 78.5q0 41 -32 70.5t-73 29.5q-94 0 -114 -90l-80 19q8 53 55 102t139 49q84 0 139.5 -51t55.5 -129q0 -94 -82 -139q100 -41 100 -156q0 -86 -60.5 -141 t-158.5 -55q-111 0 -163 53t-58 110z" />
<glyph unicode="&#xb4;" horiz-adv-x="899" d="M215 1434l342 286l129 -166l-389 -231z" />
<glyph unicode="&#xb5;" horiz-adv-x="1353" d="M145 -328q0 137 26 369.5t26 398.5v609h239v-611q0 -127 64.5 -203.5t185.5 -76.5q109 0 186.5 76.5t77.5 171.5v643h242v-1049h-242v129q-53 -76 -141 -119t-176 -43q-125 0 -197 72v-367h-291z" />
<glyph unicode="&#xb6;" horiz-adv-x="1380" d="M141 1194q0 236 151.5 366t403.5 130h514v-1690h-149v1542h-94v-1542h-150v678h-121q-250 0 -402.5 139t-152.5 377z" />
<glyph unicode="&#xb7;" horiz-adv-x="559" d="M119 550.5q0 65.5 46 113t113.5 47.5t113.5 -47.5t46 -113t-46 -112.5t-113.5 -47t-113.5 47t-46 112.5z" />
<glyph unicode="&#xb8;" horiz-adv-x="866" d="M154 -440l106 75q27 -43 80 -74.5t109 -31.5q61 0 100 30.5t39 82.5q0 55 -42 88.5t-100 33.5q-82 0 -129 -28l-12 10l98 303l107 -33l-53 -166q20 4 55 5q86 0 153.5 -59.5t67.5 -153.5q0 -102 -73.5 -173t-210.5 -71q-90 0 -173 47t-122 115z" />
<glyph unicode="&#xb9;" horiz-adv-x="262" d="M39 1595v95h176v-639h-96v544h-80z" />
<glyph unicode="&#xba;" horiz-adv-x="1007" d="M115 1374.5q0 151.5 111.5 248.5t277.5 97t277.5 -97t111.5 -248.5t-111.5 -249t-277.5 -97.5t-277.5 97.5t-111.5 249zM281 1374q0 -90 63.5 -149.5t159.5 -59.5t159.5 59.5t63.5 149.5t-63.5 149.5t-159.5 59.5t-159.5 -59.5t-63.5 -149.5z" />
<glyph unicode="&#xbb;" horiz-adv-x="1177" d="M84 162l317 407l-317 408l133 104l399 -512l-399 -512zM596 162l317 407l-317 408l133 104l399 -512l-399 -512z" />
<glyph unicode="&#xbc;" horiz-adv-x="1630" d="M129 1544v146h270v-983h-147v837h-123zM152 0l983 1690h163l-983 -1690h-163zM825 274v52l469 657h146v-580h112v-129h-112v-274h-140v274h-475zM1026 403h274v381z" />
<glyph unicode="&#xbd;" horiz-adv-x="1892" d="M129 1544v146h270v-983h-147v837h-123zM154 0l983 1690h163l-983 -1690h-163zM1026 0v74q8 6 63.5 48t94.5 72.5t101.5 83t105.5 97.5t87 96t66.5 98t22.5 88q0 86 -50.5 144.5t-142.5 58.5q-74 0 -132 -55t-81 -146l-125 33q20 113 107.5 204t230.5 91q182 0 266 -100.5 t84 -229.5q0 -45 -14 -90t-47 -91t-61.5 -82t-80 -81t-78 -67.5t-81.5 -66.5t-66 -52h445v-127h-715z" />
<glyph unicode="&#xbe;" horiz-adv-x="1910" d="M74 944l135 37q8 -55 56 -104.5t138 -49.5q82 0 129.5 45.5t47.5 118.5q0 76 -51.5 128t-122.5 52l-39 -6v99h39q66 0 113.5 48t47.5 115q0 63 -46 107.5t-109 44.5q-141 0 -172 -135l-117 26q12 80 82.5 153t206.5 73q125 0 206.5 -76t81.5 -190q0 -141 -120 -207 q68 -29 107.5 -90.5t39.5 -141.5q0 -127 -89 -209t-235 -82q-88 0 -154.5 27t-101 68t-52 78.5t-21.5 70.5zM432 0l983 1690h164l-983 -1690h-164zM1106 274v52l469 655h145v-578h113v-129h-113v-274h-139v274h-475zM1307 403h274v379z" />
<glyph unicode="&#xbf;" horiz-adv-x="1204" d="M72 -53q0 174 116.5 322.5t333.5 176.5v230h221v-443q-43 10 -122 11q-158 0 -240 -88t-82 -209t81 -207t230 -86q287 0 330 283l203 -39q-18 -193 -156.5 -326t-376.5 -133q-131 0 -237.5 47t-170 122t-97 163t-33.5 176zM473 1032.5q0 65.5 46 112.5t113.5 47t114 -47 t46.5 -112.5t-46.5 -113t-114 -47.5t-113.5 47.5t-46 113z" />
<glyph unicode="&#xc0;" horiz-adv-x="1511" d="M-35 0l672 1690h237l672 -1690h-272l-172 453h-692l-172 -453h-273zM367 2073l129 165l342 -286l-82 -111zM496 676h520l-260 672z" />
<glyph unicode="&#xc1;" horiz-adv-x="1511" d="M-35 0l672 1690h237l672 -1690h-272l-172 453h-692l-172 -453h-273zM496 676h520l-260 672zM674 1952l342 286l129 -165l-389 -232z" />
<glyph unicode="&#xc2;" horiz-adv-x="1511" d="M-35 0l672 1690h237l672 -1690h-272l-172 453h-692l-172 -453h-273zM346 1970l410 299l409 -299l-96 -129l-313 230l-314 -230zM496 676h520l-260 672z" />
<glyph unicode="&#xc3;" horiz-adv-x="1511" d="M-35 0l672 1690h237l672 -1690h-272l-172 453h-692l-172 -453h-273zM205 2060q156 240 325 240q133 0 279 -107q100 -74 172 -73q23 0 44.5 6t39.5 19.5t32.5 25.5t29 31.5t21.5 30t17.5 27.5t12.5 19l129 -114q-156 -240 -326 -240q-131 0 -279 107q-100 74 -172 73 q-23 0 -44 -6t-39.5 -19.5t-33 -25.5t-28.5 -31.5t-21.5 -30t-17.5 -27.5t-12 -19zM496 676h520l-260 672z" />
<glyph unicode="&#xc4;" horiz-adv-x="1511" d="M-35 0l672 1690h237l672 -1690h-272l-172 453h-692l-172 -453h-273zM381 2070.5q0 55.5 39 94.5t92 39t92 -39t39 -94.5t-39 -94.5t-92 -39t-92 39t-39 94.5zM496 676h520l-260 672zM868 2070.5q0 55.5 39 94.5t92.5 39t92 -39t38.5 -94.5t-38.5 -94.5t-92 -39t-92.5 39 t-39 94.5z" />
<glyph unicode="&#xc5;" horiz-adv-x="1511" d="M-35 0l672 1690h237l672 -1690h-272l-172 453h-692l-172 -453h-273zM479 2140q0 106 80 176t196.5 70t196.5 -69.5t80 -176.5q0 -109 -76.5 -178.5t-199.5 -69.5t-200 68.5t-77 179.5zM496 676h520l-260 672zM623 2140q0 -55 36.5 -92t96.5 -37q57 0 95 37t38 92 q0 53 -38 89t-95 36q-55 0 -94 -37t-39 -88z" />
<glyph unicode="&#xc6;" horiz-adv-x="1765" d="M-35 0l672 1690h1020v-224h-647v-508h622v-223h-622v-512h647v-223h-901v453h-346l-172 -453h-273zM496 676h260v672z" />
<glyph unicode="&#xc7;" horiz-adv-x="1603" d="M90 844q0 365 264 620.5t637 255.5q332 0 551 -166l-112 -215q-53 45 -163 88t-241 43q-301 0 -480 -186t-179 -440q0 -256 178 -441.5t481 -185.5q131 0 240.5 43t163.5 88l112 -215q-219 -166 -551 -166q-25 0 -73 4l-39 -121q20 4 55 5q86 0 153.5 -59.5t67.5 -153.5 q0 -102 -73.5 -173t-211.5 -71q-90 0 -173 47t-122 115l107 75q27 -43 80 -74.5t108 -31.5q61 0 100.5 30.5t39.5 82.5q0 55 -42 88.5t-100 33.5q-82 0 -129 -28l-12 10l78 240q-307 61 -511 301.5t-204 556.5z" />
<glyph unicode="&#xc8;" horiz-adv-x="1177" d="M168 0v1690h901v-224h-647v-508h622v-223h-622v-512h647v-223h-901zM322 2073l129 165l342 -286l-82 -111z" />
<glyph unicode="&#xc9;" horiz-adv-x="1177" d="M168 0v1690h901v-224h-647v-508h622v-223h-622v-512h647v-223h-901zM444 1952l342 286l129 -165l-389 -232z" />
<glyph unicode="&#xca;" horiz-adv-x="1177" d="M168 0v1690h901v-224h-647v-508h622v-223h-622v-512h647v-223h-901zM209 1970l409 299l410 -299l-96 -129l-314 230l-313 -230z" />
<glyph unicode="&#xcb;" horiz-adv-x="1177" d="M168 0v1690h901v-224h-647v-508h622v-223h-622v-512h647v-223h-901zM244 2070.5q0 55.5 39 94.5t92 39t92 -39t39 -94.5t-39 -94.5t-92 -39t-92 39t-39 94.5zM731 2070.5q0 55.5 39 94.5t92 39t92 -39t39 -94.5t-39 -94.5t-92 -39t-92 39t-39 94.5z" />
<glyph unicode="&#xcc;" horiz-adv-x="589" d="M-94 2073l129 165l342 -286l-82 -111zM168 0v1690h254v-1690h-254z" />
<glyph unicode="&#xcd;" horiz-adv-x="589" d="M168 0v1690h254v-1690h-254zM213 1952l342 286l129 -165l-389 -232z" />
<glyph unicode="&#xce;" horiz-adv-x="589" d="M-115 1970l410 299l410 -299l-97 -129l-313 230l-313 -230zM168 0v1690h254v-1690h-254z" />
<glyph unicode="&#xcf;" horiz-adv-x="589" d="M-80 2070.5q0 55.5 39 94.5t92 39t92 -39t39 -94.5t-39 -94.5t-92 -39t-92 39t-39 94.5zM168 0v1690h254v-1690h-254zM408 2070.5q0 55.5 38.5 94.5t92 39t92.5 -39t39 -94.5t-39 -94.5t-92.5 -39t-92 39t-38.5 94.5z" />
<glyph unicode="&#xd0;" horiz-adv-x="1533" d="M0 741v207h168v742h428q352 0 602 -241t250 -605q-2 -365 -251 -604.5t-601 -239.5h-428v741h-168zM422 227h147q258 0 432.5 176.5t174.5 440.5t-174.5 441t-432.5 177h-147v-514h354v-207h-354v-514z" />
<glyph unicode="&#xd1;" horiz-adv-x="1654" d="M168 0v1690h254l811 -1264v1264h254v-1690h-254l-811 1262v-1262h-254zM281 2064q156 240 325 240q131 0 279 -106q100 -74 172 -74q23 0 44 6t39.5 19.5t33 25.5t29 31.5t21.5 30t17 27.5t12 20l129 -115q-156 -240 -325 -240q-131 0 -279 107q-100 74 -172 73 q-23 0 -44 -6t-39.5 -19t-33 -25.5t-29 -32t-21.5 -29.5t-17 -27.5t-12 -19.5z" />
<glyph unicode="&#xd2;" horiz-adv-x="1880" d="M88 843.5q0 366.5 250 621.5t602 255t602 -255t250 -621.5t-250 -621.5t-602 -255t-602 255t-250 621.5zM362 844q0 -260 161 -446.5t417 -186.5t417 186.5t161 446.5t-161 446.5t-417 186.5t-417 -186.5t-161 -446.5zM643 2073l129 165l342 -286l-82 -111z" />
<glyph unicode="&#xd3;" horiz-adv-x="1880" d="M88 843.5q0 366.5 250 621.5t602 255t602 -255t250 -621.5t-250 -621.5t-602 -255t-602 255t-250 621.5zM362 844q0 -260 161 -446.5t417 -186.5t417 186.5t161 446.5t-161 446.5t-417 186.5t-417 -186.5t-161 -446.5zM766 1952l342 286l129 -165l-389 -232z" />
<glyph unicode="&#xd4;" horiz-adv-x="1880" d="M88 843.5q0 366.5 250 621.5t602 255t602 -255t250 -621.5t-250 -621.5t-602 -255t-602 255t-250 621.5zM362 844q0 -260 161 -446.5t417 -186.5t417 186.5t161 446.5t-161 446.5t-417 186.5t-417 -186.5t-161 -446.5zM530 1970l410 299l410 -299l-97 -129l-313 230 l-313 -230z" />
<glyph unicode="&#xd5;" horiz-adv-x="1880" d="M88 843.5q0 366.5 250 621.5t602 255t602 -255t250 -621.5t-250 -621.5t-602 -255t-602 255t-250 621.5zM362 844q0 -260 161 -446.5t417 -186.5t417 186.5t161 446.5t-161 446.5t-417 186.5t-417 -186.5t-161 -446.5zM389 2046q156 240 326 240q133 0 278 -107 q100 -74 172 -74q23 0 44.5 6.5t40 19.5t32.5 25.5t28.5 32t21.5 29.5t17.5 27.5t12.5 19.5l129 -115q-156 -240 -326 -239q-133 0 -278 106q-100 74 -172 74q-23 0 -44.5 -6t-40 -19.5t-32.5 -25.5t-28.5 -31.5t-21.5 -30t-17.5 -28t-12.5 -19.5z" />
<glyph unicode="&#xd6;" horiz-adv-x="1880" d="M88 843.5q0 366.5 250 621.5t602 255t602 -255t250 -621.5t-250 -621.5t-602 -255t-602 255t-250 621.5zM362 844q0 -260 161 -446.5t417 -186.5t417 186.5t161 446.5t-161 446.5t-417 186.5t-417 -186.5t-161 -446.5zM565 2070.5q0 55.5 39 94.5t92.5 39t92 -39 t38.5 -94.5t-38.5 -94.5t-92 -39t-92.5 39t-39 94.5zM1053 2070.5q0 55.5 38.5 94.5t92 39t92.5 -39t39 -94.5t-39 -94.5t-92.5 -39t-92 39t-38.5 94.5z" />
<glyph unicode="&#xd7;" horiz-adv-x="1224" d="M115 498l350 350l-350 350l145 148l352 -351l353 351l145 -148l-350 -350l350 -350l-145 -148l-353 350l-352 -350z" />
<glyph unicode="&#xd8;" horiz-adv-x="1880" d="M88 844q0 367 250 621.5t602 254.5q250 0 457 -137l110 139l156 -120l-115 -146q244 -254 244 -612q0 -367 -250 -622t-602 -255q-250 0 -459 135l-104 -133l-156 121l109 139q-242 253 -242 615zM362 844q0 -236 130 -410l751 955q-133 88 -303 88q-256 0 -417 -186.5 t-161 -446.5zM637 299q133 -88 303 -88q256 0 417 186.5t161 446.5q0 231 -132 407z" />
<glyph unicode="&#xd9;" horiz-adv-x="1531" d="M150 602v1088h253v-1020q0 -238 89.5 -345.5t273.5 -107.5t273 107.5t89 345.5v1020h254v-1088q0 -311 -157.5 -473t-458.5 -162t-458.5 162t-157.5 473zM469 2073l129 165l342 -286l-82 -111z" />
<glyph unicode="&#xda;" horiz-adv-x="1531" d="M150 602v1088h253v-1020q0 -238 89.5 -345.5t273.5 -107.5t273 107.5t89 345.5v1020h254v-1088q0 -311 -157.5 -473t-458.5 -162t-458.5 162t-157.5 473zM592 1946l342 286l129 -166l-389 -231z" />
<glyph unicode="&#xdb;" horiz-adv-x="1531" d="M150 602v1088h253v-1020q0 -238 89.5 -345.5t273.5 -107.5t273 107.5t89 345.5v1020h254v-1088q0 -311 -157.5 -473t-458.5 -162t-458.5 162t-157.5 473zM356 1970l410 299l410 -299l-97 -129l-313 230l-313 -230z" />
<glyph unicode="&#xdc;" horiz-adv-x="1531" d="M150 602v1088h253v-1020q0 -238 89.5 -345.5t273.5 -107.5t273 107.5t89 345.5v1020h254v-1088q0 -311 -157.5 -473t-458.5 -162t-458.5 162t-157.5 473zM391 2070.5q0 55.5 39 94.5t92 39t92 -39t39 -94.5t-39 -94.5t-92 -39t-92 39t-39 94.5zM879 2070.5 q0 55.5 38.5 94.5t92 39t92.5 -39t39 -94.5t-39 -94.5t-92.5 -39t-92 39t-38.5 94.5z" />
<glyph unicode="&#xdd;" horiz-adv-x="1384" d="M-35 1690h305l422 -684l422 684h305l-600 -947v-743h-254v743zM498 1952l342 286l129 -165l-389 -232z" />
<glyph unicode="&#xde;" horiz-adv-x="1617" d="M168 0v1690h254v-342h262q252 0 403.5 -130.5t151.5 -365.5q0 -238 -152.5 -378t-402.5 -140h-262v-334h-254zM422 541h188q162 0 260.5 78.5t98.5 224t-98.5 222.5t-260.5 77h-188v-602z" />
<glyph unicode="&#xdf;" horiz-adv-x="1327" d="M70 709v190h135v406q0 209 143.5 348t343.5 139q213 0 353.5 -138t140.5 -339q0 -125 -63.5 -223.5t-170.5 -149.5q135 -55 216 -171t81 -271q0 -227 -165.5 -380t-417.5 -153h-84v221h39q186 0 280 94.5t94 229.5q0 152 -99 241t-243 89h-71v190h41q166 0 250.5 83 t84.5 200q0 119 -74.5 194.5t-191.5 75.5t-181.5 -90t-64.5 -244v-1251h-241v709h-135z" />
<glyph unicode="&#xe0;" d="M90 524.5q0 237.5 149.5 397t374.5 159.5q256 0 394 -200v168h241v-1049h-241v174q-63 -94 -167 -150.5t-227 -56.5q-225 0 -374.5 160t-149.5 397.5zM342 524.5q0 -153.5 94 -252t244 -98.5q145 0 240.5 98.5t95.5 252t-96.5 251.5t-239.5 98q-145 0 -241.5 -98 t-96.5 -251.5zM393 1434l129 165l342 -286l-82 -111z" />
<glyph unicode="&#xe1;" d="M90 524.5q0 237.5 149.5 397t374.5 159.5q256 0 394 -200v168h241v-1049h-241v174q-63 -94 -167 -150.5t-227 -56.5q-225 0 -374.5 160t-149.5 397.5zM342 524.5q0 -153.5 94 -252t244 -98.5q145 0 240.5 98.5t95.5 252t-96.5 251.5t-239.5 98q-145 0 -241.5 -98 t-96.5 -251.5zM393 1313l342 286l129 -165l-389 -232z" />
<glyph unicode="&#xe2;" d="M90 524.5q0 237.5 149.5 397t374.5 159.5q256 0 394 -200v168h241v-1049h-241v174q-63 -94 -167 -150.5t-227 -56.5q-225 0 -374.5 160t-149.5 397.5zM260 1331l410 299l409 -299l-96 -129l-313 230l-314 -230zM342 524.5q0 -153.5 94 -252t244 -98.5q145 0 240.5 98.5 t95.5 252t-96.5 251.5t-239.5 98q-145 0 -241.5 -98t-96.5 -251.5z" />
<glyph unicode="&#xe3;" d="M90 524.5q0 237.5 149.5 397t374.5 159.5q256 0 394 -200v168h241v-1049h-241v174q-63 -94 -167 -150.5t-227 -56.5q-225 0 -374.5 160t-149.5 397.5zM119 1356q156 240 325 239q133 0 279 -106q100 -74 172 -74q23 0 44.5 6t39.5 19.5t32.5 26t29 32t21.5 29.5 t17.5 27.5t12.5 19.5l129 -115q-156 -240 -326 -239q-133 0 -279 106q-100 74 -172 74q-23 0 -44 -6t-39.5 -19.5t-33 -26t-28.5 -32t-21.5 -29.5t-17.5 -27.5t-12 -19.5zM342 524.5q0 -153.5 94 -252t244 -98.5q145 0 240.5 98.5t95.5 252t-96.5 251.5t-239.5 98 q-145 0 -241.5 -98t-96.5 -251.5z" />
<glyph unicode="&#xe4;" d="M90 524.5q0 237.5 149.5 397t374.5 159.5q256 0 394 -200v168h241v-1049h-241v174q-63 -94 -167 -150.5t-227 -56.5q-225 0 -374.5 160t-149.5 397.5zM295 1431.5q0 55.5 39 94.5t92 39t92 -39t39 -94.5t-39 -94.5t-92 -39t-92 39t-39 94.5zM342 524.5q0 -153.5 94 -252 t244 -98.5q145 0 240.5 98.5t95.5 252t-96.5 251.5t-239.5 98q-145 0 -241.5 -98t-96.5 -251.5zM782 1431.5q0 55.5 39 94.5t92.5 39t92 -39t38.5 -94.5t-38.5 -94.5t-92 -39t-92.5 39t-39 94.5z" />
<glyph unicode="&#xe5;" d="M90 524.5q0 237.5 149.5 397t374.5 159.5q256 0 394 -200v168h241v-1049h-241v174q-63 -94 -167 -150.5t-227 -56.5q-225 0 -374.5 160t-149.5 397.5zM342 524.5q0 -153.5 94 -252t244 -98.5q145 0 240.5 98.5t95.5 252t-96.5 251.5t-239.5 98q-145 0 -241.5 -98 t-96.5 -251.5zM393 1501q0 106 80 176t196.5 70t196.5 -69.5t80 -176.5q0 -109 -76.5 -178.5t-199.5 -69.5t-200 68.5t-77 179.5zM537 1501q0 -55 36.5 -92t96.5 -37q57 0 95 37t38 92q0 53 -38 89t-95 36q-55 0 -94 -37t-39 -88z" />
<glyph unicode="&#xe6;" horiz-adv-x="2066" d="M145 291q0 147 107.5 242.5t284.5 95.5q229 0 335 -111v105q0 123 -80.5 193.5t-203.5 70.5q-109 0 -185.5 -32t-107.5 -64l-84 161q35 45 136.5 87t240.5 42q291 0 432 -174q170 174 412 174q238 0 394 -151.5t156 -397.5v-36h-866q0 -154 100.5 -244t239.5 -90 q109 0 184.5 37t141.5 123l174 -91q-162 -264 -516 -264q-135 0 -252 54.5t-195 150.5q-45 -68 -169 -136.5t-279 -68.5q-172 0 -286 90t-114 234zM383 309q0 -84 71.5 -136t178.5 -52q104 0 177 54t73 134t-73 132.5t-177 52.5q-106 0 -178 -50.5t-72 -134.5zM1124 635h625 q-14 125 -100 194.5t-211 69.5q-133 0 -219.5 -71.5t-94.5 -192.5z" />
<glyph unicode="&#xe7;" horiz-adv-x="1091" d="M84 524q0 236 169 396.5t404 160.5q219 0 357 -108l-88 -164q-90 74 -236 74q-150 0 -251 -103.5t-101 -255t101.5 -255t250.5 -103.5q145 0 236 74l88 -164q-137 -109 -357 -109q-27 0 -39 2l-36 -119q20 4 55 5q86 0 153.5 -59.5t67.5 -153.5q0 -102 -73.5 -173 t-211.5 -71q-90 0 -173 47t-121 115l106 75q27 -43 80 -74.5t108 -31.5q61 0 100.5 30.5t39.5 82.5q0 55 -42 88.5t-100 33.5q-82 0 -129 -28l-12 10l78 242q-184 47 -304 194.5t-120 341.5z" />
<glyph unicode="&#xe8;" horiz-adv-x="1282" d="M84 526q0 229 166 392t397 163q238 0 394.5 -151.5t156.5 -397.5v-36h-866q0 -154 100 -244t240 -90q109 0 184.5 37t140.5 123l174 -91q-162 -264 -516 -264q-240 0 -405.5 161.5t-165.5 397.5zM340 635h625q-14 125 -100.5 194.5t-211.5 69.5q-133 0 -219 -71.5 t-94 -192.5zM365 1434l129 165l342 -286l-82 -111z" />
<glyph unicode="&#xe9;" horiz-adv-x="1282" d="M84 526q0 229 166 392t397 163q238 0 394.5 -151.5t156.5 -397.5v-36h-866q0 -154 100 -244t240 -90q109 0 184.5 37t140.5 123l174 -91q-162 -264 -516 -264q-240 0 -405.5 161.5t-165.5 397.5zM340 635h625q-14 125 -100.5 194.5t-211.5 69.5q-133 0 -219 -71.5 t-94 -192.5zM446 1313l342 286l130 -165l-390 -232z" />
<glyph unicode="&#xea;" horiz-adv-x="1282" d="M84 526q0 229 166 392t397 163q238 0 394.5 -151.5t156.5 -397.5v-36h-866q0 -154 100 -244t240 -90q109 0 184.5 37t140.5 123l174 -91q-162 -264 -516 -264q-240 0 -405.5 161.5t-165.5 397.5zM231 1331l410 299l410 -299l-97 -129l-313 230l-313 -230zM340 635h625 q-14 125 -100.5 194.5t-211.5 69.5q-133 0 -219 -71.5t-94 -192.5z" />
<glyph unicode="&#xeb;" horiz-adv-x="1282" d="M84 526q0 229 166 392t397 163q238 0 394.5 -151.5t156.5 -397.5v-36h-866q0 -154 100 -244t240 -90q109 0 184.5 37t140.5 123l174 -91q-162 -264 -516 -264q-240 0 -405.5 161.5t-165.5 397.5zM266 1376.5q0 55.5 39 94t92.5 38.5t92 -38.5t38.5 -94t-38.5 -94.5 t-92 -39t-92.5 39t-39 94.5zM340 635h625q-14 125 -100.5 194.5t-211.5 69.5q-133 0 -219 -71.5t-94 -192.5zM754 1376.5q0 55.5 38.5 94t92 38.5t92.5 -38.5t39 -94t-39 -94.5t-92.5 -39t-92 39t-38.5 94.5z" />
<glyph unicode="&#xec;" horiz-adv-x="569" d="M-104 1434l129 165l342 -286l-82 -111zM164 0v1049h242v-1049h-242z" />
<glyph unicode="&#xed;" horiz-adv-x="569" d="M164 0v1049h242v-1049h-242zM203 1313l342 286l129 -165l-389 -232z" />
<glyph unicode="&#xee;" horiz-adv-x="569" d="M-125 1331l410 299l409 -299l-96 -129l-313 230l-314 -230zM164 0v1049h242v-1049h-242z" />
<glyph unicode="&#xef;" horiz-adv-x="569" d="M-90 1378.5q0 55.5 39 94t92 38.5t92 -38.5t39 -94t-39 -94.5t-92 -39t-92 39t-39 94.5zM164 0v1049h242v-1049h-242zM397 1378.5q0 55.5 39 94t92.5 38.5t92 -38.5t38.5 -94t-38.5 -94.5t-92 -39t-92.5 39t-39 94.5z" />
<glyph unicode="&#xf0;" d="M106 524q0 242 167 399.5t376 157.5q80 0 165 -32.5t138 -92.5q-84 272 -301 439l-166 -164l-110 110l137 138q-131 74 -248 108l62 205q176 -53 348 -152l153 152l111 -113l-127 -125q227 -170 363.5 -429t136.5 -601q0 -244 -170 -400.5t-430 -156.5 q-266 0 -435.5 156.5t-169.5 400.5zM358 524q0 -152 98.5 -250t254.5 -98q152 0 250 98.5t98 250t-99.5 250.5t-248.5 99q-152 0 -252.5 -98t-100.5 -252z" />
<glyph unicode="&#xf1;" horiz-adv-x="1304" d="M111 1366q156 240 325 240q133 0 279 -107q100 -74 172 -74q23 0 44 6.5t39.5 19.5t33 25.5t29 32t21.5 29.5t17 27.5t12 19.5l129 -115q-156 -240 -325 -239q-133 0 -279 106q-100 74 -172 74q-23 0 -44 -6t-39.5 -19.5t-33 -25.5t-29 -31.5t-21.5 -30t-17 -28 t-12 -19.5zM164 0v1049h242v-129q53 76 140 118.5t177 42.5q186 0 311 -103.5t125 -299.5v-678h-239v610q0 127 -66 204t-186 77q-109 0 -185.5 -76t-76.5 -172v-643h-242z" />
<glyph unicode="&#xf2;" horiz-adv-x="1372" d="M84 524.5q0 243.5 172 400t430 156.5t430 -156.5t172 -400t-172 -400.5t-430 -157t-430 157t-172 400.5zM334 524.5q0 -153.5 100.5 -252t252 -98.5t251.5 98.5t100 252t-100 251.5t-251.5 98t-252 -98t-100.5 -251.5zM410 1434l129 165l342 -286l-82 -111z" />
<glyph unicode="&#xf3;" horiz-adv-x="1372" d="M84 524.5q0 243.5 172 400t430 156.5t430 -156.5t172 -400t-172 -400.5t-430 -157t-430 157t-172 400.5zM334 524.5q0 -153.5 100.5 -252t252 -98.5t251.5 98.5t100 252t-100 251.5t-251.5 98t-252 -98t-100.5 -251.5zM492 1313l342 286l129 -165l-390 -232z" />
<glyph unicode="&#xf4;" horiz-adv-x="1372" d="M84 524.5q0 243.5 172 400t430 156.5t430 -156.5t172 -400t-172 -400.5t-430 -157t-430 157t-172 400.5zM276 1331l410 299l410 -299l-97 -129l-313 230l-313 -230zM334 524.5q0 -153.5 100.5 -252t252 -98.5t251.5 98.5t100 252t-100 251.5t-251.5 98t-252 -98 t-100.5 -251.5z" />
<glyph unicode="&#xf5;" horiz-adv-x="1372" d="M84 524.5q0 243.5 172 400t430 156.5t430 -156.5t172 -400t-172 -400.5t-430 -157t-430 157t-172 400.5zM135 1356q156 240 326 239q133 0 278 -106q100 -74 172 -74q23 0 44.5 6t40 19.5t32.5 26t28.5 32t21.5 29.5t17.5 27.5t12.5 19.5l129 -115q-156 -240 -326 -239 q-133 0 -278 106q-100 74 -172 74q-23 0 -44.5 -6t-40 -19.5t-32.5 -26t-28.5 -32t-21.5 -29.5t-17.5 -27.5t-12.5 -19.5zM334 524.5q0 -153.5 100.5 -252t252 -98.5t251.5 98.5t100 252t-100 251.5t-251.5 98t-252 -98t-100.5 -251.5z" />
<glyph unicode="&#xf6;" horiz-adv-x="1372" d="M84 524.5q0 243.5 172 400t430 156.5t430 -156.5t172 -400t-172 -400.5t-430 -157t-430 157t-172 400.5zM311 1431.5q0 55.5 39 94.5t92.5 39t92 -39t38.5 -94.5t-38.5 -94.5t-92 -39t-92.5 39t-39 94.5zM334 524.5q0 -153.5 100.5 -252t252 -98.5t251.5 98.5t100 252 t-100 251.5t-251.5 98t-252 -98t-100.5 -251.5zM799 1431.5q0 55.5 39 94.5t92 39t92 -39t39 -94.5t-39 -94.5t-92 -39t-92 39t-39 94.5z" />
<glyph unicode="&#xf7;" horiz-adv-x="1323" d="M137 745v209h1049v-209h-1049zM543 366.5q0 49.5 34.5 84t84 34.5t84 -34.5t34.5 -84t-34.5 -84t-84 -34.5t-84 34.5t-34.5 84zM543 1333q0 49 34.5 84t84 35t84 -35t34.5 -84t-34.5 -84t-84 -35t-84 35t-34.5 84z" />
<glyph unicode="&#xf8;" horiz-adv-x="1374" d="M2 43l188 152q-106 141 -106 329q0 244 172 400.5t430 156.5q244 0 418 -147l190 156l70 -84l-186 -150q111 -143 110 -332q0 -244 -172 -400.5t-430 -156.5q-252 0 -422 148l-192 -156zM334 524q0 -102 43 -178l547 442q-96 86 -238 86q-152 0 -252 -98t-100 -252z M444 262q98 -88 242 -88q152 0 252 98.5t100 251.5q0 102 -47 181z" />
<glyph unicode="&#xf9;" horiz-adv-x="1286" d="M145 444v605h242v-551q0 -186 60.5 -259t195.5 -73t195.5 72.5t60.5 259.5v551h242v-605q0 -256 -120 -366.5t-378 -110.5t-378 110.5t-120 366.5zM367 1554l129 166l342 -286l-82 -111z" />
<glyph unicode="&#xfa;" horiz-adv-x="1286" d="M145 444v605h242v-551q0 -186 60.5 -259t195.5 -73t195.5 72.5t60.5 259.5v551h242v-605q0 -256 -120 -366.5t-378 -110.5t-378 110.5t-120 366.5zM449 1313l342 286l129 -165l-390 -232z" />
<glyph unicode="&#xfb;" horiz-adv-x="1286" d="M145 444v605h242v-551q0 -186 60.5 -259t195.5 -73t195.5 72.5t60.5 259.5v551h242v-605q0 -256 -120 -366.5t-378 -110.5t-378 110.5t-120 366.5zM233 1331l410 299l410 -299l-97 -129l-313 230l-313 -230z" />
<glyph unicode="&#xfc;" horiz-adv-x="1286" d="M145 444v605h242v-551q0 -186 60.5 -259t195.5 -73t195.5 72.5t60.5 259.5v551h242v-605q0 -256 -120 -366.5t-378 -110.5t-378 110.5t-120 366.5zM268 1376.5q0 55.5 39 94t92.5 38.5t92 -38.5t38.5 -94t-38.5 -94.5t-92 -39t-92.5 39t-39 94.5zM756 1376.5 q0 55.5 39 94t92 38.5t92 -38.5t39 -94t-39 -94.5t-92 -39t-92 39t-39 94.5z" />
<glyph unicode="&#xfd;" horiz-adv-x="1193" d="M-20 1049h274l362 -727l324 727h274l-763 -1581h-277l303 618zM401 1313l342 286l129 -165l-389 -232z" />
<glyph unicode="&#xfe;" horiz-adv-x="1406" d="M162 -532v2293h241v-880q137 201 394 200q225 0 374.5 -159.5t149.5 -397t-149.5 -397.5t-374.5 -160q-123 0 -226.5 56.5t-167.5 150.5v-706h-241zM395 524.5q0 -153.5 95.5 -252t240.5 -98.5q150 0 244 98.5t94 252t-96 251.5t-242 98q-143 0 -239.5 -98t-96.5 -251.5z " />
<glyph unicode="&#xff;" horiz-adv-x="1193" d="M-20 1049h274l362 -727l324 727h274l-763 -1581h-277l303 618zM242 1376.5q0 55.5 38.5 94t92 38.5t92.5 -38.5t39 -94t-39 -94.5t-92.5 -39t-92 39t-38.5 94.5zM729 1376.5q0 55.5 39 94t92 38.5t92 -38.5t39 -94t-39 -94.5t-92 -39t-92 39t-39 94.5z" />
<glyph unicode="&#x152;" horiz-adv-x="1947" d="M86 843.5q0 354.5 251 600.5t601 246h901v-224h-647v-508h623v-223h-623v-512h647v-223h-901q-352 0 -602 244.5t-250 599zM360 844q0 -252 161 -431.5t417 -179.5v1221q-256 0 -417 -179t-161 -431z" />
<glyph unicode="&#x153;" horiz-adv-x="2220" d="M84 524.5q0 243.5 172 400t430 156.5q295 0 469 -196q172 197 430 196q238 0 394.5 -151.5t156.5 -397.5v-36h-866q0 -154 100 -244t240 -90q109 0 184.5 37t140.5 123l174 -91q-162 -264 -516 -264q-268 0 -438 197q-176 -197 -469 -197q-258 0 -430 157t-172 400.5z M334 524.5q0 -153.5 100.5 -252t252 -98.5t251.5 98.5t100 252t-100 251.5t-251.5 98t-252 -98t-100.5 -251.5zM1278 635h625q-14 125 -100.5 194.5t-211.5 69.5q-133 0 -219 -71.5t-94 -192.5z" />
<glyph unicode="&#x178;" horiz-adv-x="1384" d="M-35 1690h305l422 -684l422 684h305l-600 -947v-743h-254v743zM317 2070.5q0 55.5 39 94.5t92.5 39t92.5 -39t39 -94.5t-39 -94.5t-92.5 -39t-92.5 39t-39 94.5zM805 2070.5q0 55.5 39 94.5t92 39t92 -39t39 -94.5t-39 -94.5t-92 -39t-92 39t-39 94.5z" />
<glyph unicode="&#x2c6;" horiz-adv-x="1122" d="M152 1421l409 299l410 -299l-97 -129l-313 230l-313 -230z" />
<glyph unicode="&#x2dc;" horiz-adv-x="1200" d="M49 1356q156 240 326 239q133 0 278 -106q100 -74 172 -74q23 0 44.5 6t40 19.5t32.5 26t28.5 32t21.5 29.5t17.5 27.5t12.5 19.5l129 -115q-156 -240 -326 -239q-133 0 -278 106q-100 74 -172 74q-23 0 -44.5 -6t-40 -19.5t-32.5 -26t-28.5 -32t-21.5 -29.5t-17.5 -27.5 t-12.5 -19.5z" />
<glyph unicode="&#x2000;" horiz-adv-x="1193" />
<glyph unicode="&#x2001;" horiz-adv-x="2386" />
<glyph unicode="&#x2002;" horiz-adv-x="1193" />
<glyph unicode="&#x2003;" horiz-adv-x="2386" />
<glyph unicode="&#x2004;" horiz-adv-x="795" />
<glyph unicode="&#x2005;" horiz-adv-x="596" />
<glyph unicode="&#x2006;" horiz-adv-x="397" />
<glyph unicode="&#x2007;" horiz-adv-x="397" />
<glyph unicode="&#x2008;" horiz-adv-x="298" />
<glyph unicode="&#x2009;" horiz-adv-x="477" />
<glyph unicode="&#x200a;" horiz-adv-x="132" />
<glyph unicode="&#x2010;" horiz-adv-x="921" d="M131 489v207h660v-207h-660z" />
<glyph unicode="&#x2011;" horiz-adv-x="921" d="M131 489v207h660v-207h-660z" />
<glyph unicode="&#x2012;" horiz-adv-x="921" d="M131 489v207h660v-207h-660z" />
<glyph unicode="&#x2013;" horiz-adv-x="1157" d="M90 489v207h983v-207h-983z" />
<glyph unicode="&#x2014;" horiz-adv-x="2117" d="M90 489v207h1944v-207h-1944z" />
<glyph unicode="&#x2018;" horiz-adv-x="477" d="M63 1284q0 240 238 436l66 -55l-9 -10q-8 -10 -15 -20.5t-17.5 -26t-19.5 -35t-19.5 -41t-17.5 -47t-11 -51.5q55 -10 91 -52.5t36 -97.5q0 -66 -47 -113t-113 -47q-68 0 -115 47.5t-47 112.5z" />
<glyph unicode="&#x2019;" horiz-adv-x="477" d="M94 1561q0 66 47 112.5t113 46.5q68 0 115 -47t47 -112q0 -240 -238 -437l-65 56l8 10q8 10 15 20.5t17.5 25.5t19.5 34.5t19.5 41t17.5 47t11 52.5q-55 10 -91 52t-36 98z" />
<glyph unicode="&#x201a;" horiz-adv-x="489" d="M106 117q0 66 47 112.5t113 46.5q68 0 115 -47t47 -112q0 -240 -238 -436l-65 55l8 10q8 10 15.5 20.5t17.5 25.5t19.5 34.5t19.5 41t17 47.5t11 52q-55 10 -91 52t-36 98z" />
<glyph unicode="&#x201c;" horiz-adv-x="858" d="M63 1284q0 240 238 436l66 -55l-9 -10q-8 -10 -15 -20.5t-17.5 -26t-19.5 -35t-19.5 -41t-17.5 -47t-11 -51.5q55 -10 91 -52.5t36 -97.5q0 -66 -47 -113t-113 -47q-68 0 -115 47.5t-47 112.5zM442 1284q0 240 238 436l65 -55l-8 -10q-8 -10 -15 -20.5t-17.5 -26 t-19.5 -35t-19.5 -41t-17.5 -47t-11 -51.5q55 -10 91 -52.5t36 -97.5q0 -66 -47 -113t-113 -47q-68 0 -115 47.5t-47 112.5z" />
<glyph unicode="&#x201d;" horiz-adv-x="858" d="M96 1561q0 66 47 112.5t113 46.5q68 0 115 -47t47 -112q0 -240 -238 -437l-65 56l8 10q8 10 15 20.5t17.5 25.5t19.5 34.5t19.5 41t17.5 47t11 52.5q-55 10 -91 52t-36 98zM475 1561q0 66 47 112.5t113 46.5q68 0 115 -47t47 -112q0 -240 -238 -437l-65 56l8 10 q8 10 15 20.5t17.5 25.5t19.5 34.5t19.5 41t17.5 47t11 52.5q-55 10 -91 52t-36 98z" />
<glyph unicode="&#x201e;" horiz-adv-x="854" d="M98 117q0 66 47 112.5t113 46.5q68 0 115 -47t47 -112q0 -240 -238 -436l-65 55l8 10q8 10 15 20.5t17.5 25.5t19.5 34.5t19.5 41t17.5 47.5t11 52q-55 10 -91 52t-36 98zM477 117q0 66 47 112.5t113 46.5q68 0 115 -47t47 -112q0 -240 -238 -436l-65 55l8 10 q8 10 15 20.5t17.5 25.5t19.5 34.5t19.5 41t17.5 47.5t11 52q-55 10 -91 52t-36 98z" />
<glyph unicode="&#x2022;" horiz-adv-x="1019" d="M246 731.5q0 110.5 76.5 187t187.5 76.5t187.5 -76.5t76.5 -187t-76.5 -187.5t-187.5 -77t-187.5 77t-76.5 187.5z" />
<glyph unicode="&#x2026;" horiz-adv-x="1587" d="M119 127q0 66 46 113t113.5 47t113.5 -47t46 -113t-46 -113t-113.5 -47t-113.5 47t-46 113zM631 127q0 66 46 113t113.5 47t113.5 -47t46 -113t-46 -113t-113.5 -47t-113.5 47t-46 113zM1143 127q0 66 46 113t113.5 47t113.5 -47t46 -113t-46 -113t-113.5 -47t-113.5 47 t-46 113z" />
<glyph unicode="&#x202f;" horiz-adv-x="477" />
<glyph unicode="&#x2039;" horiz-adv-x="665" d="M49 571l400 512l133 -104l-318 -408l318 -407l-133 -105z" />
<glyph unicode="&#x203a;" horiz-adv-x="665" d="M84 164l317 407l-317 408l133 104l399 -512l-399 -512z" />
<glyph unicode="&#x205f;" horiz-adv-x="596" />
<glyph unicode="&#x20ac;" horiz-adv-x="1697" d="M31 594v151h151q-10 55 -10 99q0 45 10 96h-151v152h184q84 276 324.5 452t535.5 176q137 0 263 -34.5t184.5 -67.5t101.5 -66l-113 -215q-57 47 -164.5 90t-236.5 43q-209 0 -368.5 -105t-225.5 -273h791v-152h-848q-10 -51 -10 -96q0 -43 10 -99h848v-151h-793 q68 -168 223.5 -271.5t372.5 -103.5q129 0 235.5 42t165.5 87l115 -213q-43 -33 -102.5 -65.5t-185.5 -67.5t-263 -35q-299 0 -537.5 176t-322.5 451h-184z" />
<glyph unicode="&#x2122;" horiz-adv-x="1040" d="M39 1620v70h371v-70h-148v-459h-80v459h-143zM422 1161l59 529h84l140 -367l139 367h84l59 -529h-80l-43 385l-135 -366h-49l-135 366l-43 -385h-80z" />
<glyph unicode="&#x25fc;" horiz-adv-x="1044" d="M0 0v1044h1044v-1044h-1044z" />
<glyph unicode="&#xfb01;" horiz-adv-x="1191" d="M76 866v183h125v311q0 205 91 318.5t251 113.5q231 0 377 -154l-95 -159q-94 100 -241 100q-76 0 -109 -51t-33 -170v-309h578v-1049h-242v866h-336v-866h-241v866h-125z" />
<glyph unicode="&#xfb02;" horiz-adv-x="1206" d="M76 866v183h125v311q0 205 91 318.5t251 113.5q115 0 205 -51l-60 -189q-41 27 -104 27q-76 0 -109 -51t-33 -170v-309h256v-183h-256v-866h-241v866h-125zM799 0v1761h241v-1761h-241z" />
<glyph unicode="&#xfb03;" horiz-adv-x="1810" d="M100 866v183h125v311q0 205 91.5 318.5t250.5 113.5q139 0 232 -70l-86 -170q-41 27 -105 27q-76 0 -108.5 -51t-32.5 -170v-309h352v311q0 205 91 318.5t251 113.5q231 0 377 -154l-94 -159q-94 100 -242 100q-76 0 -108.5 -51t-32.5 -170v-309h577v-1049h-241v866h-336 v-866h-242v866h-352v-866h-242v866h-125z" />
<glyph unicode="&#xfb04;" horiz-adv-x="1826" d="M100 866v183h125v311q0 205 91.5 318.5t250.5 113.5q139 0 232 -70l-86 -170q-41 27 -105 27q-76 0 -108.5 -51t-32.5 -170v-309h356v311q0 205 91.5 318.5t250.5 113.5q115 0 205 -51l-59 -189q-41 27 -105 27q-76 0 -108.5 -51t-32.5 -170v-309h256v-183h-256v-866 h-242v866h-356v-866h-242v866h-125zM1421 0v1761h242v-1761h-242z" />
</font>
</defs>
</svg>
