<?xml version="1.0" standalone="no"?>
<!DOCTYPE svg PUBLIC "-//W3C//DTD SVG 1.1//EN" "http://www.w3.org/Graphics/SVG/1.1/DTD/svg11.dtd" >
<svg xmlns="http://www.w3.org/2000/svg" xmlns:xlink="http://www.w3.org/1999/xlink" version="1.1">
<metadata></metadata>
<defs>
<font id="spartan_mbregular" horiz-adv-x="1419" >
<font-face units-per-em="2048" ascent="1638" descent="-410" />
<missing-glyph horiz-adv-x="530" />
<glyph horiz-adv-x="0" />
<glyph horiz-adv-x="682" />
<glyph horiz-adv-x="0" />
<glyph horiz-adv-x="0" />
<glyph unicode="&#xd;" horiz-adv-x="681" />
<glyph unicode=" "  horiz-adv-x="530" />
<glyph unicode="&#x09;" horiz-adv-x="530" />
<glyph unicode="&#xa0;" horiz-adv-x="530" />
<glyph unicode="!" horiz-adv-x="630" d="M190 92q0 51 36 88t89.5 37t89 -37t35.5 -88t-35.5 -88t-89 -37t-89.5 37t-36 88zM227 1761h176l-20 -1333h-135z" />
<glyph unicode="&#x22;" horiz-adv-x="653" d="M100 1702h185l-33 -473h-117zM369 1702h184l-33 -473h-119z" />
<glyph unicode="#" horiz-adv-x="1425" d="M141 434v123h207l55 401h-262v123h277l57 435h123l-59 -435h403l57 435h123l-59 -435h194v-123h-208l-56 -401h264v-123h-278l-57 -434h-123l57 434h-401l-58 -434h-123l58 434h-191zM469 557h403l54 401h-402z" />
<glyph unicode="$" horiz-adv-x="1335" d="M125 276l168 105q25 -47 48.5 -81t67.5 -75t111.5 -62.5t153.5 -21.5q156 0 267.5 77t111.5 231q0 127 -114 211.5t-345 168.5q-373 137 -373 424q0 190 125 318.5t305 146.5v254h117v-256q240 -27 369 -229l-144 -90q-86 152 -280 151q-147 0 -234.5 -86t-87.5 -202 q0 -102 82 -168t229 -119q121 -43 208 -87t165 -104.5t118 -142.5t40 -182q0 -215 -128 -340t-337 -146v-254h-117v250q-100 2 -180 21.5t-128 43t-93 71t-66.5 79t-58.5 94.5z" />
<glyph unicode="%" horiz-adv-x="2048" d="M90 1315q0 178 121 290.5t305 112.5t305 -112.5t121 -290.5q0 -176 -122 -290t-304 -114t-304 114t-122 290zM219 1315q0 -129 85 -213t212 -84t212 84t85 213q0 131 -84 214t-213 83t-213 -83t-84 -214zM471 0l983 1690h125l-983 -1690h-125zM1104 371q0 178 121 290.5 t305 112.5t305 -112.5t121 -290.5q0 -176 -122 -290t-304 -114t-304 114t-122 290zM1233 371q0 -129 85 -213t212 -84t212 84t85 213q0 131 -84 214t-213 83t-213 -83t-84 -214z" />
<glyph unicode="&#x26;" horiz-adv-x="1585" d="M115 428q0 307 405 514q-109 113 -165 201t-56 196q0 162 113.5 271.5t314.5 109.5q193 0 302.5 -114.5t109.5 -266.5q0 -252 -353 -421l420 -455q133 117 209 254l121 -105q-23 -47 -83 -128t-126 -146l311 -338h-233l-213 233q-127 -123 -258 -194.5t-301 -71.5 q-215 0 -366.5 121t-151.5 340zM319 440q0 -135 93.5 -216t236.5 -81q129 0 238.5 64.5t183.5 150.5l-448 478q-152 -72 -228 -176.5t-76 -219.5zM485 1339q0 -31 7.5 -59.5t22.5 -57t28.5 -49t38 -47t37 -39t38 -37t29.5 -28.5q150 74 219.5 142.5t69.5 174.5 q0 98 -64.5 170t-183.5 72q-113 0 -177.5 -72t-64.5 -170z" />
<glyph unicode="'" horiz-adv-x="385" d="M100 1702h185l-33 -473h-117z" />
<glyph unicode="(" horiz-adv-x="704" d="M158 628.5q0 200.5 39 394.5t93 327t109.5 237.5t94.5 153.5l38 51l117 -49q-12 -18 -33.5 -51t-77 -145.5t-97.5 -233.5t-76.5 -307.5t-34.5 -377t32.5 -374.5t79.5 -311t94.5 -227.5t79.5 -149.5l33 -49l-117 -49q-14 18 -39.5 52t-90 149.5t-113.5 241.5t-90 321.5 t-41 396z" />
<glyph unicode=")" horiz-adv-x="704" d="M55 -483l34 51t77 144.5t97 232.5t77 307t35 376.5t-33 375t-80 312.5t-94 228.5t-80 149.5l-33 49l117 49q14 -18 40 -52t90.5 -149.5t113.5 -242.5t90 -323t41 -396.5t-39 -394t-93.5 -326.5t-109.5 -236.5t-94 -154.5l-39 -49z" />
<glyph unicode="*" horiz-adv-x="638" d="M63 1546l27 80l186 -57v192h89v-192l184 57l26 -80l-186 -63l111 -160l-66 -47l-115 154l-114 -154l-66 47l111 160z" />
<glyph unicode="+" horiz-adv-x="1286" d="M119 770v156h446v446h156v-446h446v-156h-446v-446h-156v446h-446z" />
<glyph unicode="," horiz-adv-x="483" d="M117 90q0 53 35.5 90t89 37t89.5 -37t36 -90q0 -199 -185 -358l-49 41q0 2 9.5 15t16.5 23.5t17 30t17.5 38t14.5 44t9 49.5q-43 8 -71.5 41t-28.5 76z" />
<glyph unicode="-" horiz-adv-x="933" d="M137 516v154h660v-154h-660z" />
<glyph unicode="." horiz-adv-x="483" d="M117 92q0 51 35.5 88t89 37t89.5 -37t36 -88t-36 -88t-89.5 -37t-89 37t-35.5 88z" />
<glyph unicode="/" horiz-adv-x="1034" d="M20 -246l844 2007h150l-844 -2007h-150z" />
<glyph unicode="0" horiz-adv-x="1642" d="M133 844q0 213 56.5 384t152.5 276.5t218 160.5t261.5 55t261 -55t218 -160.5t152.5 -276.5t56 -384t-56 -384t-152.5 -276.5t-218 -161t-261 -55.5t-261.5 55.5t-218 161t-152.5 276.5t-56.5 384zM322 844q0 -338 140 -523.5t359 -185.5t359.5 185.5t140.5 523.5 t-140.5 523t-359.5 185t-359 -185t-140 -523z" />
<glyph unicode="1" horiz-adv-x="569" d="M12 1503v187h367v-1690h-189v1503h-178z" />
<glyph unicode="2" horiz-adv-x="1525" d="M156 0v90q33 27 125 97.5t154.5 119.5t158.5 130t163.5 143.5t143.5 144.5t123 150.5t79 143.5t32 138q0 152 -103.5 273.5t-279.5 121.5q-162 0 -285 -142t-123 -273l-166 61q0 70 40 158t109.5 171t182.5 138t242 55q147 0 264 -50t185.5 -133t103 -180t34.5 -200 q0 -121 -61 -243.5t-182 -246.5t-228.5 -216.5t-265.5 -217.5q-57 -43 -84 -65h852v-168h-1214z" />
<glyph unicode="3" horiz-adv-x="1314" d="M86 401l178 70q20 -150 109.5 -241t265.5 -91q162 0 254 89t92 231q0 147 -101.5 247.5t-242.5 100.5l-61 -8v137h59q135 0 232.5 94t97.5 232q0 125 -91.5 213t-220.5 88q-141 0 -226 -88.5t-99 -221.5l-156 58q4 68 35 135t86 130.5t150.5 103.5t214.5 40 q205 0 344 -132t139 -326q0 -129 -68.5 -232.5t-177.5 -150.5q127 -45 203 -160t76 -260q0 -215 -145.5 -353.5t-391.5 -138.5q-139 0 -245.5 39t-169 106.5t-95.5 138.5t-45 150z" />
<glyph unicode="4" horiz-adv-x="1208" d="M-14 526v78l796 1086h189v-998h196v-166h-196v-526h-180v526h-805zM236 692h555v742z" />
<glyph unicode="5" horiz-adv-x="1392" d="M86 334l152 74q39 -115 152.5 -198t283.5 -83q201 0 313.5 110.5t112.5 290.5q0 211 -145.5 329t-360.5 118q-238 0 -418 -172l139 887h863v-166h-707l-72 -465q88 59 271 59q172 0 307 -60.5t222 -198.5t87 -337q0 -246 -166 -400.5t-446 -154.5q-231 0 -382 108.5 t-206 258.5z" />
<glyph unicode="6" horiz-adv-x="1423" d="M106 539q0 150 50.5 267.5t144.5 237.5l539 646h233l-520 -617q90 51 201 51q225 0 394 -162.5t169 -422.5q0 -258 -174 -415t-426 -157q-262 0 -436.5 164t-174.5 408zM299 539q0 -178 115.5 -295t296.5 -117q182 0 300.5 116.5t118.5 295.5q0 182 -120.5 302 t-298.5 120q-170 0 -291 -124t-121 -298z" />
<glyph unicode="7" horiz-adv-x="1208" d="M115 0l837 1524h-817v166h1094v-62l-893 -1628h-221z" />
<glyph unicode="8" horiz-adv-x="1327" d="M133 449q0 164 79 280.5t216 171.5q-229 108 -229 391q0 180 136 304t328.5 124t328.5 -123.5t136 -304.5q0 -283 -229 -391q137 -55 216 -172t79 -280q0 -209 -151.5 -345.5t-379 -136.5t-379 136.5t-151.5 345.5zM313 471.5q0 -149.5 99.5 -245t251 -95.5t251 95.5 t99.5 245t-101.5 245.5t-249 96t-249 -96t-101.5 -245.5zM360 1272q0 -133 86 -218t217.5 -85t217.5 85t86 218t-87 220t-216 87t-216.5 -87t-87.5 -220z" />
<glyph unicode="9" horiz-adv-x="1423" d="M106 1149q0 258 174.5 414.5t426.5 156.5q262 0 436 -163.5t174 -407.5q0 -150 -50 -267.5t-145 -238.5l-538 -643h-234l520 614q-90 -51 -200 -51q-225 0 -394.5 163t-169.5 423zM293 1149q0 -182 121 -302t299 -120q170 0 290.5 124t120.5 298q0 178 -115.5 295 t-295.5 117q-182 0 -301 -117t-119 -295z" />
<glyph unicode=":" horiz-adv-x="483" d="M117 92q0 51 35.5 88t89 37t89.5 -37t36 -88t-36 -88t-89.5 -37t-89 37t-35.5 88zM117 1011.5q0 53.5 35.5 89.5t89 36t89.5 -36t36 -89.5t-36 -89t-89.5 -35.5t-89 35.5t-35.5 89z" />
<glyph unicode=";" horiz-adv-x="483" d="M117 90q0 53 35.5 90t89 37t89.5 -37t36 -90q0 -199 -185 -358l-49 41q0 2 9.5 15t16.5 23.5t17 30t17.5 38t14.5 44t9 49.5q-43 8 -71.5 41t-28.5 76zM117 1011.5q0 53.5 35.5 89.5t89 36t89.5 -36t36 -89.5t-36 -89t-89.5 -35.5t-89 35.5t-35.5 89z" />
<glyph unicode="&#x3c;" horiz-adv-x="1280" d="M55 793v118l1121 516v-149l-928 -426l928 -426v-150z" />
<glyph unicode="=" horiz-adv-x="1265" d="M109 561v156h1048v-156h-1048zM109 981v156h1048v-156h-1048z" />
<glyph unicode="&#x3e;" horiz-adv-x="1280" d="M104 276v150l928 426l-928 426v149l1121 -516v-118z" />
<glyph unicode="?" horiz-adv-x="1193" d="M63 1245q10 205 148.5 340t372.5 135q242 0 384 -152.5t142 -350.5q0 -188 -125 -337t-352 -169v-262h-168v423q35 -10 102 -10q178 0 274.5 102.5t96.5 252.5q0 147 -94 243t-260 96q-168 0 -263.5 -92t-103.5 -245zM424 92q0 51 36 88t89 37t89 -37t36 -88t-36 -88 t-89 -37t-89 37t-36 88z" />
<glyph unicode="@" horiz-adv-x="1957" d="M111 844q0 375 257 625.5t623 250.5q358 0 608 -243.5t250 -608.5q0 -201 -78.5 -316.5t-214.5 -115.5q-158 0 -239 125q-59 -109 -160.5 -172t-232.5 -63q-201 0 -335 141t-134 358t134 359.5t335 142.5q127 0 227 -58.5t158 -160.5v190h133v-579q0 -66 32.5 -110 t100.5 -44q72 0 106.5 67.5t34.5 235.5q0 303 -211 507t-516 204q-299 0 -511 -214t-212 -521q0 -309 207 -518t516 -209q188 0 327.5 74.5t211.5 181.5l127 -78q-86 -127 -256 -227.5t-408 -100.5q-377 0 -628.5 250t-251.5 627zM614 827.5q0 -161.5 99.5 -265t251 -103.5 t250 103.5t98.5 265t-99.5 266t-248.5 104.5q-152 0 -251.5 -104.5t-99.5 -266z" />
<glyph unicode="A" horiz-adv-x="1466" d="M-20 0l667 1690h172l668 -1690h-203l-192 510h-717l-193 -510h-202zM440 676h586l-293 764z" />
<glyph unicode="B" horiz-adv-x="1333" d="M193 0v1690h380q244 0 382.5 -107.5t138.5 -320.5q0 -276 -240 -379q186 -25 287.5 -133.5t101.5 -296.5q0 -209 -140 -331t-392 -122h-518zM381 152h274q188 0 291 78.5t103 228.5q0 156 -102.5 237.5t-291.5 81.5h-274v-626zM381 944h149q383 0 383 301q0 145 -99 220 t-284 77h-149v-598z" />
<glyph unicode="C" horiz-adv-x="1632" d="M111 843.5q0 366.5 258 621.5t632 255q332 0 549 -172l-86 -157q-72 57 -187.5 100t-250.5 43q-322 0 -516.5 -202t-194.5 -488.5t195 -488t516 -201.5q135 0 251 43t187 100l86 -158q-217 -172 -549 -172q-375 0 -632.5 255t-257.5 621.5z" />
<glyph unicode="D" horiz-adv-x="1550" d="M193 0v1690h395q352 0 602 -241t250 -603q0 -365 -249 -605.5t-603 -240.5h-395zM381 168h188q283 0 476.5 193.5t195.5 484.5q0 289 -194.5 482.5t-477.5 193.5h-188v-1354z" />
<glyph unicode="E" horiz-adv-x="1183" d="M193 0v1690h868v-166h-680v-594h655v-166h-655v-598h680v-166h-868z" />
<glyph unicode="F" horiz-adv-x="1183" d="M193 0v1690h872v-166h-684v-594h637v-166h-637v-764h-188z" />
<glyph unicode="G" horiz-adv-x="1816" d="M111 842q0 369 235.5 623.5t587.5 254.5q412 0 651 -288l-123 -136q-190 254 -520 254q-268 0 -449.5 -205.5t-181.5 -502.5q0 -291 185.5 -497t445.5 -206q231 0 405.5 143.5t174.5 370.5v49h-588v152h780v-164q0 -317 -223 -520t-557 -203q-342 0 -582.5 256.5 t-240.5 618.5z" />
<glyph unicode="H" horiz-adv-x="1630" d="M193 0v1690h188v-760h868v760h189v-1690h-189v764h-868v-764h-188z" />
<glyph unicode="I" horiz-adv-x="573" d="M193 0v1690h188v-1690h-188z" />
<glyph unicode="J" horiz-adv-x="1046" d="M-47 129l63 168l16.5 -16.5t44.5 -36t68.5 -45t84 -36t96.5 -16.5q360 0 360 383v1160h188v-1215q0 -248 -136 -378t-390 -130q-106 0 -205.5 41t-144.5 82z" />
<glyph unicode="K" horiz-adv-x="1413" d="M193 0v1690h188v-789l739 789h228l-758 -811l844 -879h-260l-713 741l-80 -86v-655h-188z" />
<glyph unicode="L" horiz-adv-x="1136" d="M193 0v1690h188v-1524h688v-166h-876z" />
<glyph unicode="M" horiz-adv-x="1941" d="M82 0l209 1690h201l479 -1272l479 1272h201l209 -1690h-189l-172 1343l-463 -1257h-131l-463 1257l-172 -1343h-188z" />
<glyph unicode="N" horiz-adv-x="1638" d="M193 0v1690h188l876 -1371v1371h189v-1690h-189l-876 1370v-1370h-188z" />
<glyph unicode="O" horiz-adv-x="1925" d="M111 843.5q0 366.5 244.5 621.5t607 255t607.5 -255t245 -621.5t-245 -621.5t-607.5 -255t-607 255t-244.5 621.5zM313 844q0 -289 184.5 -491.5t465 -202.5t465 202.5t184.5 491.5t-184.5 491.5t-465 202.5t-465 -202.5t-184.5 -491.5z" />
<glyph unicode="P" horiz-adv-x="1310" d="M193 0v1690h462q252 0 398.5 -128t146.5 -355.5t-148.5 -366t-396.5 -138.5h-274v-702h-188zM381 858h225q182 0 291 92t109 252t-109 248t-291 88h-225v-680z" />
<glyph unicode="Q" horiz-adv-x="1929" d="M113 844q0 369 249.5 622.5t602 253.5t602.5 -254t250 -622q0 -360 -224 -606q166 -92 281 -123l-82 -168q-150 49 -334 172q-213 -150 -493 -152q-371 2 -611.5 253t-240.5 624zM315 844q0 -295 177.5 -494.5t472.5 -199.5q190 0 335 88q-141 115 -301 278l82 100 q109 -127 344 -280q188 199 189 508q0 289 -185.5 491.5t-464 202.5t-464 -202.5t-185.5 -491.5z" />
<glyph unicode="R" horiz-adv-x="1320" d="M193 0v1690h462q252 0 398.5 -128t146.5 -356q0 -201 -117.5 -333t-322.5 -156l561 -717h-240l-534 702h-166v-702h-188zM381 858h225q182 0 291 92t109 252t-109 248t-291 88h-225v-680z" />
<glyph unicode="S" horiz-adv-x="1337" d="M125 276l156 97q53 -104 161.5 -168t231.5 -64q156 0 267.5 77t111.5 231q0 127 -114 211.5t-345 168.5q-373 137 -373 424q0 203 141.5 335t337.5 132q289 0 437 -233l-144 -90q-85 151 -277 151h-3q-147 0 -234.5 -86t-87.5 -202q0 -102 82 -168t229 -119 q121 -43 208 -87t165 -104.5t118 -142.5t40 -182q0 -236 -152.5 -363t-394.5 -127q-199 0 -342 82t-219 227z" />
<glyph unicode="T" horiz-adv-x="1200" d="M6 1524v166h1188v-166h-498v-1524h-188v1524h-502z" />
<glyph unicode="U" horiz-adv-x="1536" d="M172 604v1086h188v-1041q0 -254 100.5 -374.5t307.5 -120.5t307.5 120.5t100.5 374.5v1041h188v-1086q0 -313 -152.5 -475t-443.5 -162t-443.5 162t-152.5 475z" />
<glyph unicode="V" horiz-adv-x="1523" d="M-20 1690h213l569 -1407l569 1407h213l-708 -1690h-148z" />
<glyph unicode="W" horiz-adv-x="2265" d="M-20 1690h206l404 -1440l471 1440h143l471 -1440l404 1440h207l-498 -1690h-211l-444 1321l-445 -1321h-211z" />
<glyph unicode="X" horiz-adv-x="1482" d="M-20 0l645 911l-543 779h225l434 -619l435 619h225l-543 -779l645 -911h-235l-527 748l-526 -748h-235z" />
<glyph unicode="Y" horiz-adv-x="1318" d="M-20 1690h227l452 -756l453 756h227l-585 -955v-735h-189v735z" />
<glyph unicode="Z" horiz-adv-x="1552" d="M74 0l1067 1520h-951v170h1289l-1067 -1520h1009v-170h-1347z" />
<glyph unicode="[" horiz-adv-x="681" d="M193 -532v2293h462v-131h-303v-2031h303v-131h-462z" />
<glyph unicode="\" horiz-adv-x="1032" d="M18 1761h150l844 -1761h-150z" />
<glyph unicode="]" horiz-adv-x="681" d="M27 -401h303v2031h-303v131h462v-2293h-462v131z" />
<glyph unicode="^" horiz-adv-x="931" d="M-4 1239l424 481h94l424 -481h-162l-309 356l-309 -356h-162z" />
<glyph unicode="_" horiz-adv-x="1050" d="M0 -111h1051v-94h-1051v94z" />
<glyph unicode="`" horiz-adv-x="624" d="M111 1587l100 133l305 -247l-63 -91z" />
<glyph unicode="a" d="M111 524.5q0 239.5 149.5 398t374.5 158.5q137 0 246.5 -62.5t173.5 -170.5v201h180v-1049h-180v207q-63 -111 -174 -175.5t-246 -64.5q-225 0 -374.5 159t-149.5 398.5zM299 524q0 -174 107.5 -287.5t273.5 -113.5t273.5 113.5t107.5 287.5q0 176 -107.5 289t-273.5 113 q-164 0 -272.5 -113t-108.5 -289z" />
<glyph unicode="b" d="M184 0v1761h181v-913q63 109 172.5 171t246.5 62q225 0 375 -158.5t150 -398t-149.5 -398.5t-375.5 -159q-135 0 -245.5 64.5t-173.5 175.5v-207h-181zM358 524q0 -174 107.5 -287.5t273.5 -113.5t273.5 113.5t107.5 287.5q0 176 -108.5 289t-272.5 113 q-166 0 -273.5 -113t-107.5 -289z" />
<glyph unicode="c" horiz-adv-x="1132" d="M104 524q0 238 166 397.5t402 159.5q246 0 358 -112l-84 -133q-67 73 -249 73h-5q-174 0 -288.5 -106.5t-114.5 -278.5t114.5 -278.5t288.5 -106.5q188 0 252 74l86 -135q-117 -111 -358 -111q-236 0 -402 160.5t-166 396.5z" />
<glyph unicode="d" d="M111 524.5q0 239.5 149.5 398t374.5 158.5q137 0 246.5 -62.5t173.5 -170.5v913h180v-1761h-180v207q-63 -111 -174 -175.5t-246 -64.5q-225 0 -374.5 159t-149.5 398.5zM299 524q0 -174 107.5 -287.5t273.5 -113.5t273.5 113.5t107.5 287.5q0 176 -107.5 289t-273.5 113 q-164 0 -272.5 -113t-108.5 -289z" />
<glyph unicode="e" horiz-adv-x="1310" d="M104 524q0 231 162 394t391 163q233 0 391 -155.5t158 -401.5v-20h-919q0 -174 114.5 -281.5t278.5 -107.5q231 0 360 182l134 -70q-160 -260 -504 -260q-238 0 -402 159.5t-164 397.5zM291 616h739q-14 145 -117.5 231.5t-250.5 86.5q-152 0 -254.5 -88.5t-116.5 -229.5 z" />
<glyph unicode="f" horiz-adv-x="647" d="M98 911v138h111v354q0 190 82 289.5t227 99.5q123 0 211 -66l-63 -129q-43 37 -121 37q-80 0 -118 -54t-38 -175v-356h264v-138h-264v-911h-180v911h-111z" />
<glyph unicode="g" d="M111 524.5q0 239.5 149.5 398t374.5 158.5q137 0 246.5 -62.5t173.5 -170.5v201h180v-1078q0 -256 -151.5 -395t-421.5 -139q-410 0 -545 305l149 70q45 -96 148.5 -159t247.5 -63q174 0 283.5 103.5t109.5 277.5v236q-63 -111 -174 -175.5t-246 -64.5q-225 0 -374.5 159 t-149.5 398.5zM299 524q0 -174 107.5 -287.5t273.5 -113.5t273.5 113.5t107.5 287.5q0 176 -107.5 289t-273.5 113q-164 0 -272.5 -113t-108.5 -289z" />
<glyph unicode="h" horiz-adv-x="1282" d="M184 0v1761h181v-850q49 80 140 125t183 45q195 0 310.5 -108.5t115.5 -302.5v-670h-180v621q0 147 -71.5 232t-209.5 85q-125 0 -206.5 -82t-81.5 -186v-670h-181z" />
<glyph unicode="i" horiz-adv-x="548" d="M150 1376.5q0 53.5 35.5 89t89 35.5t89 -35.5t35.5 -89t-35.5 -89.5t-89 -36t-89 36t-35.5 89.5zM184 0v1049h181v-1049h-181z" />
<glyph unicode="j" horiz-adv-x="548" d="M-139 -508l55 143q38 -38 113 -38h4q152 0 151 204v1248h181v-1270q0 -160 -75 -251t-220 -91q-121 0 -209 55zM150 1376.5q0 53.5 35.5 89t89 35.5t89 -35.5t35.5 -89t-35.5 -89.5t-89 -36t-89 36t-35.5 89.5z" />
<glyph unicode="k" horiz-adv-x="1048" d="M184 0v1761h181v-1120l362 408h231l-385 -424l519 -625h-228l-405 498l-94 -103v-395h-181z" />
<glyph unicode="l" horiz-adv-x="548" d="M184 0v1761h181v-1761h-181z" />
<glyph unicode="m" horiz-adv-x="1992" d="M184 0v1049h181v-138q55 80 145 125t180 45q279 0 371 -217q61 98 156.5 157.5t201.5 59.5q193 0 299.5 -107.5t106.5 -303.5v-670h-180v621q0 145 -71 229t-210 84q-113 0 -191.5 -78t-78.5 -154v-702h-179v621q0 145 -70.5 229t-209.5 84q-115 0 -192.5 -80t-77.5 -158 v-696h-181z" />
<glyph unicode="n" horiz-adv-x="1282" d="M184 0v1049h181v-138q49 80 140 125t183 45q195 0 310.5 -108.5t115.5 -302.5v-670h-180v621q0 147 -71.5 232t-209.5 85q-125 0 -206.5 -82t-81.5 -186v-670h-181z" />
<glyph unicode="o" horiz-adv-x="1382" d="M104 524.5q0 245.5 167 401t419 155.5t419 -155.5t167 -401t-167 -401.5t-419 -156t-419 156t-167 401.5zM289 524q0 -176 113.5 -288.5t287.5 -112.5t288 112.5t114 288.5t-114 289t-288 113t-287.5 -113t-113.5 -289z" />
<glyph unicode="p" d="M184 -532v1581h181v-201q63 109 172.5 171t246.5 62q225 0 375 -158.5t150 -398t-149.5 -398.5t-375.5 -159q-135 0 -245.5 64.5t-173.5 175.5v-739h-181zM358 524q0 -174 107.5 -287.5t273.5 -113.5t273.5 113.5t107.5 287.5q0 176 -108.5 289t-272.5 113 q-166 0 -273.5 -113t-107.5 -289z" />
<glyph unicode="q" d="M111 524.5q0 239.5 149.5 398t374.5 158.5q137 0 246.5 -62.5t173.5 -170.5v201h180v-1581h-180v739q-63 -111 -174 -175.5t-246 -64.5q-225 0 -374.5 159t-149.5 398.5zM299 524q0 -174 107.5 -287.5t273.5 -113.5t273.5 113.5t107.5 287.5q0 176 -107.5 289t-273.5 113 q-164 0 -272.5 -113t-108.5 -289z" />
<glyph unicode="r" horiz-adv-x="856" d="M184 0v1049h181v-154q35 72 118.5 129t190.5 57q76 0 190 -41l-76 -151q-96 35 -159 35q-127 0 -195.5 -89.5t-68.5 -162.5v-672h-181z" />
<glyph unicode="s" horiz-adv-x="980" d="M94 195l123 77q31 -76 102.5 -122t157.5 -46q98 0 170 43t72 140q0 78 -82 132t-225 97q-106 33 -181 100.5t-75 178.5q0 127 97 206.5t265 79.5q121 0 197 -48t106 -118l-112 -71q-53 104 -191 104q-98 0 -155.5 -41t-57.5 -104q0 -59 59.5 -99t176.5 -75 q342 -104 342 -338q0 -174 -119 -249t-287 -75q-291 0 -383 228z" />
<glyph unicode="t" horiz-adv-x="686" d="M98 911v138h113v391h180v-391h256v-138h-256v-600q0 -184 123 -184q27 0 53.5 8t38.5 17l12 10l46 -146q-74 -49 -191 -49q-262 0 -262 318v626h-113z" />
<glyph unicode="u" horiz-adv-x="1257" d="M168 438v611h180v-576q0 -203 68.5 -279.5t212 -76.5t212 76.5t68.5 279.5v576h181v-611q0 -254 -112 -362.5t-349.5 -108.5t-349 108.5t-111.5 362.5z" />
<glyph unicode="v" horiz-adv-x="1132" d="M-10 1049h211l366 -797l367 797h211l-516 -1049h-123z" />
<glyph unicode="w" horiz-adv-x="1884" d="M-10 1049h205l366 -797l320 797h123l319 -797l367 797h204l-516 -1049h-121l-315 776l-315 -776h-121z" />
<glyph unicode="x" horiz-adv-x="1134" d="M10 0l445 543l-385 506h209l288 -381l289 381h209l-385 -506l444 -543h-215l-342 424l-342 -424h-215z" />
<glyph unicode="y" horiz-adv-x="1146" d="M-10 1049h207l397 -822l356 822h207l-737 -1581h-203l272 577z" />
<glyph unicode="z" horiz-adv-x="1153" d="M47 0l739 903h-659v146h979l-739 -904h714v-145h-1034z" />
<glyph unicode="{" horiz-adv-x="684" d="M152 561v107q98 0 98 106v617q0 70 14.5 130t49 117.5t101 90t160.5 32.5h97v-139h-51q-102 0 -156.5 -63.5t-54.5 -180.5v-628q0 -96 -68 -136q68 -39 68 -135v-629q0 -117 54 -180t157 -63h51v-139h-97q-94 0 -160.5 32.5t-101 90t-49 118t-14.5 129.5v617 q0 106 -98 106z" />
<glyph unicode="|" horiz-adv-x="542" d="M193 0v1761h159v-1761h-159z" />
<glyph unicode="}" horiz-adv-x="684" d="M12 -393h51q104 0 158.5 63.5t54.5 179.5v629q0 98 68 135q-68 37 -68 136v628q0 117 -54 180.5t-159 63.5h-51v139h99q94 0 160.5 -32.5t101.5 -90t49 -118t14 -129.5v-617q0 -106 99 -106v-107q-98 0 -99 -106v-617q0 -70 -14 -130t-49 -117.5t-101.5 -90t-160.5 -32.5 h-99v139z" />
<glyph unicode="~" horiz-adv-x="1343" d="M141 797q133 219 316 219q125 0 256 -98q90 -72 174 -72q125 0 215 160l100 -88q-133 -219 -315 -220q-125 0 -256 99q-90 72 -174 71q-125 0 -215 -159z" />
<glyph unicode="&#xa1;" horiz-adv-x="630" d="M190 1136.5q0 51.5 36 88.5t89.5 37t89 -37t35.5 -88.5t-35.5 -88t-89 -36.5t-89.5 36.5t-36 88zM227 -532l21 1333h135l20 -1333h-176z" />
<glyph unicode="&#xa2;" horiz-adv-x="1132" d="M104 524q0 205 127 355.5t324 189.5v234h117v-222q262 0 358 -112l-84 -133q-68 74 -254 73q-174 0 -288.5 -106.5t-114.5 -278.5t114.5 -278.5t288.5 -106.5q188 0 252 74l86 -135q-86 -96 -305 -109v-233h-117v235q-215 23 -359.5 178.5t-144.5 374.5z" />
<glyph unicode="&#xa3;" horiz-adv-x="1548" d="M135 633v108h275q-74 104 -111 197.5t-37 228.5q0 238 152.5 395.5t398.5 157.5q141 0 252 -46t172 -117.5t94 -134t45 -119.5l-159 -70q-8 39 -24.5 79t-48.5 88t-75 84t-109.5 60.5t-146.5 24.5q-164 0 -265.5 -115t-101.5 -287q0 -61 7.5 -113.5t27 -100.5t30.5 -72.5 t42 -75.5t37 -64h481v-108h-436q33 -84 33 -158q0 -90 -52 -217q59 0 210 -69.5t259 -69.5q104 0 166 77.5t70 155.5l143 -71q-6 -41 -29.5 -91.5t-65.5 -101.5t-111.5 -85t-153.5 -34q-111 0 -219.5 41t-204.5 82t-176 41q-86 0 -138.5 -42t-70.5 -91h-117q12 88 94 176 t197 94q43 90 43 199q0 74 -45 164h-332z" />
<glyph unicode="&#xa5;" horiz-adv-x="1357" d="M-4 1690h227l453 -756l452 756h228l-539 -877h361v-137h-408v-230h408v-137h-408v-309h-188v309h-410v137h410v230h-410v137h360z" />
<glyph unicode="&#xa6;" horiz-adv-x="542" d="M193 0v680h159v-680h-159zM193 1081v680h159v-680h-159z" />
<glyph unicode="&#xa7;" horiz-adv-x="1310" d="M100 -186l160 41q8 -25 29.5 -60t63.5 -86t118 -85t166 -34q156 0 257 77t101 208q0 119 -106.5 202t-323.5 159q-203 74 -301 172t-98 237q2 104 62.5 187t152.5 122q-182 123 -182 336q0 184 128 307t343 123q86 0 159.5 -25.5t117.5 -58t81 -79t52.5 -74t27.5 -58.5 l-160 -41q-27 66 -95.5 124.5t-182.5 58.5q-131 0 -211 -82t-80 -191q0 -106 94 -178t270 -133q233 -84 345 -187.5t112 -252.5q-2 -96 -64.5 -180t-154.5 -125q188 -135 188 -359q0 -188 -138 -315t-394 -127q-115 0 -211 37t-151.5 84t-97.5 107.5t-56.5 93t-20.5 55.5z M326 670q2 -90 80.5 -150.5t224.5 -111.5q141 -49 229 -101q72 20 124 78.5t54 132.5q-2 98 -99 170t-294 139q-78 25 -145 60q-68 -20 -120 -79.5t-54 -137.5z" />
<glyph unicode="&#xa8;" horiz-adv-x="983" d="M147 1432q0 43 31 73.5t74 30.5t73.5 -30.5t30.5 -73.5t-30.5 -74t-73.5 -31t-74 31t-31 74zM627 1432q0 43 30.5 73.5t73.5 30.5t74 -30.5t31 -73.5t-31 -74t-74 -31t-73.5 31t-30.5 74z" />
<glyph unicode="&#xa9;" horiz-adv-x="1941" d="M111 844q0 367 252.5 621.5t607.5 254.5q358 0 610 -255t252 -621q0 -369 -250 -623t-612 -254q-367 0 -613.5 254t-246.5 623zM240 844q0 -315 209.5 -532.5t521.5 -217.5q307 0 519 218t212 531.5t-214 531.5t-517 218q-301 0 -516 -218t-215 -531zM469 844 q0 215 150.5 360.5t365.5 145.5q240 0 326 -101l-76 -123q-57 68 -231 68q-160 0 -263.5 -96.5t-103.5 -253.5q0 -156 103.5 -252t263.5 -96q174 0 229 65l78 -121q-88 -102 -326 -102q-213 0 -364.5 146.5t-151.5 359.5z" />
<glyph unicode="&#xaa;" horiz-adv-x="962" d="M125 1376.5q0 147.5 92 245.5t232 98q176 0 260 -143v123h110v-647h-110v127q-86 -147 -260 -148q-139 0 -231.5 98.5t-92.5 246zM242 1376.5q0 -108.5 66.5 -178.5t169 -70t169 70t66.5 178.5t-66.5 178t-169.5 69.5q-100 0 -167.5 -69.5t-67.5 -178z" />
<glyph unicode="&#xab;" horiz-adv-x="1126" d="M39 569l399 512l105 -82l-336 -430l336 -430l-105 -82zM551 569l399 512l105 -82l-336 -430l336 -430l-105 -82z" />
<glyph unicode="&#xad;" horiz-adv-x="933" d="M137 516v154h660v-154h-660z" />
<glyph unicode="&#xae;" horiz-adv-x="1044" d="M63 1260q0 190 134.5 325t322.5 135q193 0 327 -135t134 -325q0 -188 -134 -322.5t-327 -134.5q-188 0 -322.5 134.5t-134.5 322.5zM129 1260q0 -162 114.5 -277t276.5 -115t277.5 115t115.5 277q0 164 -115.5 279.5t-277.5 115.5t-276.5 -115.5t-114.5 -279.5zM381 985 v553h123q82 0 129 -41t47 -115q0 -66 -40 -108.5t-108 -50.5l185 -238h-66l-178 234h-39v-234h-53zM434 1264h58q61 0 98 31.5t37 86.5q0 53 -37 84t-98 31h-58v-233z" />
<glyph unicode="&#xaf;" horiz-adv-x="1122" d="M143 1358v127h836v-127h-836z" />
<glyph unicode="&#xb0;" horiz-adv-x="630" d="M96 1581q0 92 62.5 151.5t157 59.5t157 -59.5t62.5 -151.5t-61.5 -151.5t-158.5 -59.5q-98 0 -158.5 59.5t-60.5 151.5zM184 1581q0 -59 37 -97t94.5 -38t94 38t36.5 97q0 57 -36.5 95t-94.5 38q-55 0 -93 -38t-38 -95z" />
<glyph unicode="&#xb1;" horiz-adv-x="1339" d="M145 0v156h1049v-156h-1049zM145 791v155h447v426h156v-426h446v-155h-446v-426h-156v426h-447z" />
<glyph unicode="&#xb2;" horiz-adv-x="561" d="M66 1051v34q12 10 66 52.5t85 67t81 70.5t77.5 78.5t49 73.5t21.5 74q0 59 -39.5 106.5t-109.5 47.5q-61 0 -109.5 -55.5t-48.5 -106.5l-63 25q0 63 63.5 132.5t157.5 69.5q111 0 170 -66.5t59 -152.5q0 -47 -21.5 -93t-76.5 -101.5t-82 -79t-106 -84.5q-23 -18 -33 -27 h330v-65h-471z" />
<glyph unicode="&#xb3;" horiz-adv-x="505" d="M45 1217l68 26q18 -127 143 -127q63 0 98 34t35 89t-39 94t-92 39l-25 -4v53h23q53 0 90 36t37 87q0 49 -35 82t-84 33q-55 0 -88 -33t-37 -84l-59 21q4 57 51 107t135 50q78 0 131.5 -51t53.5 -125q0 -49 -27 -89t-68 -56q49 -16 78 -60.5t29 -99.5q0 -82 -55.5 -135 t-149.5 -53q-102 0 -152.5 49t-60.5 117z" />
<glyph unicode="&#xb4;" horiz-adv-x="770" d="M182 1473l305 247l101 -133l-342 -205z" />
<glyph unicode="&#xb5;" horiz-adv-x="1325" d="M168 -328q0 156 21.5 387.5t21.5 384.5v605h178v-621q0 -147 73 -232t210 -85q123 0 204.5 81.5t81.5 186.5v670h181v-1049h-181v137q-49 -80 -140 -125t-183 -45q-168 0 -246 105v-400h-221z" />
<glyph unicode="&#xb6;" horiz-adv-x="1343" d="M111 1206q0 215 141 349.5t385 134.5h516v-1690h-119v1575h-82v-1575h-118v702h-197q-240 0 -383 144.5t-143 359.5z" />
<glyph unicode="&#xb7;" horiz-adv-x="483" d="M119 551q0 51 35.5 87t87 36t87.5 -36t36 -87t-36 -87t-87.5 -36t-87 36t-35.5 87z" />
<glyph unicode="&#xb8;" horiz-adv-x="841" d="M158 -444l86 59q25 -41 78 -76t120.5 -35t112.5 34t45 95.5t-43 99.5t-104 38q-84 0 -140 -37l-12 8l100 307l88 -29l-59 -178q20 4 62 4q90 0 157.5 -59t67.5 -154q0 -100 -74 -167.5t-201 -67.5q-98 0 -177 52t-107 106z" />
<glyph unicode="&#xb9;" horiz-adv-x="251" d="M49 1620v70h137v-639h-69v569h-68z" />
<glyph unicode="&#xba;" horiz-adv-x="970" d="M127 1376.5q0 151.5 103.5 247.5t259 96t259 -96t103.5 -247.5t-102.5 -249t-260.5 -97.5q-160 0 -261 97.5t-101 249zM240 1376q0 -109 69.5 -179.5t179.5 -70.5q109 0 178.5 71t69.5 179q0 106 -71 177t-177 71q-109 0 -179 -70.5t-70 -177.5z" />
<glyph unicode="&#xbb;" horiz-adv-x="1126" d="M72 139l336 430l-336 430l104 82l399 -512l-399 -512zM584 139l336 430l-336 430l104 82l399 -512l-399 -512z" />
<glyph unicode="&#xbc;" horiz-adv-x="1550" d="M125 2l983 1688h125l-981 -1688h-127zM133 1581v109h213v-981h-108v872h-105zM782 305v45l463 631h109v-580h114v-96h-114v-305h-105v305h-467zM928 401h321v430z" />
<glyph unicode="&#xbd;" horiz-adv-x="1869" d="M125 0l983 1690h127l-983 -1690h-127zM133 1581v109h213v-983h-108v874h-105zM991 0v51q16 14 97 76.5t126.5 99.5t118 103.5t113.5 116t73.5 109.5t32.5 108q0 86 -60 156.5t-161 70.5q-92 0 -162.5 -82t-70.5 -158l-94 37q0 92 93 195.5t234 103.5q166 0 252 -97 t86 -226q0 -35 -8 -69t-28.5 -70t-38 -64.5t-54.5 -66.5t-58.5 -60.5t-70.5 -63.5t-68.5 -57t-75 -61.5t-69.5 -55.5h490v-96h-697z" />
<glyph unicode="&#xbe;" horiz-adv-x="1865" d="M78 948l100 39q27 -186 213 -186q92 0 144.5 50t52.5 130q0 84 -58.5 140.5t-138.5 56.5l-35 -4v77h35q76 0 131.5 53.5t55.5 131.5q0 70 -52.5 120t-124.5 50q-80 0 -128 -49.5t-56 -124.5l-88 32q6 86 75.5 159t198.5 73q115 0 195 -76t80 -184q0 -72 -39 -131.5 t-100 -85.5q72 -25 114.5 -89.5t42.5 -148.5q0 -121 -83 -200t-222 -79q-150 0 -224.5 73t-88.5 173zM442 2l981 1688h125l-981 -1688h-125zM1098 305v45l463 631h108v-580h115v-96h-115v-305h-104v305h-467zM1243 401h322v430z" />
<glyph unicode="&#xbf;" horiz-adv-x="1193" d="M82 -59q0 188 125 336.5t352 168.5v263h168v-424q-35 10 -102 10q-178 0 -274.5 -102.5t-96.5 -251.5q0 -147 94 -243.5t260 -96.5q168 0 263.5 92t103.5 246l153 -27q-10 -205 -148 -340t-372 -135q-242 0 -384 152.5t-142 351.5zM518 1067q0 51 36 88t89 37t89 -37 t36 -88t-36 -88t-89 -37t-89 37t-36 88z" />
<glyph unicode="&#xc0;" horiz-adv-x="1466" d="M-20 0l667 1690h172l668 -1690h-203l-192 510h-717l-193 -510h-202zM391 2046l101 133l305 -248l-64 -90zM440 676h586l-293 764z" />
<glyph unicode="&#xc1;" horiz-adv-x="1466" d="M-20 0l667 1690h172l668 -1690h-203l-192 510h-717l-193 -510h-202zM440 676h586l-293 764zM670 1933l305 248l100 -133l-342 -205z" />
<glyph unicode="&#xc2;" horiz-adv-x="1466" d="M-20 0l667 1690h172l668 -1690h-203l-192 510h-717l-193 -510h-202zM346 1942l387 284l387 -284l-73 -101l-314 230l-313 -230zM440 676h586l-293 764z" />
<glyph unicode="&#xc3;" horiz-adv-x="1466" d="M-20 0l667 1690h172l668 -1690h-203l-192 510h-717l-193 -510h-202zM203 2064q133 219 315 220q125 0 256 -99q90 -72 174 -71q125 0 215 159l101 -88q-133 -219 -316 -219q-125 0 -256 98q-90 72 -174 72q-125 0 -215 -160zM440 676h586l-293 764z" />
<glyph unicode="&#xc4;" horiz-adv-x="1466" d="M-20 0l667 1690h172l668 -1690h-203l-192 510h-717l-193 -510h-202zM389 2068q0 43 31 74t74 31t73.5 -31t30.5 -74t-30.5 -73.5t-73.5 -30.5t-74 30.5t-31 73.5zM440 676h586l-293 764zM868 2068q0 43 31 74t74 31t73.5 -31t30.5 -74t-30.5 -73.5t-73.5 -30.5t-74 30.5 t-31 73.5z" />
<glyph unicode="&#xc5;" horiz-adv-x="1466" d="M-20 0l667 1690h172l668 -1690h-203l-192 510h-717l-193 -510h-202zM440 676h586l-293 764zM481 2140q0 96 73 158.5t179.5 62.5t179 -62.5t72.5 -158.5q0 -98 -70.5 -160.5t-181.5 -62.5q-113 0 -182.5 62.5t-69.5 160.5zM596 2140q0 -55 38 -91t99.5 -36t99 36t37.5 91 q0 53 -38.5 89t-98 36t-98.5 -36t-39 -89z" />
<glyph unicode="&#xc6;" horiz-adv-x="1755" d="M-27 0l703 1690h956v-166h-680v-594h656v-166h-656v-598h680v-166h-868v510h-387l-201 -510h-203zM442 676h322v813z" />
<glyph unicode="&#xc7;" horiz-adv-x="1632" d="M111 844q0 367 258 621.5t632 254.5q332 0 549 -172l-86 -157q-72 57 -187.5 100t-250.5 43q-322 0 -516.5 -202t-194.5 -488.5t195 -488t516 -201.5q135 0 251 43t187 100l86 -158q-217 -172 -549 -172q-8 0 -24 1t-25 1l-41 -127q20 4 62 4q90 0 157.5 -59t67.5 -154 q0 -100 -73.5 -167.5t-200.5 -67.5q-98 0 -177 52t-108 106l86 59q25 -41 78 -76t120.5 -35t112.5 34t45 95.5t-43 99.5t-104 38q-84 0 -139 -37l-13 8l76 235q-324 49 -535.5 293t-211.5 574z" />
<glyph unicode="&#xc8;" horiz-adv-x="1183" d="M193 0v1690h868v-166h-680v-594h655v-166h-655v-598h680v-166h-868zM362 2048l101 133l305 -248l-63 -90z" />
<glyph unicode="&#xc9;" horiz-adv-x="1183" d="M193 0v1690h868v-166h-680v-594h655v-166h-655v-598h680v-166h-868zM485 1933l306 248l100 -133l-342 -205z" />
<glyph unicode="&#xca;" horiz-adv-x="1183" d="M193 0v1690h868v-166h-680v-594h655v-166h-655v-598h680v-166h-868zM240 1942l387 284l387 -284l-74 -101l-313 230l-314 -230z" />
<glyph unicode="&#xcb;" horiz-adv-x="1183" d="M193 0v1690h868v-166h-680v-594h655v-166h-655v-598h680v-166h-868zM283 2071q0 43 30.5 73.5t73.5 30.5t74 -30.5t31 -73.5t-31 -74t-74 -31t-73.5 31t-30.5 74zM762 2071q0 43 30.5 73.5t73.5 30.5t74 -30.5t31 -73.5t-31 -74t-74 -31t-73.5 31t-30.5 74z" />
<glyph unicode="&#xcc;" horiz-adv-x="573" d="M-55 2046l100 133l305 -248l-63 -90zM193 0v1690h188v-1690h-188z" />
<glyph unicode="&#xcd;" horiz-adv-x="573" d="M193 0v1690h188v-1690h-188zM223 1933l305 248l101 -133l-342 -205z" />
<glyph unicode="&#xce;" horiz-adv-x="573" d="M-100 1942l387 284l387 -284l-74 -101l-313 230l-314 -230zM193 0v1690h188v-1690h-188z" />
<glyph unicode="&#xcf;" horiz-adv-x="573" d="M-57 2071q0 43 30.5 73.5t73.5 30.5t74 -30.5t31 -73.5t-31 -74t-74 -31t-73.5 31t-30.5 74zM193 0v1690h188v-1690h-188zM422 2071q0 43 30.5 73.5t73.5 30.5t74 -30.5t31 -73.5t-31 -74t-74 -31t-73.5 31t-30.5 74z" />
<glyph unicode="&#xd0;" horiz-adv-x="1550" d="M25 768v154h168v768h395q354 0 603 -241t249 -603q0 -365 -249 -605.5t-603 -240.5h-395v768h-168zM381 168h188q283 0 477.5 193.5t194.5 484.5q0 289 -195.5 482.5t-476.5 193.5h-188v-600h420v-154h-420v-600z" />
<glyph unicode="&#xd1;" horiz-adv-x="1638" d="M193 0v1690h188l876 -1371v1371h189v-1690h-189l-876 1370v-1370h-188zM289 2066q133 219 315 220q125 0 256 -99q90 -72 174 -71q125 0 215 159l101 -88q-133 -219 -316 -219q-125 0 -256 98q-90 72 -174 72q-125 0 -215 -160z" />
<glyph unicode="&#xd2;" horiz-adv-x="1925" d="M111 843.5q0 366.5 244.5 621.5t607 255t607.5 -255t245 -621.5t-245 -621.5t-607.5 -255t-607 255t-244.5 621.5zM313 844q0 -289 184.5 -491.5t465 -202.5t465 202.5t184.5 491.5t-184.5 491.5t-465 202.5t-465 -202.5t-184.5 -491.5zM698 2048l101 133l305 -248 l-64 -90z" />
<glyph unicode="&#xd3;" horiz-adv-x="1925" d="M111 843.5q0 366.5 244.5 621.5t607 255t607.5 -255t245 -621.5t-245 -621.5t-607.5 -255t-607 255t-244.5 621.5zM313 844q0 -289 184.5 -491.5t465 -202.5t465 202.5t184.5 491.5t-184.5 491.5t-465 202.5t-465 -202.5t-184.5 -491.5zM821 1933l305 248l101 -133 l-342 -205z" />
<glyph unicode="&#xd4;" horiz-adv-x="1925" d="M111 843.5q0 366.5 244.5 621.5t607 255t607.5 -255t245 -621.5t-245 -621.5t-607.5 -255t-607 255t-244.5 621.5zM313 844q0 -289 184.5 -491.5t465 -202.5t465 202.5t184.5 491.5t-184.5 491.5t-465 202.5t-465 -202.5t-184.5 -491.5zM575 1942l388 284l387 -284 l-74 -101l-313 230l-314 -230z" />
<glyph unicode="&#xd5;" horiz-adv-x="1925" d="M111 843.5q0 366.5 244.5 621.5t607 255t607.5 -255t245 -621.5t-245 -621.5t-607.5 -255t-607 255t-244.5 621.5zM313 844q0 -289 184.5 -491.5t465 -202.5t465 202.5t184.5 491.5t-184.5 491.5t-465 202.5t-465 -202.5t-184.5 -491.5zM432 2052q133 219 316 219 q125 0 256 -98q90 -72 174 -72q125 0 215 160l100 -88q-133 -219 -315 -219q-125 0 -256 98q-90 72 -174 72q-125 0 -216 -160z" />
<glyph unicode="&#xd6;" horiz-adv-x="1925" d="M111 843.5q0 366.5 244.5 621.5t607 255t607.5 -255t245 -621.5t-245 -621.5t-607.5 -255t-607 255t-244.5 621.5zM313 844q0 -289 184.5 -491.5t465 -202.5t465 202.5t184.5 491.5t-184.5 491.5t-465 202.5t-465 -202.5t-184.5 -491.5zM618 2071q0 43 31 73.5t74 30.5 t73.5 -30.5t30.5 -73.5t-30.5 -74t-73.5 -31t-74 31t-31 74zM1098 2071q0 43 30.5 73.5t73.5 30.5t74 -30.5t31 -73.5t-31 -74t-74 -31t-73.5 31t-30.5 74z" />
<glyph unicode="&#xd7;" horiz-adv-x="1183" d="M115 477l368 371l-368 371l108 106l369 -369l369 369l108 -106l-369 -371l369 -371l-108 -106l-369 368l-369 -368z" />
<glyph unicode="&#xd8;" horiz-adv-x="1925" d="M111 844q0 367 244.5 621.5t607.5 254.5q264 0 477 -145l104 133l121 -90l-109 -139q258 -258 259 -635q0 -367 -245 -622t-607 -255q-266 0 -480 146l-102 -129l-119 90l107 135q-258 254 -258 635zM313 844q0 -285 174 -482l836 1063q-162 113 -360 113 q-281 0 -465.5 -202.5t-184.5 -491.5zM600 262q158 -113 363 -112q281 0 465 202.5t184 491.5q0 283 -176 481z" />
<glyph unicode="&#xd9;" horiz-adv-x="1536" d="M172 604v1086h188v-1041q0 -254 100.5 -374.5t307.5 -120.5t307.5 120.5t100.5 374.5v1041h188v-1086q0 -313 -152.5 -475t-443.5 -162t-443.5 162t-152.5 475zM524 2048l101 133l305 -248l-64 -90z" />
<glyph unicode="&#xda;" horiz-adv-x="1536" d="M172 604v1086h188v-1041q0 -254 100.5 -374.5t307.5 -120.5t307.5 120.5t100.5 374.5v1041h188v-1086q0 -313 -152.5 -475t-443.5 -162t-443.5 162t-152.5 475zM606 1933l305 248l101 -133l-342 -205z" />
<glyph unicode="&#xdb;" horiz-adv-x="1536" d="M172 604v1086h188v-1041q0 -254 100.5 -374.5t307.5 -120.5t307.5 120.5t100.5 374.5v1041h188v-1086q0 -313 -152.5 -475t-443.5 -162t-443.5 162t-152.5 475zM381 1942l387 284l387 -284l-74 -101l-313 230l-313 -230z" />
<glyph unicode="&#xdc;" horiz-adv-x="1536" d="M172 604v1086h188v-1041q0 -254 100.5 -374.5t307.5 -120.5t307.5 120.5t100.5 374.5v1041h188v-1086q0 -313 -152.5 -475t-443.5 -162t-443.5 162t-152.5 475zM424 2071q0 43 30.5 73.5t73.5 30.5t74 -30.5t31 -73.5t-31 -74t-74 -31t-73.5 31t-30.5 74zM903 2071 q0 43 31 73.5t74 30.5t73.5 -30.5t30.5 -73.5t-30.5 -74t-73.5 -31t-74 31t-31 74z" />
<glyph unicode="&#xdd;" horiz-adv-x="1318" d="M-20 1690h227l452 -756l453 756h227l-585 -955v-735h-189v735zM498 1933l305 248l100 -133l-342 -205z" />
<glyph unicode="&#xde;" horiz-adv-x="1746" d="M193 0v1690h188v-359h274q252 0 398.5 -128t146.5 -355t-148.5 -364.5t-396.5 -137.5h-274v-346h-188zM381 502h225q182 0 288.5 91t106.5 251t-106.5 248t-288.5 88h-225v-678z" />
<glyph unicode="&#xdf;" horiz-adv-x="1316" d="M82 731v146h135v444q0 199 138.5 335t332.5 136q203 0 339 -134t136 -331q0 -131 -67.5 -233.5t-182.5 -151.5q141 -55 226.5 -175t85.5 -278q0 -215 -157 -368.5t-382 -153.5h-145v168h110q182 0 283.5 107.5t101.5 253.5q0 143 -92 247.5t-229 114.5q-111 8 -174 8v144 q92 0 178 12q115 10 193.5 97t78.5 208q0 133 -86 221t-217 88t-212 -98t-81 -254v-1284h-178v731h-135z" />
<glyph unicode="&#xe0;" d="M111 524.5q0 239.5 149.5 398t374.5 158.5q137 0 246.5 -62.5t173.5 -170.5v201h180v-1049h-180v207q-63 -111 -174 -175.5t-246 -64.5q-225 0 -374.5 159t-149.5 398.5zM299 524q0 -174 107.5 -287.5t273.5 -113.5t273.5 113.5t107.5 287.5q0 176 -107.5 289t-273.5 113 q-164 0 -272.5 -113t-108.5 -289zM430 1407l100 133l306 -248l-64 -90z" />
<glyph unicode="&#xe1;" d="M111 524.5q0 239.5 149.5 398t374.5 158.5q137 0 246.5 -62.5t173.5 -170.5v201h180v-1049h-180v207q-63 -111 -174 -175.5t-246 -64.5q-225 0 -374.5 159t-149.5 398.5zM299 524q0 -174 107.5 -287.5t273.5 -113.5t273.5 113.5t107.5 287.5q0 176 -107.5 289t-273.5 113 q-164 0 -272.5 -113t-108.5 -289zM512 1292l305 248l101 -133l-343 -205z" />
<glyph unicode="&#xe2;" d="M111 524.5q0 239.5 149.5 398t374.5 158.5q137 0 246.5 -62.5t173.5 -170.5v201h180v-1049h-180v207q-63 -111 -174 -175.5t-246 -64.5q-225 0 -374.5 159t-149.5 398.5zM287 1303l387 284l387 -284l-74 -101l-313 230l-314 -230zM299 524q0 -174 107.5 -287.5 t273.5 -113.5t273.5 113.5t107.5 287.5q0 176 -107.5 289t-273.5 113q-164 0 -272.5 -113t-108.5 -289z" />
<glyph unicode="&#xe3;" d="M111 524.5q0 239.5 149.5 398t374.5 158.5q137 0 246.5 -62.5t173.5 -170.5v201h180v-1049h-180v207q-63 -111 -174 -175.5t-246 -64.5q-225 0 -374.5 159t-149.5 398.5zM143 1350q133 219 316 219q125 0 256 -99q90 -72 174 -71q125 0 215 160l100 -89 q-133 -219 -315 -219q-125 0 -256 99q-90 72 -174 71q-125 0 -215 -159zM299 524q0 -174 107.5 -287.5t273.5 -113.5t273.5 113.5t107.5 287.5q0 176 -107.5 289t-273.5 113q-164 0 -272.5 -113t-108.5 -289z" />
<glyph unicode="&#xe4;" d="M111 524.5q0 239.5 149.5 398t374.5 158.5q137 0 246.5 -62.5t173.5 -170.5v201h180v-1049h-180v207q-63 -111 -174 -175.5t-246 -64.5q-225 0 -374.5 159t-149.5 398.5zM299 524q0 -174 107.5 -287.5t273.5 -113.5t273.5 113.5t107.5 287.5q0 176 -107.5 289t-273.5 113 q-164 0 -272.5 -113t-108.5 -289zM328 1432q0 43 30.5 73.5t73.5 30.5t74 -30.5t31 -73.5t-31 -74t-74 -31t-73.5 31t-30.5 74zM807 1432q0 43 30.5 73.5t73.5 30.5t74 -30.5t31 -73.5t-31 -74t-74 -31t-73.5 31t-30.5 74z" />
<glyph unicode="&#xe5;" d="M111 524.5q0 239.5 149.5 398t374.5 158.5q137 0 246.5 -62.5t173.5 -170.5v201h180v-1049h-180v207q-63 -111 -174 -175.5t-246 -64.5q-225 0 -374.5 159t-149.5 398.5zM299 524q0 -174 107.5 -287.5t273.5 -113.5t273.5 113.5t107.5 287.5q0 176 -107.5 289t-273.5 113 q-164 0 -272.5 -113t-108.5 -289zM420 1501q0 96 72.5 158.5t179 62.5t179.5 -62.5t73 -158.5q0 -98 -71 -160.5t-181 -62.5q-113 0 -182.5 62.5t-69.5 160.5zM535 1501q0 -55 37.5 -91t99 -36t99.5 36t38 91q0 53 -39 89t-98.5 36t-98 -36t-38.5 -89z" />
<glyph unicode="&#xe6;" horiz-adv-x="2115" d="M168 295q0 150 112.5 246t288.5 96q233 0 344 -129v119q0 145 -85 227t-226 82q-197 0 -297 -115l-72 119q45 57 144.5 99t224.5 42q305 0 430 -209q76 96 188.5 152.5t241.5 56.5q233 0 391 -155.5t158 -401.5v-20h-919q0 -174 114.5 -281.5t278.5 -107.5q231 0 360 182 l133 -70q-160 -260 -503 -260q-295 0 -457 219q-150 -219 -443 -219q-174 0 -290.5 91.5t-116.5 236.5zM344 309.5q0 -98.5 84 -161t205 -62.5t205 63.5t84 159.5q0 94 -83 155.5t-206 61.5q-121 0 -205 -59t-84 -157.5zM1096 616h739q-14 147 -118.5 242.5t-250.5 95.5 q-150 0 -253 -96.5t-117 -241.5z" />
<glyph unicode="&#xe7;" horiz-adv-x="1134" d="M106 524q0 238 166 397.5t402 159.5q262 0 358 -112l-84 -133q-68 74 -254 73q-174 0 -288.5 -106.5t-114.5 -278.5t114.5 -278.5t288.5 -106.5q188 0 252 74l86 -135q-100 -111 -358 -111q-27 0 -39 2l-41 -127q20 4 61 4q90 0 158 -59t68 -154q0 -100 -74 -167.5 t-201 -67.5q-98 0 -177 52t-107 106l86 59q25 -41 78 -76t120.5 -35t112.5 34t45 95.5t-43 99.5t-105 38q-84 0 -139 -37l-12 8l78 240q-190 43 -313.5 192.5t-123.5 349.5z" />
<glyph unicode="&#xe8;" horiz-adv-x="1310" d="M104 524q0 231 162 394t391 163q233 0 391 -155.5t158 -401.5v-20h-919q0 -174 114.5 -281.5t278.5 -107.5q231 0 360 182l134 -70q-160 -260 -504 -260q-238 0 -402 159.5t-164 397.5zM291 616h739q-14 145 -117.5 231.5t-250.5 86.5q-152 0 -254.5 -88.5t-116.5 -229.5 zM412 1407l100 133l305 -248l-63 -90z" />
<glyph unicode="&#xe9;" horiz-adv-x="1310" d="M104 524q0 231 162 394t391 163q233 0 391 -155.5t158 -401.5v-20h-919q0 -174 114.5 -281.5t278.5 -107.5q231 0 360 182l134 -70q-160 -260 -504 -260q-238 0 -402 159.5t-164 397.5zM291 616h739q-14 145 -117.5 231.5t-250.5 86.5q-152 0 -254.5 -88.5t-116.5 -229.5 zM494 1292l305 248l100 -133l-342 -205z" />
<glyph unicode="&#xea;" horiz-adv-x="1310" d="M104 524q0 231 162 394t391 163q233 0 391 -155.5t158 -401.5v-20h-919q0 -174 114.5 -281.5t278.5 -107.5q231 0 360 182l134 -70q-160 -260 -504 -260q-238 0 -402 159.5t-164 397.5zM268 1303l387 284l387 -284l-73 -101l-314 230l-313 -230zM291 616h739 q-14 145 -117.5 231.5t-250.5 86.5q-152 0 -254.5 -88.5t-116.5 -229.5z" />
<glyph unicode="&#xeb;" horiz-adv-x="1310" d="M104 524q0 231 162 394t391 163q233 0 391 -155.5t158 -401.5v-20h-919q0 -174 114.5 -281.5t278.5 -107.5q231 0 360 182l134 -70q-160 -260 -504 -260q-238 0 -402 159.5t-164 397.5zM291 616h739q-14 145 -117.5 231.5t-250.5 86.5q-152 0 -254.5 -88.5t-116.5 -229.5 zM311 1348q0 43 31 73.5t74 30.5t73.5 -30.5t30.5 -73.5t-30.5 -74t-73.5 -31t-74 31t-31 74zM791 1348q0 43 30.5 73.5t73.5 30.5t73.5 -30.5t30.5 -73.5t-30.5 -74t-73.5 -31t-73.5 31t-30.5 74z" />
<glyph unicode="&#xec;" horiz-adv-x="548" d="M-68 1407l101 133l305 -248l-64 -90zM184 0v1049h181v-1049h-181z" />
<glyph unicode="&#xed;" horiz-adv-x="548" d="M184 0v1049h181v-1049h-181zM211 1292l305 248l100 -133l-342 -205z" />
<glyph unicode="&#xee;" horiz-adv-x="548" d="M-113 1303l387 284l388 -284l-74 -101l-314 230l-313 -230zM184 0v1049h181v-1049h-181z" />
<glyph unicode="&#xef;" horiz-adv-x="548" d="M-70 1356q0 43 31 73.5t74 30.5t73.5 -30.5t30.5 -73.5t-30.5 -74t-73.5 -31t-74 31t-31 74zM184 0v1049h181v-1049h-181zM410 1356q0 43 30.5 73.5t73.5 30.5t73.5 -30.5t30.5 -73.5t-30.5 -74t-73.5 -31t-73.5 31t-30.5 74z" />
<glyph unicode="&#xf0;" horiz-adv-x="1417" d="M119 524.5q0 243.5 163.5 400t383.5 156.5q109 0 208 -45t158 -127q-86 342 -334 539l-161 -162l-88 88l141 142q-121 74 -256 120l45 156q197 -72 334 -154l153 154l86 -88l-133 -133q477 -377 477 -1047q0 -244 -166.5 -400.5t-420.5 -156.5q-256 0 -423 157 t-167 400.5zM305 524q0 -176 112.5 -288.5t289 -112.5t290 113.5t113.5 287.5t-115.5 288t-287.5 114q-174 0 -288 -114t-114 -288z" />
<glyph unicode="&#xf1;" horiz-adv-x="1282" d="M119 1343q133 219 315 220q125 0 256 -99q90 -72 174 -71q125 0 215 159l101 -88q-133 -219 -316 -219q-125 0 -256 98q-90 72 -174 72q-125 0 -215 -160zM184 0v1049h181v-138q49 80 140 125t183 45q195 0 310.5 -108.5t115.5 -302.5v-670h-180v621q0 147 -71.5 232 t-209.5 85q-125 0 -206.5 -82t-81.5 -186v-670h-181z" />
<glyph unicode="&#xf2;" horiz-adv-x="1382" d="M104 524.5q0 245.5 167 401t419 155.5t419 -155.5t167 -401t-167 -401.5t-419 -156t-419 156t-167 401.5zM289 524q0 -176 113.5 -288.5t287.5 -112.5t288 112.5t114 288.5t-114 289t-288 113t-287.5 -113t-113.5 -289zM446 1407l101 133l305 -248l-64 -90z" />
<glyph unicode="&#xf3;" horiz-adv-x="1382" d="M104 524.5q0 245.5 167 401t419 155.5t419 -155.5t167 -401t-167 -401.5t-419 -156t-419 156t-167 401.5zM289 524q0 -176 113.5 -288.5t287.5 -112.5t288 112.5t114 288.5t-114 289t-288 113t-287.5 -113t-113.5 -289zM528 1292l306 248l100 -133l-342 -205z" />
<glyph unicode="&#xf4;" horiz-adv-x="1382" d="M104 524.5q0 245.5 167 401t419 155.5t419 -155.5t167 -401t-167 -401.5t-419 -156t-419 156t-167 401.5zM289 524q0 -176 113.5 -288.5t287.5 -112.5t288 112.5t114 288.5t-114 289t-288 113t-287.5 -113t-113.5 -289zM303 1303l387 284l387 -284l-73 -101l-314 230 l-313 -230z" />
<glyph unicode="&#xf5;" horiz-adv-x="1382" d="M104 524.5q0 245.5 167 401t419 155.5t419 -155.5t167 -401t-167 -401.5t-419 -156t-419 156t-167 401.5zM160 1321q133 219 315 219q125 0 256 -98q90 -72 174 -72q125 0 215 160l101 -88q-133 -219 -316 -219q-125 0 -256 98q-90 72 -174 72q-125 0 -215 -160zM289 524 q0 -176 113.5 -288.5t287.5 -112.5t288 112.5t114 288.5t-114 289t-288 113t-287.5 -113t-113.5 -289z" />
<glyph unicode="&#xf6;" horiz-adv-x="1382" d="M104 524.5q0 245.5 167 401t419 155.5t419 -155.5t167 -401t-167 -401.5t-419 -156t-419 156t-167 401.5zM289 524q0 -176 113.5 -288.5t287.5 -112.5t288 112.5t114 288.5t-114 289t-288 113t-287.5 -113t-113.5 -289zM346 1432q0 43 31 73.5t74 30.5t73.5 -30.5 t30.5 -73.5t-30.5 -74t-73.5 -31t-74 31t-31 74zM825 1432q0 43 31 73.5t74 30.5t73.5 -30.5t30.5 -73.5t-30.5 -74t-73.5 -31t-74 31t-31 74z" />
<glyph unicode="&#xf7;" horiz-adv-x="1339" d="M145 772v156h1049v-156h-1049zM571 356q0 41 29 70t70 29t69.5 -29t28.5 -70t-28.5 -69.5t-69.5 -28.5t-70 28.5t-29 69.5zM571 1343.5q0 40.5 29 69.5t70 29t69.5 -29t28.5 -69.5t-28.5 -69.5t-69.5 -29t-70 29t-29 69.5z" />
<glyph unicode="&#xf8;" horiz-adv-x="1382" d="M14 37l195 158q-105 141 -105 329q0 246 167 401.5t419 155.5q256 0 420 -157l197 159l59 -71l-195 -158q104 -143 105 -330q0 -246 -167 -401.5t-419 -155.5q-254 0 -420 156l-196 -158zM289 524q0 -123 57 -219l629 510q-111 111 -285 111t-287.5 -113t-113.5 -289z M403 233q115 -111 287 -110q174 0 288 112.5t114 288.5q0 119 -60 217z" />
<glyph unicode="&#xf9;" horiz-adv-x="1257" d="M168 438v611h180v-576q0 -203 68.5 -279.5t212 -76.5t212 76.5t68.5 279.5v576h181v-611q0 -254 -112 -362.5t-349.5 -108.5t-349 108.5t-111.5 362.5zM385 1407l100 133l306 -248l-64 -90z" />
<glyph unicode="&#xfa;" horiz-adv-x="1257" d="M168 438v611h180v-576q0 -203 68.5 -279.5t212 -76.5t212 76.5t68.5 279.5v576h181v-611q0 -254 -112 -362.5t-349.5 -108.5t-349 108.5t-111.5 362.5zM467 1292l305 248l100 -133l-342 -205z" />
<glyph unicode="&#xfb;" horiz-adv-x="1257" d="M168 438v611h180v-576q0 -203 68.5 -279.5t212 -76.5t212 76.5t68.5 279.5v576h181v-611q0 -254 -112 -362.5t-349.5 -108.5t-349 108.5t-111.5 362.5zM242 1303l387 284l387 -284l-74 -101l-313 230l-314 -230z" />
<glyph unicode="&#xfc;" horiz-adv-x="1257" d="M168 438v611h180v-576q0 -203 68.5 -279.5t212 -76.5t212 76.5t68.5 279.5v576h181v-611q0 -254 -112 -362.5t-349.5 -108.5t-349 108.5t-111.5 362.5zM285 1348q0 43 30.5 73.5t73.5 30.5t74 -30.5t31 -73.5t-31 -74t-74 -31t-73.5 31t-30.5 74zM764 1348 q0 43 30.5 73.5t73.5 30.5t74 -30.5t31 -73.5t-31 -74t-74 -31t-73.5 31t-30.5 74z" />
<glyph unicode="&#xfd;" horiz-adv-x="1146" d="M-10 1049h207l397 -822l356 822h207l-737 -1581h-203l272 577zM432 1292l305 248l101 -133l-342 -205z" />
<glyph unicode="&#xfe;" horiz-adv-x="1413" d="M184 -532v2295h181v-915q63 109 172.5 171t246.5 62q225 0 375 -158.5t150 -398t-149.5 -398.5t-375.5 -159q-135 0 -245.5 64.5t-173.5 175.5v-739h-181zM358 524q0 -174 107.5 -287.5t273.5 -113.5t273.5 113.5t107.5 287.5q0 176 -108.5 289t-272.5 113 q-166 0 -273.5 -113t-107.5 -289z" />
<glyph unicode="&#xff;" horiz-adv-x="1146" d="M-10 1049h207l397 -822l356 822h207l-737 -1581h-203l272 577zM250 1348q0 43 30.5 73.5t73.5 30.5t74 -30.5t31 -73.5t-31 -74t-74 -31t-73.5 31t-30.5 74zM729 1348q0 43 31 73.5t74 30.5t73.5 -30.5t30.5 -73.5t-30.5 -74t-73.5 -31t-74 31t-31 74z" />
<glyph unicode="&#x152;" horiz-adv-x="1984" d="M104 844q0 258 128 453.5t335 294t457 98.5h838v-166h-680v-594h655v-166h-655v-598h680v-166h-910q-362 0 -605 241t-243 603zM307 844q0 -297 191.5 -485.5t494.5 -188.5v1350q-291 0 -488.5 -191.5t-197.5 -484.5z" />
<glyph unicode="&#x153;" horiz-adv-x="2289" d="M104 524q0 246 167 401.5t419 155.5q170 0 292 -74.5t185 -209.5q70 131 194 207.5t275 76.5q233 0 391 -155.5t158 -401.5v-20h-919q0 -174 114.5 -281.5t278.5 -107.5q231 0 360 182l133 -70q-160 -260 -503 -260q-160 0 -285 76t-195 207q-61 -133 -184 -208t-295 -75 q-256 0 -421 157t-165 400zM289 524q0 -176 112.5 -288.5t288.5 -112.5t289 112.5t113 288.5q0 174 -114 288t-288 114t-287.5 -114t-113.5 -288zM1270 616h739q-14 147 -118.5 242.5t-250.5 95.5q-150 0 -253 -96.5t-117 -241.5z" />
<glyph unicode="&#x178;" horiz-adv-x="1318" d="M-20 1690h227l452 -756l453 756h227l-585 -955v-735h-189v735zM315 2071q0 43 31 73.5t74 30.5t73.5 -30.5t30.5 -73.5t-30.5 -74t-73.5 -31t-74 31t-31 74zM795 2071q0 43 30.5 73.5t73.5 30.5t74 -30.5t31 -73.5t-31 -74t-74 -31t-73.5 31t-30.5 74z" />
<glyph unicode="&#x2c6;" horiz-adv-x="1089" d="M158 1436l387 284l387 -284l-74 -101l-313 230l-314 -230z" />
<glyph unicode="&#x2dc;" horiz-adv-x="1187" d="M63 1343q133 219 316 220q125 0 256 -99q90 -72 174 -71q125 0 215 159l100 -88q-133 -219 -315 -219q-125 0 -256 98q-90 72 -174 72q-125 0 -215 -160z" />
<glyph unicode="&#x2000;" horiz-adv-x="1180" />
<glyph unicode="&#x2001;" horiz-adv-x="2361" />
<glyph unicode="&#x2002;" horiz-adv-x="1180" />
<glyph unicode="&#x2003;" horiz-adv-x="2361" />
<glyph unicode="&#x2004;" horiz-adv-x="787" />
<glyph unicode="&#x2005;" horiz-adv-x="590" />
<glyph unicode="&#x2006;" horiz-adv-x="393" />
<glyph unicode="&#x2007;" horiz-adv-x="393" />
<glyph unicode="&#x2008;" horiz-adv-x="295" />
<glyph unicode="&#x2009;" horiz-adv-x="472" />
<glyph unicode="&#x200a;" horiz-adv-x="131" />
<glyph unicode="&#x2010;" horiz-adv-x="933" d="M137 516v154h660v-154h-660z" />
<glyph unicode="&#x2011;" horiz-adv-x="933" d="M137 516v154h660v-154h-660z" />
<glyph unicode="&#x2012;" horiz-adv-x="933" d="M137 516v154h660v-154h-660z" />
<glyph unicode="&#x2013;" horiz-adv-x="1181" d="M137 516v154h918v-154h-918z" />
<glyph unicode="&#x2014;" horiz-adv-x="2070" d="M137 516v154h1807v-154h-1807z" />
<glyph unicode="&#x2018;" horiz-adv-x="417" d="M88 1384q0 193 168 336l47 -37q-68 -92 -80 -192q41 -8 67.5 -38t26.5 -69q0 -47 -33.5 -81.5t-80.5 -34.5t-81 34.5t-34 81.5z" />
<glyph unicode="&#x2019;" horiz-adv-x="417" d="M100 1606q0 47 34 80.5t81 33.5t81 -33.5t34 -80.5q0 -197 -170 -338l-45 37q68 92 80 194q-41 6 -68 36t-27 71z" />
<glyph unicode="&#x201a;" horiz-adv-x="434" d="M119 90q0 47 33.5 82t78.5 35q47 0 82 -35t35 -82q0 -190 -170 -336l-45 37q70 109 78 193q-39 8 -65.5 37.5t-26.5 68.5z" />
<glyph unicode="&#x201c;" horiz-adv-x="729" d="M88 1384q0 193 168 336l47 -37q-68 -92 -80 -192q41 -8 67.5 -38t26.5 -69q0 -47 -33.5 -81.5t-80.5 -34.5t-81 34.5t-34 81.5zM399 1384q0 195 170 336l45 -37q-68 -92 -79 -192q41 -8 67.5 -38t26.5 -69q0 -47 -34 -81.5t-81 -34.5t-81 34.5t-34 81.5z" />
<glyph unicode="&#x201d;" horiz-adv-x="729" d="M88 1604q0 47 34 81.5t81 34.5t80.5 -34.5t33.5 -81.5q0 -195 -170 -336l-45 37q68 92 80 192q-41 8 -67.5 38t-26.5 69zM399 1604q0 47 34 81.5t81 34.5t81 -34.5t34 -81.5q0 -193 -168 -336l-47 37q68 92 80 192q-41 8 -68 38t-27 69z" />
<glyph unicode="&#x201e;" horiz-adv-x="720" d="M88 88q0 47 34 82t81 35t80.5 -35t33.5 -82q0 -195 -170 -336l-45 37q68 92 80 193q-41 8 -67.5 37.5t-26.5 68.5zM399 88q0 47 34 82t81 35t81 -35t34 -82q0 -193 -168 -336l-47 37q68 92 80 193q-41 8 -68 37.5t-27 68.5z" />
<glyph unicode="&#x2022;" horiz-adv-x="796" d="M201 731q0 82 58 139.5t138 57.5q82 0 140.5 -57.5t58.5 -139.5t-58.5 -139t-140.5 -57q-80 0 -138 57t-58 139z" />
<glyph unicode="&#x2026;" horiz-adv-x="1308" d="M119 90q0 51 35.5 87t87 36t87.5 -36t36 -87t-36 -87t-87.5 -36t-87 36t-35.5 87zM532 90q0 51 36 87t87.5 36t87 -36t35.5 -87t-35.5 -87t-87 -36t-87.5 36t-36 87zM946 90q0 51 36 87t87 36t87 -36t36 -87t-36 -87t-87 -36t-87 36t-36 87z" />
<glyph unicode="&#x202f;" horiz-adv-x="472" />
<glyph unicode="&#x2039;" horiz-adv-x="614" d="M39 569l399 512l105 -82l-336 -430l336 -430l-105 -82z" />
<glyph unicode="&#x203a;" horiz-adv-x="614" d="M72 139l336 430l-336 430l104 82l399 -512l-399 -512z" />
<glyph unicode="&#x205f;" horiz-adv-x="590" />
<glyph unicode="&#x20ac;" horiz-adv-x="1693" d="M20 612v117h154q-8 49 -8 117q0 61 8 110h-154v117h179q78 283 318.5 465t541.5 182q184 0 325.5 -51t221.5 -121l-88 -159q-70 61 -184.5 103t-250.5 42q-236 0 -416 -128t-245 -333h874v-117h-915q-10 -61 -10 -110q0 -55 10 -117h915v-117h-874q63 -205 239.5 -331.5 t421.5 -126.5q137 0 252 42t185 103l86 -160q-78 -70 -219.5 -120t-327.5 -50q-309 0 -546 179.5t-314 463.5h-179z" />
<glyph unicode="&#x2122;" horiz-adv-x="1036" d="M37 1636v54h371v-54h-156v-475h-59v475h-156zM418 1161l65 529h62l149 -398l152 398h61l68 -529h-62l-53 420l-143 -393h-41l-146 393l-53 -420h-59zM418 1161l65 529h64l149 -398l150 398h63l64 -529h-58l-53 420l-145 -393h-41l-146 393l-53 -420h-59z" />
<glyph unicode="&#x25fc;" horiz-adv-x="1044" d="M0 0v1044h1044v-1044h-1044z" />
<glyph unicode="&#xfb01;" horiz-adv-x="1099" d="M98 911v138h111v354q0 190 82 289.5t233 99.5q195 0 310 -143l-78 -115q-37 43 -95.5 71.5t-115.5 28.5q-80 0 -118 -54t-38 -175v-356h512v-1049h-180v911h-332v-911h-180v911h-111z" />
<glyph unicode="&#xfb02;" horiz-adv-x="1120" d="M98 911v138h111v354q0 190 82 289.5t225 99.5q102 0 184 -47l-53 -135q-45 25 -102 24q-82 0 -119 -53t-37 -176v-356h262v-138h-262v-911h-180v911h-111zM758 0v1761h178v-1761h-178z" />
<glyph unicode="&#xfb03;" horiz-adv-x="1644" d="M115 911v138h110v354q0 190 82 289.5t228 99.5q31 0 59.5 -5t52 -12.5t38.5 -14.5t29.5 -15t16.5 -8l-65 -127q-49 25 -105 24q-80 0 -117.5 -54t-37.5 -175v-356h350v354q0 190 82 289.5t233 99.5q195 0 309 -143l-77 -115q-37 43 -95.5 71.5t-115.5 28.5 q-80 0 -118 -54t-38 -175v-356h510v-1049h-180v911h-330v-911h-180v911h-350v-911h-181v911h-110z" />
<glyph unicode="&#xfb04;" horiz-adv-x="1669" d="M115 911v138h110v354q0 190 82 289.5t228 99.5q113 0 196 -55l-65 -129q-35 27 -105 26q-80 0 -117.5 -54t-37.5 -175v-356h350v354q0 190 82 289.5t225 99.5q106 0 180 -45l-49 -137q-39 25 -102 24q-82 0 -119 -53t-37 -176v-356h264v-138h-264v-911h-180v911h-350 v-911h-181v911h-110zM1305 0v1761h180v-1761h-180z" />
</font>
</defs>
</svg>
