<?xml version="1.0" standalone="no"?>
<!DOCTYPE svg PUBLIC "-//W3C//DTD SVG 1.1//EN" "http://www.w3.org/Graphics/SVG/1.1/DTD/svg11.dtd" >
<svg xmlns="http://www.w3.org/2000/svg" xmlns:xlink="http://www.w3.org/1999/xlink" version="1.1">
<metadata></metadata>
<defs>
<font id="spartan_mblight" horiz-adv-x="1427" >
<font-face units-per-em="2048" ascent="1638" descent="-410" />
<missing-glyph horiz-adv-x="522" />
<glyph horiz-adv-x="0" />
<glyph horiz-adv-x="682" />
<glyph horiz-adv-x="0" />
<glyph horiz-adv-x="0" />
<glyph unicode="&#xd;" horiz-adv-x="681" />
<glyph unicode=" "  horiz-adv-x="522" />
<glyph unicode="&#x09;" horiz-adv-x="522" />
<glyph unicode="&#xa0;" horiz-adv-x="522" />
<glyph unicode="!" horiz-adv-x="602" d="M215 53q0 35 25.5 60.5t60.5 25.5t60.5 -25.5t25.5 -60.5t-25.5 -60.5t-60.5 -25.5t-60.5 25.5t-25.5 60.5zM244 1761h114l-10 -1376h-94z" />
<glyph unicode="&#x22;" horiz-adv-x="522" d="M94 1696h131l-22 -381h-86zM297 1696h131l-22 -381h-87z" />
<glyph unicode="#" horiz-adv-x="1333" d="M141 428v82h197l61 436h-258v82h269l57 430h82l-60 -430h420l58 430h82l-60 -430h189v-82h-199l-61 -436h260v-82h-271l-57 -428h-80l57 428h-419l-58 -428h-80l58 428h-187zM418 510h420l61 436h-420z" />
<glyph unicode="$" horiz-adv-x="1325" d="M143 324l105 45q6 -35 30.5 -78t70.5 -93.5t130 -83t189 -32.5q172 0 280.5 90t108.5 262q0 145 -104.5 238.5t-340.5 171.5q-383 129 -383 428q0 186 124 312t306 136v252h82v-254q160 -14 258.5 -91t135.5 -177l-95 -41q-27 84 -119 141.5t-229 57.5 q-160 0 -253 -101.5t-93 -232.5q0 -123 91 -196.5t255 -127.5q248 -82 370 -201.5t122 -310.5q0 -205 -120 -327.5t-323 -139.5v-254h-82v250q-135 2 -237.5 41t-157.5 99.5t-82.5 112.5t-38.5 104z" />
<glyph unicode="%" horiz-adv-x="2060" d="M104 1317q0 176 119 289.5t297 113.5t297 -113.5t119 -289.5q0 -178 -118 -291t-298 -113t-298 113t-118 291zM188 1316.5q0 -145.5 93.5 -233.5t239 -88t238.5 88t93 233.5t-93 233.5t-238.5 88t-239 -88t-93.5 -233.5zM496 0l983 1690h88l-983 -1690h-88zM1126 371 q0 176 119 289.5t297 113.5t297 -113.5t119 -289.5q0 -178 -118 -291t-298 -113t-298 113t-118 291zM1210 370.5q0 -145.5 93.5 -233.5t239 -88t238.5 88t93 233.5t-93 233.5t-238.5 88t-239 -88t-93.5 -233.5z" />
<glyph unicode="&#x26;" horiz-adv-x="1544" d="M133 422q0 330 404 532q-78 76 -119 122t-80 125t-39 157q0 150 104.5 256t284.5 106q178 0 280.5 -109.5t102.5 -252.5q0 -80 -31.5 -148.5t-90 -121t-112 -86t-124.5 -68.5l485 -528q102 119 180 282l82 -61q-63 -162 -180 -305l291 -322h-152l-215 238 q-274 -270 -575 -271q-211 0 -353.5 123t-142.5 332zM260 428q0 -156 106.5 -252t270.5 -96q254 0 487 246l-518 557q-346 -168 -346 -455zM418 1358q0 -29 7 -58.5t14 -52t27.5 -51.5t30 -43t38 -44t36 -36t39.5 -37l33 -30q174 84 248 156.5t74 195.5q0 106 -74 187 t-203 81q-127 0 -198.5 -81t-71.5 -187z" />
<glyph unicode="'" horiz-adv-x="319" d="M94 1696h131l-22 -381h-86z" />
<glyph unicode="(" horiz-adv-x="663" d="M172 628.5q0 198.5 39 392t95 327t112.5 239t95.5 154.5l39 51l78 -33q-14 -18 -37 -54t-81 -152.5t-103 -240.5t-82 -311.5t-37 -372t34.5 -368.5t85 -315t100.5 -235.5t85 -155.5l35 -54l-78 -32q-16 18 -42 53t-91.5 150.5t-115.5 241.5t-91 321.5t-41 394z" />
<glyph unicode=")" horiz-adv-x="663" d="M33 -500q14 18 36.5 54t81 152t103.5 240t82 311t37 371.5t-35 370t-85 316.5t-100.5 235.5t-84.5 157.5l-35 51l78 33q16 -18 41.5 -53t91 -150.5t116 -242.5t91.5 -323t41 -394.5t-39 -392t-95.5 -326.5t-113 -237.5t-94.5 -155.5l-39 -49z" />
<glyph unicode="*" horiz-adv-x="520" d="M45 1585l16 53l170 -55v178h58v-178l170 55l16 -53l-170 -55l103 -146l-43 -32l-107 143l-102 -143l-45 32l102 146z" />
<glyph unicode="+" horiz-adv-x="1290" d="M121 799v102h473v473h102v-473h473v-102h-473v-473h-102v473h-473z" />
<glyph unicode="," horiz-adv-x="405" d="M117 53q0 35 25.5 60.5t60.5 25.5t60.5 -25.5t25.5 -60.5q0 -170 -129 -282l-29 24q53 88 59 176q-31 4 -52 26.5t-21 55.5z" />
<glyph unicode="-" horiz-adv-x="942" d="M141 543v100h660v-100h-660z" />
<glyph unicode="." horiz-adv-x="405" d="M117 53q0 35 25.5 60.5t60.5 25.5t60.5 -25.5t25.5 -60.5t-25.5 -60.5t-60.5 -25.5t-60.5 25.5t-25.5 60.5z" />
<glyph unicode="/" horiz-adv-x="958" d="M10 -246l844 2007h94l-844 -2007h-94z" />
<glyph unicode="0" horiz-adv-x="1691" d="M160 844q0 213 56 384t151.5 276.5t217.5 160.5t261 55t261 -55t217 -160.5t151.5 -276.5t56.5 -384t-56.5 -384t-151.5 -276.5t-217 -161t-261 -55.5t-261 55.5t-217.5 161t-151.5 276.5t-56 384zM279 843.5q0 -364.5 161.5 -565t405.5 -200.5t404.5 199.5t160.5 566 t-160.5 566.5t-404.5 200t-405.5 -201t-161.5 -565.5z" />
<glyph unicode="1" horiz-adv-x="552" d="M72 1569v121h266v-1690h-123v1569h-143z" />
<glyph unicode="2" horiz-adv-x="1521" d="M170 0v55q37 31 176 137.5t201.5 158.5t183.5 154.5t183.5 172.5t135 161t104.5 172t32 156q0 174 -122 306.5t-308 132.5q-193 0 -306.5 -118t-125.5 -292l-127 12q16 219 166.5 365.5t392.5 146.5q254 0 409.5 -164.5t155.5 -388.5q0 -76 -26.5 -153.5t-60.5 -142 t-112 -151.5t-130 -141.5t-169.5 -153.5t-180 -149.5t-206.5 -164.5h916v-111h-1182z" />
<glyph unicode="3" horiz-adv-x="1300" d="M102 408l113 22q16 -143 123.5 -244.5t292.5 -101.5q180 0 279.5 99.5t99.5 254.5q0 160 -112 270.5t-265 110.5l-60 -6v96h54q154 0 262 105.5t108 259.5q0 139 -101 239.5t-243 100.5q-143 0 -240.5 -96.5t-111.5 -239.5l-106 20q10 170 134 296t326 126 q193 0 327 -130t134 -316q0 -139 -77.5 -251t-200.5 -157q137 -37 219 -156.5t82 -271.5q0 -205 -135.5 -338t-372.5 -133q-129 0 -229.5 38t-162 103.5t-95 140.5t-42.5 159z" />
<glyph unicode="4" horiz-adv-x="1155" d="M-2 584v63l793 1043h122v-998h197v-108h-197v-584h-118v584h-797zM156 692h639v828z" />
<glyph unicode="5" horiz-adv-x="1419" d="M102 334l101 49q43 -125 170 -218t313 -93q231 0 359.5 125t128.5 329q0 231 -152 363.5t-377 132.5q-264 0 -461 -213l138 881h862v-109h-764l-86 -559q137 96 348 96q262 0 436 -156.5t174 -439.5q0 -248 -161.5 -401.5t-446.5 -153.5q-227 0 -376.5 109.5 t-205.5 257.5z" />
<glyph unicode="6" horiz-adv-x="1425" d="M123 539q0 242 170 452l588 699h151l-528 -629q111 63 227 63q236 0 404 -164.5t168 -420.5q0 -252 -170 -412t-420 -160q-254 0 -422 163t-168 409zM246 539q0 -203 130 -334t333 -131q205 0 338 132t133 333q0 207 -135.5 342t-335.5 135q-190 0 -326.5 -141 t-136.5 -336z" />
<glyph unicode="7" horiz-adv-x="1142" d="M115 0l858 1581h-848v109h1028v-43l-893 -1647h-145z" />
<glyph unicode="8" horiz-adv-x="1298" d="M137 446q0 162 84 281t225 170q-115 49 -180 152.5t-65 240.5q0 190 130 310t318.5 120t318.5 -119.5t130 -310.5q0 -137 -65.5 -240.5t-180.5 -152.5q141 -51 225 -170t84 -281q0 -209 -145.5 -344t-366.5 -135t-366.5 135.5t-145.5 343.5zM254 457q0 -166 112.5 -274.5 t282.5 -108.5t282.5 108.5t112.5 274.5t-114.5 274.5t-280.5 108.5t-280.5 -108.5t-114.5 -274.5zM301 1284q0 -150 99.5 -247t249 -97t248.5 97.5t99 246.5q0 160 -99 252t-248.5 92t-249 -92t-99.5 -252z" />
<glyph unicode="9" horiz-adv-x="1425" d="M123 1149q0 252 170 411.5t420 159.5q254 0 422 -162.5t168 -408.5q0 -242 -170 -453l-588 -696h-152l529 627q-111 -63 -228 -64q-236 0 -403.5 165t-167.5 421zM246 1149q0 -207 135 -342t336 -135q190 0 326.5 141t136.5 336q0 203 -130 334t-333 131 q-205 0 -338 -132t-133 -333z" />
<glyph unicode=":" horiz-adv-x="405" d="M117 53q0 35 25.5 60.5t60.5 25.5t60.5 -25.5t25.5 -60.5t-25.5 -60.5t-60.5 -25.5t-60.5 25.5t-25.5 60.5zM117 1048.5q0 34.5 25.5 60.5t60.5 26t60.5 -26t25.5 -60.5t-25.5 -60t-60.5 -25.5t-60.5 25.5t-25.5 60z" />
<glyph unicode=";" horiz-adv-x="405" d="M117 53q0 35 25.5 60.5t60.5 25.5t60.5 -25.5t25.5 -60.5q0 -170 -129 -282l-29 24q53 88 59 176q-31 4 -52 26.5t-21 55.5zM117 1048.5q0 34.5 25.5 60.5t60.5 26t60.5 -26t25.5 -60.5t-25.5 -60t-60.5 -25.5t-60.5 25.5t-25.5 60z" />
<glyph unicode="&#x3c;" horiz-adv-x="1253" d="M33 813v78l1120 536v-102l-993 -473l993 -473v-103z" />
<glyph unicode="=" horiz-adv-x="1253" d="M102 598v102h1049v-102h-1049zM102 997v103h1049v-103h-1049z" />
<glyph unicode="&#x3e;" horiz-adv-x="1253" d="M100 276v103l996 473l-996 473v102l1121 -536v-78z" />
<glyph unicode="?" horiz-adv-x="1185" d="M68 1229q6 217 142 354t365.5 137t372 -149.5t142.5 -351.5q0 -201 -132.5 -350.5t-367.5 -159.5v-295h-111v403q29 -6 76 -6q199 0 309.5 114.5t110.5 293.5q0 174 -108.5 282.5t-291.5 108.5q-184 0 -290.5 -107.5t-110.5 -285.5zM449 53q0 35 25.5 60.5t60 25.5 t60.5 -25.5t26 -60.5t-26 -60.5t-60.5 -25.5t-60 25.5t-25.5 60.5z" />
<glyph unicode="@" horiz-adv-x="1982" d="M131 844q0 373 254 624.5t612 251.5q356 0 606 -248.5t250 -615.5q0 -197 -64.5 -312.5t-186.5 -115.5q-160 0 -228 137q-61 -125 -174 -196.5t-256 -71.5q-213 0 -355.5 149.5t-142.5 378.5q0 231 142.5 381t355.5 150q141 0 254 -69.5t174 -190.5v229h94v-631 q0 -82 37 -128t107 -46q74 0 109.5 75t35.5 261q0 324 -220 545t-538 221q-313 0 -535 -226.5t-222 -551.5q0 -330 215 -552t542 -222q193 0 346.5 81.5t243.5 213.5l90 -54q-100 -147 -276 -245.5t-404 -98.5q-373 0 -619.5 251t-246.5 626zM553 825q0 -190 116.5 -312 t295.5 -122q180 0 295.5 122t115.5 312q0 193 -116.5 316t-295 123t-295 -123t-116.5 -316z" />
<glyph unicode="A" horiz-adv-x="1417" d="M-12 0l663 1690h115l664 -1690h-134l-217 567h-741l-217 -567h-133zM379 676h659l-329 854z" />
<glyph unicode="B" horiz-adv-x="1323" d="M215 0v1690h334q246 0 383 -110t137 -318q0 -281 -248 -383q190 -25 294 -135.5t104 -297.5q0 -207 -139.5 -326.5t-387.5 -119.5h-477zM338 102h328q205 0 317.5 90.5t112.5 256.5q0 172 -113 265t-317 93h-328v-705zM338 915h188q205 2 315.5 87t110.5 251 q0 164 -110.5 250t-315.5 88h-188v-676z" />
<glyph unicode="C" horiz-adv-x="1660" d="M131 843.5q0 370.5 253 623.5t632 253q315 0 547 -176l-62 -102q-194 157 -471 157h-4q-336 0 -549 -219t-213 -536.5t213 -536.5t549 -219q281 0 475 158l62 -103q-231 -176 -547 -176q-379 0 -632 253t-253 623.5z" />
<glyph unicode="D" horiz-adv-x="1562" d="M215 0v1690h365q352 0 602 -241t250 -603q0 -365 -249 -605.5t-603 -240.5h-365zM338 111h233q305 0 519.5 209.5t214.5 525.5q0 313 -215.5 523t-518.5 210h-233v-1468z" />
<glyph unicode="E" horiz-adv-x="1191" d="M215 0v1690h836v-109h-713v-680h688v-108h-688v-684h713v-109h-836z" />
<glyph unicode="F" horiz-adv-x="1191" d="M215 0v1690h838v-109h-715v-680h668v-108h-668v-793h-123z" />
<glyph unicode="G" horiz-adv-x="1857" d="M131 842q0 369 235.5 623.5t587.5 254.5q414 0 654 -288l-82 -89q-209 266 -568 267q-299 0 -503.5 -223.5t-204.5 -544.5q0 -313 210 -537.5t498 -224.5q262 0 457 161.5t195 415.5v64h-656v102h783v-129q0 -328 -227.5 -527.5t-555.5 -199.5q-342 0 -582.5 256.5 t-240.5 618.5z" />
<glyph unicode="H" horiz-adv-x="1650" d="M215 0v1690h123v-789h975v789h123v-1690h-123v793h-975v-793h-123z" />
<glyph unicode="I" horiz-adv-x="552" d="M215 0v1690h123v-1690h-123z" />
<glyph unicode="J" horiz-adv-x="1077" d="M-43 129l45 117q16 -18 47 -45t120 -72t173 -45q416 0 416 430v1176h123v-1215q0 -248 -136.5 -378t-392.5 -130q-106 0 -205.5 41t-144.5 82z" />
<glyph unicode="K" horiz-adv-x="1347" d="M215 0v1690h123v-822l792 822h150l-786 -816l864 -874h-170l-778 786l-72 -73v-713h-123z" />
<glyph unicode="L" horiz-adv-x="1130" d="M215 0v1690h123v-1581h725v-109h-848z" />
<glyph unicode="M" horiz-adv-x="1945" d="M98 0l230 1690h131l514 -1373l514 1373h131l229 -1690h-123l-202 1456l-500 -1343h-98l-500 1343l-203 -1456h-123z" />
<glyph unicode="N" horiz-adv-x="1617" d="M215 0v1690h123l942 -1479v1479h123v-1690h-123l-942 1477v-1477h-123z" />
<glyph unicode="O" horiz-adv-x="1966" d="M131 843.5q0 368.5 250 622.5t602 254t602 -254t250 -622.5t-250 -622.5t-602 -254t-602 254t-250 622.5zM262 843.5q0 -315.5 210 -536.5t511 -221t511 221t210 536.5t-210 537t-511 221.5t-511 -221.5t-210 -537z" />
<glyph unicode="P" horiz-adv-x="1292" d="M215 0v1690h414q248 0 390 -126t142 -345.5t-144.5 -354.5t-387.5 -135h-291v-729h-123zM338 834h266q199 0 316.5 105t117.5 277.5t-116.5 272.5t-317.5 100h-266v-755z" />
<glyph unicode="Q" horiz-adv-x="1966" d="M131 844q0 369 250 622.5t602 253.5t602 -254t250 -622q0 -188 -71.5 -354t-196.5 -287q150 -92 311 -148l-55 -110q-164 66 -344 184q-221 -162 -496 -162q-238 0 -434.5 119t-307 319.5t-110.5 438.5zM262 844q0 -322 201 -540t520 -218q215 0 389 119 q-164 121 -317 284l55 64q154 -154 346 -283q117 104 182.5 254t65.5 320q0 315 -209 536.5t-512 221.5t-512 -221.5t-209 -536.5z" />
<glyph unicode="R" horiz-adv-x="1308" d="M215 0v1690h414q248 0 390 -126t142 -345q0 -203 -125 -335t-344 -149l563 -735h-155l-551 729h-211v-729h-123zM338 834h266q199 0 316.5 105t117.5 277.5t-116.5 272.5t-317.5 100h-266v-755z" />
<glyph unicode="S" horiz-adv-x="1325" d="M143 324l105 45q31 -106 141.5 -196.5t278.5 -90.5q172 0 280.5 90t108.5 262q0 145 -104.5 238.5t-340.5 171.5q-383 129 -383 428q0 195 133.5 321.5t323.5 126.5q180 0 295 -79.5t154 -190.5l-95 -41q-27 84 -119 141.5t-229 57.5q-160 0 -253 -101.5t-93 -232.5 q0 -123 91 -196.5t255 -127.5q248 -82 370 -201.5t122 -310.5q0 -221 -140.5 -346t-369.5 -125q-119 0 -215.5 34t-157.5 89t-99 112.5t-59 121.5z" />
<glyph unicode="T" horiz-adv-x="1191" d="M2 1581v109h1188v-109h-533v-1581h-122v1581h-533z" />
<glyph unicode="U" horiz-adv-x="1544" d="M197 606v1084h122v-1061q0 -541 453 -541t453 541v1061h123v-1084q0 -313 -148.5 -476t-427 -163t-427 163t-148.5 476z" />
<glyph unicode="V" horiz-adv-x="1486" d="M-12 1690h139l616 -1506l617 1506h139l-708 -1690h-95z" />
<glyph unicode="W" horiz-adv-x="2269" d="M-12 1690h137l440 -1534l522 1534h95l522 -1534l440 1534h137l-505 -1690h-140l-501 1446l-502 -1446h-139z" />
<glyph unicode="X" horiz-adv-x="1421" d="M-12 0l647 913l-549 777h150l475 -672l475 672h149l-549 -777l648 -913h-154l-569 805l-570 -805h-153z" />
<glyph unicode="Y" horiz-adv-x="1249" d="M-12 1690h149l488 -828l487 828h150l-576 -961v-729h-123v729z" />
<glyph unicode="Z" horiz-adv-x="1546" d="M88 0l1143 1577h-1026v113h1251l-1141 -1577h1086v-113h-1313z" />
<glyph unicode="[" horiz-adv-x="606" d="M215 -532v2293h397v-94h-288v-2105h288v-94h-397z" />
<glyph unicode="\" horiz-adv-x="958" d="M10 1761h94l844 -1761h-94z" />
<glyph unicode="]" horiz-adv-x="606" d="M-4 -438h289v2105h-289v94h397v-2293h-397v94z" />
<glyph unicode="^" horiz-adv-x="905" d="M-2 1239l424 481h61l424 -481h-106l-348 401l-351 -401h-104z" />
<glyph unicode="_" horiz-adv-x="1050" d="M0 -137h1051v-68h-1051v68z" />
<glyph unicode="`" horiz-adv-x="567" d="M115 1622l71 98l269 -211l-47 -65z" />
<glyph unicode="a" d="M135 524.5q0 241.5 148.5 399t373.5 157.5q145 0 263 -71.5t182 -196.5v236h119v-1049h-119v238q-63 -125 -181 -198t-264 -73q-225 0 -373.5 158t-148.5 399.5zM256 524.5q0 -198.5 120 -325.5t306 -127t306 127t120 325.5t-121 325.5t-305 127t-305 -127t-121 -325.5z " />
<glyph unicode="b" d="M207 0v1761h119v-948q63 125 181 196.5t263 71.5q225 0 373.5 -157.5t148.5 -399t-148.5 -399.5t-373.5 -158q-145 0 -263 73t-181 198v-238h-119zM319 524.5q0 -198.5 120 -325.5t306.5 -127t306 127t119.5 325.5t-120.5 325.5t-305 127t-305.5 -127t-121 -325.5z" />
<glyph unicode="c" horiz-adv-x="1175" d="M123 524.5q0 239.5 163 398t400 158.5q219 0 361 -118l-58 -84q-115 100 -293 100q-197 0 -325.5 -129t-128.5 -325.5t129 -325.5t325 -129q178 0 293 100l58 -84q-141 -119 -361 -119q-238 0 -400.5 159t-162.5 398.5z" />
<glyph unicode="d" d="M135 524.5q0 241.5 148.5 399t373.5 157.5q145 0 263 -71.5t182 -196.5v948h119v-1761h-119v238q-63 -125 -181 -198t-264 -73q-225 0 -373.5 158t-148.5 399.5zM256 524.5q0 -198.5 120 -325.5t306 -127t306 127t120 325.5t-121 325.5t-305 127t-305 -127t-121 -325.5z " />
<glyph unicode="e" horiz-adv-x="1335" d="M123 524q0 231 160.5 394t386.5 163q227 0 384.5 -158.5t157.5 -396.5v-12h-972q0 -197 129 -319.5t321 -122.5q262 0 395 198l89 -49q-76 -123 -203 -188.5t-285 -65.5q-240 0 -401.5 157.5t-161.5 399.5zM244 596h852q-16 168 -136 274.5t-288 106.5 q-172 0 -293 -107.5t-135 -273.5z" />
<glyph unicode="f" horiz-adv-x="608" d="M119 958v91h100v397q0 176 73 261t200 85q113 0 182 -57l-41 -84q-49 37 -125 37q-86 0 -128 -55.5t-42 -180.5v-403h270v-91h-270v-958h-119v958h-100z" />
<glyph unicode="g" horiz-adv-x="1437" d="M135 -258l103 45q49 -109 162.5 -179.5t267.5 -70.5q205 0 324.5 117t119.5 307v277q-63 -125 -181 -198t-263 -73q-225 0 -374 158t-149 399.5t148.5 399t374.5 157.5q145 0 263 -71.5t181 -196.5v236h119v-1078q0 -254 -146.5 -394t-416.5 -140q-393 0 -533 305z M266 524.5q0 -198.5 120 -325.5t306.5 -127t306 127t119.5 325.5t-120.5 325.5t-305 127t-305.5 -127t-121 -325.5z" />
<glyph unicode="h" horiz-adv-x="1255" d="M205 0v1761h119v-860q43 88 138 134t191 46q201 0 306.5 -111.5t105.5 -305.5v-664h-117v629q0 170 -78.5 262t-234.5 92q-137 0 -224 -89t-87 -200v-694h-119z" />
<glyph unicode="i" horiz-adv-x="546" d="M195 1341.5q0 34.5 25.5 60t60 25.5t60.5 -25.5t26 -60t-26 -60.5t-60.5 -26t-60 26t-25.5 60.5zM221 0v1049h119v-1049h-119z" />
<glyph unicode="j" horiz-adv-x="516" d="M-121 -512l35 94q45 -41 125 -41q168 0 168 223v1285h119v-1289q0 -323 -265 -323h-2q-113 0 -180 51zM180 1341.5q0 34.5 25.5 60t60.5 25.5t60.5 -25.5t25.5 -60t-25.5 -60.5t-60.5 -26t-60.5 26t-25.5 60.5z" />
<glyph unicode="k" horiz-adv-x="956" d="M207 0v1761h119v-1134l360 422h150l-344 -398l507 -651h-147l-436 563l-90 -102v-461h-119z" />
<glyph unicode="l" horiz-adv-x="532" d="M207 0v1761h119v-1761h-119z" />
<glyph unicode="m" horiz-adv-x="1984" d="M207 0v1049h119v-148q51 84 144 132t185 48q289 0 373 -225q55 98 151.5 161.5t211.5 63.5q203 0 303 -110.5t100 -306.5v-664h-119v629q0 166 -78.5 260t-232.5 94q-125 0 -215 -88t-90 -168v-727h-119v629q0 166 -79 260t-232 94q-125 0 -214 -89t-89 -169v-725h-119z " />
<glyph unicode="n" horiz-adv-x="1257" d="M207 0v1049h119v-148q43 88 138 134t191 46q201 0 306.5 -111.5t105.5 -305.5v-664h-117v629q0 170 -78.5 262t-234.5 92q-137 0 -224 -89t-87 -200v-694h-119z" />
<glyph unicode="o" horiz-adv-x="1392" d="M123 524.5q0 243.5 164 400t409.5 156.5t409.5 -156.5t164 -400t-164 -400.5t-409.5 -157t-409.5 157t-164 400.5zM242 524.5q0 -196.5 129 -324.5t325.5 -128t325.5 128t129 324.5t-129 324.5t-325.5 128t-325.5 -128t-129 -324.5z" />
<glyph unicode="p" d="M207 -532v1581h119v-236q63 125 181 196.5t263 71.5q225 0 373.5 -157.5t148.5 -399t-148.5 -399.5t-373.5 -158q-145 0 -263 73t-181 198v-770h-119zM319 524.5q0 -198.5 120 -325.5t306.5 -127t306 127t119.5 325.5t-120.5 325.5t-305 127t-305.5 -127t-121 -325.5z " />
<glyph unicode="q" d="M135 524.5q0 241.5 148.5 399t373.5 157.5q145 0 263 -71.5t182 -196.5v236h119v-1581h-119v770q-63 -125 -181 -198t-264 -73q-225 0 -373.5 158t-148.5 399.5zM256 524.5q0 -198.5 120 -325.5t306 -127t306 127t120 325.5t-121 325.5t-305 127t-305 -127t-121 -325.5z " />
<glyph unicode="r" horiz-adv-x="800" d="M207 0v1049h119v-156q39 86 120.5 137t180.5 51q113 0 178 -32l-49 -101q-53 29 -150 29q-129 0 -204.5 -92t-75.5 -172v-713h-119z" />
<glyph unicode="s" horiz-adv-x="970" d="M102 219l95 57q37 -92 113.5 -146t174.5 -54q123 0 194 58.5t71 152.5q0 164 -285 248q-270 80 -270 276q0 117 87.5 193.5t241.5 76.5q100 0 180 -56t105 -124l-90 -39q-27 53 -78 87t-117 34q-109 0 -165 -51t-56 -117q0 -70 56.5 -115t177.5 -84q323 -96 323 -326 q0 -157 -107.5 -240t-267.5 -83q-139 0 -241.5 71t-141.5 181z" />
<glyph unicode="t" horiz-adv-x="645" d="M119 958v91h102v391h119v-391h266v-91h-266v-688q0 -102 26.5 -146t100.5 -44q29 0 58.5 9t43.5 20l15 10l30 -107q-57 -45 -163 -45q-133 0 -181.5 80t-48.5 209v702h-102z" />
<glyph unicode="u" horiz-adv-x="1232" d="M190 430v619h119v-600q0 -219 76 -299t231.5 -80t231.5 79.5t76 299.5v600h118v-619q0 -252 -103 -357.5t-322.5 -105.5t-323 105.5t-103.5 357.5z" />
<glyph unicode="v" horiz-adv-x="1081" d="M0 1049h139l402 -873l401 873h139l-501 -1049h-78z" />
<glyph unicode="w" horiz-adv-x="1839" d="M0 1049h135l404 -873l342 873h77l342 -873l404 873h135l-502 -1049h-77l-340 856l-340 -856h-78z" />
<glyph unicode="x" horiz-adv-x="1101" d="M31 0l442 539l-383 510h135l326 -428l326 428h135l-383 -510l442 -539h-139l-381 467l-381 -467h-139z" />
<glyph unicode="y" horiz-adv-x="1095" d="M0 1049h135l432 -918l394 918h135l-707 -1581h-133l244 538z" />
<glyph unicode="z" horiz-adv-x="1155" d="M59 0l811 948h-733v101h959l-813 -949h792v-100h-1016z" />
<glyph unicode="{" horiz-adv-x="608" d="M160 575v78q84 0 84 97v641q0 70 14 130t49 117.5t101.5 90t160.5 32.5h64v-98h-41q-240 0 -240 -279v-663q0 -80 -49 -107q49 -27 49 -106v-664q0 -279 240 -278h41v-98h-64q-94 0 -160.5 32.5t-101.5 90t-49 118t-14 129.5v641q0 96 -84 96z" />
<glyph unicode="|" horiz-adv-x="538" d="M215 0v1761h109v-1761h-109z" />
<glyph unicode="}" horiz-adv-x="608" d="M-25 -434h41q240 0 240 278v664q0 80 49 106q-49 27 -49 107v663q0 279 -240 279h-41v98h64q94 0 160.5 -32.5t101.5 -90t49.5 -118t14.5 -129.5v-641q0 -96 84 -97v-78q-84 0 -84 -96v-641q0 -70 -14.5 -130t-49.5 -117.5t-101.5 -90t-160.5 -32.5h-64v98z" />
<glyph unicode="~" horiz-adv-x="1302" d="M145 786q43 74 120 135.5t177 61.5q119 0 238 -92q92 -74 188 -74q127 0 222 160l67 -62q-43 -74 -119.5 -135t-177.5 -61q-118 0 -237 92q-92 74 -189 74q-127 0 -221 -160z" />
<glyph unicode="&#xa1;" horiz-adv-x="602" d="M215 1173.5q0 34.5 25.5 60.5t60.5 26t60.5 -26t25.5 -60.5t-25.5 -60.5t-60.5 -26t-60.5 26t-25.5 60.5zM244 -532l10 1374h94l10 -1374h-114z" />
<glyph unicode="&#xa2;" horiz-adv-x="1173" d="M123 524q0 215 132 366.5t337 182.5v230h80v-222h14q219 0 361 -118l-58 -84q-115 100 -293 100q-197 0 -325.5 -129t-128.5 -325.5t129 -325.5t325 -129q178 0 293 100l58 -84q-123 -104 -324 -117v-233h-84v233q-221 16 -368.5 172t-147.5 383z" />
<glyph unicode="&#xa3;" horiz-adv-x="1554" d="M143 645v78h295q-53 78 -81.5 128t-53 137t-24.5 188q0 233 152.5 388.5t389.5 155.5q133 0 239.5 -42t171 -110.5t101.5 -137t51 -138.5l-106 -39q-12 63 -42 122t-82 117t-138 94t-195 36q-188 0 -306 -128t-118 -318q0 -66 8.5 -121.5t30 -107.5t32.5 -76.5t46 -81 t41 -66.5h524v-78h-487q39 -88 39 -176q0 -119 -49 -236q70 0 154.5 -40.5t179 -80.5t186.5 -40q115 0 186.5 84t79.5 176l100 -49q-16 -113 -115.5 -213.5t-242.5 -100.5q-113 0 -217.5 45t-196.5 90.5t-174 45.5q-98 0 -160.5 -45.5t-82.5 -104.5h-78q16 82 96 156.5 t192 81.5q45 106 46 227q0 92 -54 180h-338z" />
<glyph unicode="&#xa5;" horiz-adv-x="1288" d="M8 1690h148l487 -828l487 828h150l-539 -904h365v-92h-399v-262h399v-92h-399v-340h-125v340h-400v92h400v262h-400v92h365z" />
<glyph unicode="&#xa6;" horiz-adv-x="538" d="M215 0v680h109v-680h-109zM215 1081v680h109v-680h-109z" />
<glyph unicode="&#xa7;" horiz-adv-x="1310" d="M119 -193l102 33q8 -41 35 -88t76 -97t133 -83t188 -33q174 0 285 91t111 251q0 143 -106.5 237.5t-338.5 170.5q-205 68 -302 161t-97 222q2 100 58 179t136 112q-182 121 -182 325q0 186 127 309t326 123q174 0 278.5 -83t143.5 -189l-95 -37q-27 86 -113.5 146.5 t-213.5 60.5q-152 0 -242 -98.5t-90 -227.5q0 -125 96 -203.5t273 -138.5q248 -82 362.5 -181t114.5 -243q0 -90 -61.5 -170t-141.5 -112q190 -135 190 -359q0 -197 -139 -322.5t-379 -125.5q-141 0 -250.5 44t-166 109.5t-84 119.5t-33.5 97zM307 684q2 -102 90 -166.5 t254 -120.5q154 -47 250 -106q70 20 124 83.5t54 137.5q-2 111 -106.5 188.5t-329.5 149.5q-88 29 -164 65q-68 -20 -119 -84.5t-53 -146.5z" />
<glyph unicode="&#xa8;" horiz-adv-x="933" d="M150 1431.5q0 32.5 22.5 55t55 22.5t55 -22.5t22.5 -55t-22.5 -55t-55 -22.5t-55 22.5t-22.5 55zM629 1431.5q0 32.5 22.5 55t55 22.5t55 -22.5t22.5 -55t-22.5 -55t-55 -22.5t-55 22.5t-22.5 55z" />
<glyph unicode="&#xa9;" horiz-adv-x="1974" d="M131 844q0 369 251 622.5t605 253.5q356 0 606 -254t250 -622q0 -371 -245.5 -624t-610.5 -253q-369 0 -612.5 253t-243.5 624zM227 844q0 -332 216 -558.5t544 -226.5q324 0 542 226.5t218 558.5q0 330 -222 557t-538 227q-313 0 -536.5 -228t-223.5 -556zM455 841.5 q0 229.5 155.5 381t382.5 151.5q211 0 344 -114l-53 -80q-111 96 -280 96q-188 0 -311.5 -124t-123.5 -310.5t123 -310t312 -123.5q166 0 280 96l53 -80q-131 -113 -344 -113q-227 0 -382.5 150.5t-155.5 380z" />
<glyph unicode="&#xaa;" horiz-adv-x="933" d="M123 1376.5q0 149.5 91 246.5t230 97q90 0 163 -44t112 -122v146h74v-647h-74v147q-39 -78 -111.5 -123t-163.5 -45q-139 0 -230 97.5t-91 247zM197 1376q0 -123 73.5 -200.5t188 -77.5t189.5 77.5t75 200.5t-75 202t-189.5 79t-188 -79t-73.5 -202z" />
<glyph unicode="&#xab;" horiz-adv-x="1075" d="M31 569l399 512l76 -59l-354 -453l354 -452l-76 -60zM543 569l399 512l76 -59l-354 -453l354 -452l-76 -60z" />
<glyph unicode="&#xad;" horiz-adv-x="942" d="M141 543v100h660v-100h-660z" />
<glyph unicode="&#xae;" horiz-adv-x="1054" d="M68 1260q0 190 134 325t322 135q193 0 327 -135t134 -325q0 -188 -134 -322.5t-327 -134.5q-188 0 -322 134.5t-134 322.5zM117 1260q0 -168 119.5 -289t287.5 -121q172 0 293 120t121 290t-121 291.5t-293 121.5q-168 0 -287.5 -121.5t-119.5 -291.5zM365 963v602h147 q88 0 139 -45t51 -123q0 -74 -44 -120t-123 -52l200 -262h-55l-197 260h-73v-260h-45zM410 1260h94q70 0 112.5 37.5t42.5 99t-42 97.5t-113 36h-94v-270z" />
<glyph unicode="&#xaf;" horiz-adv-x="1122" d="M143 1378v88h836v-88h-836z" />
<glyph unicode="&#xb0;" horiz-adv-x="585" d="M80 1581q0 92 61.5 151.5t151.5 59.5t151.5 -59.5t61.5 -151.5t-61.5 -151.5t-151.5 -59.5t-151.5 59.5t-61.5 151.5zM150 1581.5q0 -63.5 40.5 -105.5t102 -42t102.5 42t41 105.5t-41 105.5t-102.5 42t-102 -42t-40.5 -105.5z" />
<glyph unicode="&#xb1;" horiz-adv-x="1355" d="M154 0v102h1048v-102h-1048zM154 807v102h473v465h102v-465h473v-102h-473v-465h-102v465h-473z" />
<glyph unicode="&#xb2;" horiz-adv-x="565" d="M61 1051v22q14 12 68.5 53t79 61.5t72 60.5t72 66.5t53 62.5t41 68t12.5 60q0 68 -48.5 119t-119.5 51q-76 0 -120 -45t-48 -114l-51 6q6 84 65.5 141t153.5 57q98 0 159.5 -63.5t61.5 -151.5q0 -49 -22.5 -97t-83 -107.5t-102.5 -94.5t-138 -112h356v-43h-461z" />
<glyph unicode="&#xb3;" horiz-adv-x="501" d="M53 1219l43 8q6 -55 47 -93t111 -38t107.5 36.5t37.5 98t-43 103.5t-100 42l-23 -2v37h21q57 0 99 40t42 99q0 53 -39 91t-92 38q-55 0 -92 -35.5t-43 -93.5l-41 9q4 66 51 113.5t125 47.5q74 0 125 -49t51 -121q0 -53 -29.5 -96t-76.5 -59q51 -14 83 -60.5t32 -103.5 q0 -80 -51.5 -130t-143.5 -50q-94 0 -144.5 50t-56.5 118z" />
<glyph unicode="&#xb4;" horiz-adv-x="638" d="M150 1509l268 211l71 -98l-292 -178z" />
<glyph unicode="&#xb5;" horiz-adv-x="1294" d="M188 -328q0 174 19.5 403.5t19.5 375.5v598h117v-629q0 -170 79 -262t234 -92q137 0 224.5 89t87.5 199v695h118v-1049h-118v147q-43 -88 -138.5 -134t-191.5 -46q-207 0 -295 135v-430h-156z" />
<glyph unicode="&#xb6;" horiz-adv-x="1308" d="M131 1219q0 213 139.5 342t382.5 129h441v-1690h-88v1608h-66v-1608h-88v729h-199q-242 0 -382 138.5t-140 351.5z" />
<glyph unicode="&#xb7;" horiz-adv-x="405" d="M117 551q0 35 25.5 60.5t60.5 25.5t60.5 -25.5t25.5 -60.5t-25.5 -60.5t-60.5 -25.5t-60.5 25.5t-25.5 60.5z" />
<glyph unicode="&#xb8;" horiz-adv-x="819" d="M164 -449l65 41q27 -49 82.5 -81.5t127 -32.5t123.5 38t52 107q0 68 -44 110t-111 42q-88 0 -152 -41l-8 6l100 307l70 -22l-63 -193q49 8 79 8q92 -4 152.5 -63.5t60.5 -153.5q0 -98 -71.5 -161.5t-188.5 -63.5q-96 0 -168.5 45t-105.5 108z" />
<glyph unicode="&#xb9;" horiz-adv-x="239" d="M59 1645v45h101v-639h-47v594h-54z" />
<glyph unicode="&#xba;" horiz-adv-x="940" d="M80 1374.5q0 149.5 113.5 247.5t279.5 98t279.5 -98t113.5 -247.5t-113.5 -248t-279.5 -98.5t-279.5 98.5t-113.5 248zM172 1374.5q0 -112.5 86 -188.5t215 -76t215 76t86 188.5t-86 188t-215 75.5t-215 -75.5t-86 -188z" />
<glyph unicode="&#xbb;" horiz-adv-x="1075" d="M57 117l355 452l-355 453l76 59l399 -512l-399 -512zM569 117l355 452l-355 453l76 59l399 -512l-399 -512z" />
<glyph unicode="&#xbc;" horiz-adv-x="1468" d="M96 0l983 1690h88l-983 -1690h-88zM137 1620v70h154v-981h-70v911h-84zM735 340v37l463 606h72v-580h112v-63h-112v-340h-70v340h-465zM827 403h373v482z" />
<glyph unicode="&#xbd;" horiz-adv-x="1849" d="M98 0l983 1690h88l-983 -1690h-88zM137 1620v70h154v-981h-70v911h-84zM954 0v31q25 20 100.5 79.5t114.5 91t106.5 89t104.5 98.5t78 92t59.5 98.5t18.5 90.5q0 100 -69.5 176t-176.5 76q-111 0 -176 -68t-72 -168l-73 8q10 125 97 209t224 84q145 0 234.5 -94 t89.5 -223q0 -74 -35 -145.5t-119 -155.5t-151.5 -141.5t-202.5 -164.5h526v-63h-678z" />
<glyph unicode="&#xbe;" horiz-adv-x="1820" d="M74 952l65 13q8 -82 69.5 -139.5t166.5 -57.5q100 0 157.5 56.5t57.5 144.5q0 90 -63.5 153.5t-151.5 63.5l-33 -4v55h31q86 0 147.5 59.5t61.5 145.5q0 80 -57.5 136t-137.5 56q-82 0 -137 -53t-64 -135l-59 10q4 96 75.5 168t186.5 72q109 0 184.5 -74t75.5 -180 q0 -80 -44 -142.5t-113 -87.5q78 -20 124 -88.5t46 -154.5q0 -117 -76 -192t-211 -75q-141 0 -215 73t-86 177zM449 0l983 1690h88l-983 -1690h-88zM1087 340v37l463 606h72v-580h113v-63h-113v-340h-70v340h-465zM1180 403h372v482z" />
<glyph unicode="&#xbf;" horiz-adv-x="1185" d="M96 -61q0 201 132 350t368 160v294h111v-403q-27 6 -76 6q-199 0 -309.5 -114.5t-110.5 -292.5q0 -174 108.5 -283t290.5 -109q184 0 291 108t111 286l106 -13q-6 -217 -142 -354t-365.5 -137t-372 149.5t-142.5 352.5zM565 1104q0 35 25.5 60.5t60.5 25.5t60.5 -25.5 t25.5 -60.5t-25.5 -60.5t-60.5 -25.5t-60.5 25.5t-25.5 60.5z" />
<glyph unicode="&#xc0;" horiz-adv-x="1417" d="M-12 0l663 1690h115l664 -1690h-134l-217 567h-741l-217 -567h-133zM379 676h659l-329 854zM416 2019l71 99l269 -211l-47 -66z" />
<glyph unicode="&#xc1;" horiz-adv-x="1417" d="M-12 0l663 1690h115l664 -1690h-134l-217 567h-741l-217 -567h-133zM379 676h659l-329 854zM662 1909l268 211l71 -99l-292 -178z" />
<glyph unicode="&#xc2;" horiz-adv-x="1417" d="M-12 0l663 1690h115l664 -1690h-134l-217 567h-741l-217 -567h-133zM344 1913l365 268l364 -268l-53 -72l-311 230l-314 -230zM379 676h659l-329 854z" />
<glyph unicode="&#xc3;" horiz-adv-x="1417" d="M-12 0l663 1690h115l664 -1690h-134l-217 567h-741l-217 -567h-133zM203 2060q43 74 119.5 135.5t177.5 61.5q119 0 237 -92q92 -74 189 -74q127 0 221 160l67 -62q-43 -74 -119.5 -135t-176.5 -61q-119 0 -238 92q-92 74 -188 74q-127 0 -222 -160zM379 676h659 l-329 854z" />
<glyph unicode="&#xc4;" horiz-adv-x="1417" d="M-12 0l663 1690h115l664 -1690h-134l-217 567h-741l-217 -567h-133zM379 676h659l-329 854zM391 2070.5q0 32.5 22.5 55t55.5 22.5t55.5 -22.5t22.5 -55t-22.5 -55t-55.5 -22.5t-55.5 22.5t-22.5 55zM870 2070.5q0 32.5 22.5 55t55.5 22.5t55.5 -22.5t22.5 -55t-22.5 -55 t-55.5 -22.5t-55.5 22.5t-22.5 55z" />
<glyph unicode="&#xc5;" horiz-adv-x="1417" d="M-12 0l663 1690h115l664 -1690h-134l-217 567h-741l-217 -567h-133zM379 676h659l-329 854zM483 2138q0 90 62.5 144.5t163 54.5t163 -54.5t62.5 -144.5t-62.5 -144.5t-163 -54.5t-163 54.5t-62.5 144.5zM567 2138q0 -55 40 -90t101.5 -35t101.5 35t40 90t-40 90 t-101.5 35t-101.5 -35t-40 -90z" />
<glyph unicode="&#xc6;" horiz-adv-x="1685" d="M-12 0l663 1690h893v-109h-713v-680h689v-108h-689v-684h713v-109h-835v567h-371l-217 -567h-133zM379 676h330v854z" />
<glyph unicode="&#xc7;" horiz-adv-x="1660" d="M131 844q0 371 253 623.5t632 252.5q315 0 547 -176l-62 -102q-195 158 -475 157q-336 0 -549 -219t-213 -536.5t213 -536.5t549 -219q281 0 475 158l62 -103q-231 -176 -547 -176l-23 2l-45 -137q49 8 80 8q92 -4 152.5 -63.5t60.5 -153.5q0 -98 -71.5 -161.5 t-188.5 -63.5q-96 0 -169 45t-105 108l65 41q27 -49 82 -81.5t127 -32.5t124 38t52 107q0 68 -44 110t-112 42q-88 0 -151 -41l-8 6l76 233q-344 33 -565.5 280t-221.5 591z" />
<glyph unicode="&#xc8;" horiz-adv-x="1191" d="M215 0v1690h836v-109h-713v-680h688v-108h-688v-684h713v-109h-836zM401 2019l72 99l268 -211l-47 -66z" />
<glyph unicode="&#xc9;" horiz-adv-x="1191" d="M215 0v1690h836v-109h-713v-680h688v-108h-688v-684h713v-109h-836zM524 1909l269 211l71 -99l-293 -178z" />
<glyph unicode="&#xca;" horiz-adv-x="1191" d="M215 0v1690h836v-109h-713v-680h688v-108h-688v-684h713v-109h-836zM266 1913l365 268l364 -268l-53 -72l-311 230l-314 -230z" />
<glyph unicode="&#xcb;" horiz-adv-x="1191" d="M215 0v1690h836v-109h-713v-680h688v-108h-688v-684h713v-109h-836zM315 2070.5q0 32.5 22.5 55t55.5 22.5t55.5 -22.5t22.5 -55t-22.5 -55t-55.5 -22.5t-55.5 22.5t-22.5 55zM795 2070.5q0 32.5 22.5 55t55 22.5t55 -22.5t22.5 -55t-22.5 -55t-55 -22.5t-55 22.5 t-22.5 55z" />
<glyph unicode="&#xcc;" horiz-adv-x="552" d="M-16 2019l71 99l269 -211l-48 -66zM215 0v1690h123v-1690h-123z" />
<glyph unicode="&#xcd;" horiz-adv-x="552" d="M215 0v1690h123v-1690h-123zM229 1909l269 211l71 -99l-293 -178z" />
<glyph unicode="&#xce;" horiz-adv-x="552" d="M-88 1913l364 268l365 -268l-53 -72l-312 230l-313 -230zM215 0v1690h123v-1690h-123z" />
<glyph unicode="&#xcf;" horiz-adv-x="552" d="M-41 2070.5q0 32.5 22.5 55t55.5 22.5t55.5 -22.5t22.5 -55t-22.5 -55t-55.5 -22.5t-55.5 22.5t-22.5 55zM215 0v1690h123v-1690h-123zM438 2070.5q0 32.5 22.5 55t55.5 22.5t55.5 -22.5t22.5 -55t-22.5 -55t-55.5 -22.5t-55.5 22.5t-22.5 55z" />
<glyph unicode="&#xd0;" horiz-adv-x="1562" d="M49 795v100h166v795h365q352 0 602 -241t250 -603q0 -365 -249 -605.5t-603 -240.5h-365v795h-166zM338 111h233q305 0 519.5 209.5t214.5 525.5q0 313 -215.5 523t-518.5 210h-233v-684h487v-100h-487v-684z" />
<glyph unicode="&#xd1;" horiz-adv-x="1617" d="M215 0v1690h123l942 -1479v1479h123v-1690h-123l-942 1477v-1477h-123zM303 2062q43 74 120 135.5t177 61.5q119 0 238 -92q92 -74 188 -74q127 0 221 160l68 -62q-43 -74 -120 -135t-177 -61q-119 0 -238 92q-92 74 -188 74q-127 0 -221 -160z" />
<glyph unicode="&#xd2;" horiz-adv-x="1966" d="M131 843.5q0 368.5 250 622.5t602 254t602 -254t250 -622.5t-250 -622.5t-602 -254t-602 254t-250 622.5zM262 843.5q0 -315.5 210 -536.5t511 -221t511 221t210 536.5t-210 537t-511 221.5t-511 -221.5t-210 -537zM752 2019l71 99l269 -211l-48 -66z" />
<glyph unicode="&#xd3;" horiz-adv-x="1966" d="M131 843.5q0 368.5 250 622.5t602 254t602 -254t250 -622.5t-250 -622.5t-602 -254t-602 254t-250 622.5zM262 843.5q0 -315.5 210 -536.5t511 -221t511 221t210 536.5t-210 537t-511 221.5t-511 -221.5t-210 -537zM874 1907l269 211l71 -99l-292 -178z" />
<glyph unicode="&#xd4;" horiz-adv-x="1966" d="M131 843.5q0 368.5 250 622.5t602 254t602 -254t250 -622.5t-250 -622.5t-602 -254t-602 254t-250 622.5zM262 843.5q0 -315.5 210 -536.5t511 -221t511 221t210 536.5t-210 537t-511 221.5t-511 -221.5t-210 -537zM618 1913l365 268l365 -268l-54 -72l-311 230 l-313 -230z" />
<glyph unicode="&#xd5;" horiz-adv-x="1966" d="M131 843.5q0 368.5 250 622.5t602 254t602 -254t250 -622.5t-250 -622.5t-602 -254t-602 254t-250 622.5zM262 843.5q0 -315.5 210 -536.5t511 -221t511 221t210 536.5t-210 537t-511 221.5t-511 -221.5t-210 -537zM477 2056q43 74 120 135.5t177 61.5q119 0 238 -92 q92 -74 188 -74q127 0 221 160l68 -62q-43 -74 -120 -135t-177 -61q-119 0 -238 92q-92 74 -188 73q-127 0 -221 -159z" />
<glyph unicode="&#xd6;" horiz-adv-x="1966" d="M131 843.5q0 368.5 250 622.5t602 254t602 -254t250 -622.5t-250 -622.5t-602 -254t-602 254t-250 622.5zM262 843.5q0 -315.5 210 -536.5t511 -221t511 221t210 536.5t-210 537t-511 221.5t-511 -221.5t-210 -537zM666 2070.5q0 32.5 22.5 55t55 22.5t55 -22.5t22.5 -55 t-22.5 -55t-55 -22.5t-55 22.5t-22.5 55zM1145 2070.5q0 32.5 22.5 55t55 22.5t55 -22.5t22.5 -55t-22.5 -55t-55 -22.5t-55 22.5t-22.5 55z" />
<glyph unicode="&#xd7;" horiz-adv-x="1146" d="M115 459l389 389l-389 389l71 70l387 -387l388 387l71 -70l-389 -389l389 -389l-71 -70l-388 387l-387 -387z" />
<glyph unicode="&#xd8;" horiz-adv-x="1964" d="M129 844q0 369 250 622.5t602 253.5q270 0 494 -161l106 137l84 -64l-111 -141q131 -121 205 -289t74 -358q0 -369 -250 -623t-602 -254q-268 0 -494 160l-102 -131l-82 63l105 134q-279 262 -279 651zM260 844q0 -330 223 -553l916 1171q-184 139 -418 140 q-301 0 -511 -221.5t-210 -536.5zM563 223q186 -137 418 -137q301 0 511 221.5t210 536.5q0 326 -223 549z" />
<glyph unicode="&#xd9;" horiz-adv-x="1544" d="M197 606v1084h122v-1061q0 -541 453 -541t453 541v1061h123v-1084q0 -313 -148.5 -476t-427 -163t-427 163t-148.5 476zM541 2019l71 99l269 -211l-47 -66z" />
<glyph unicode="&#xda;" horiz-adv-x="1544" d="M197 606v1084h122v-1061q0 -541 453 -541t453 541v1061h123v-1084q0 -313 -148.5 -476t-427 -163t-427 163t-148.5 476zM664 1909l268 211l72 -99l-293 -178z" />
<glyph unicode="&#xdb;" horiz-adv-x="1544" d="M197 606v1084h122v-1061q0 -541 453 -541t453 541v1061h123v-1084q0 -313 -148.5 -476t-427 -163t-427 163t-148.5 476zM408 1913l364 268l365 -268l-54 -72l-311 230l-313 -230z" />
<glyph unicode="&#xdc;" horiz-adv-x="1544" d="M197 606v1084h122v-1061q0 -541 453 -541t453 541v1061h123v-1084q0 -313 -148.5 -476t-427 -163t-427 163t-148.5 476zM455 2070.5q0 32.5 22.5 55t55 22.5t55 -22.5t22.5 -55t-22.5 -55t-55 -22.5t-55 22.5t-22.5 55zM934 2070.5q0 32.5 22.5 55t55 22.5t55.5 -22.5 t23 -55t-23 -55t-55.5 -22.5t-55 22.5t-22.5 55z" />
<glyph unicode="&#xdd;" horiz-adv-x="1249" d="M-12 1690h149l488 -828l487 828h150l-576 -961v-729h-123v729zM496 1909l268 211l72 -99l-293 -178z" />
<glyph unicode="&#xde;" horiz-adv-x="1873" d="M215 0v1690h123v-373h291q248 0 390 -126t142 -345t-144.5 -354.5t-387.5 -135.5h-291v-356h-123zM338 461h266q199 0 315.5 104.5t116.5 278.5t-115.5 273.5t-316.5 99.5h-266v-756z" />
<glyph unicode="&#xdf;" horiz-adv-x="1308" d="M92 752v104h135v479q0 193 133.5 325t321.5 132q193 0 326 -132t133 -321q0 -135 -73 -241.5t-191 -155.5q145 -53 235 -178t90 -287q0 -219 -153.5 -364.5t-366.5 -145.5h-184v113h178q162 0 282.5 114.5t120.5 286.5q0 174 -120.5 291t-303.5 117h-157v100h159 q156 0 262.5 99.5t106.5 250.5q0 145 -100.5 246t-243.5 101t-239.5 -105.5t-96.5 -261.5v-1319h-119v752h-135z" />
<glyph unicode="&#xe0;" d="M135 524.5q0 241.5 148.5 399t373.5 157.5q145 0 263 -71.5t182 -196.5v236h119v-1049h-119v238q-63 -125 -181 -198t-264 -73q-225 0 -373.5 158t-148.5 399.5zM256 524.5q0 -198.5 120 -325.5t306 -127t306 127t120 325.5t-121 325.5t-305 127t-305 -127t-121 -325.5z M467 1380l72 99l268 -211l-47 -66z" />
<glyph unicode="&#xe1;" d="M135 524.5q0 241.5 148.5 399t373.5 157.5q145 0 263 -71.5t182 -196.5v236h119v-1049h-119v238q-63 -125 -181 -198t-264 -73q-225 0 -373.5 158t-148.5 399.5zM256 524.5q0 -198.5 120 -325.5t306 -127t306 127t120 325.5t-121 325.5t-305 127t-305 -127t-121 -325.5z M549 1268l268 211l72 -99l-293 -178z" />
<glyph unicode="&#xe2;" d="M135 524.5q0 241.5 148.5 399t373.5 157.5q145 0 263 -71.5t182 -196.5v236h119v-1049h-119v238q-63 -125 -181 -198t-264 -73q-225 0 -373.5 158t-148.5 399.5zM256 524.5q0 -198.5 120 -325.5t306 -127t306 127t120 325.5t-121 325.5t-305 127t-305 -127t-121 -325.5z M313 1274l365 268l364 -268l-53 -72l-311 230l-313 -230z" />
<glyph unicode="&#xe3;" d="M135 524.5q0 241.5 148.5 399t373.5 157.5q145 0 263 -71.5t182 -196.5v236h119v-1049h-119v238q-63 -125 -181 -198t-264 -73q-225 0 -373.5 158t-148.5 399.5zM172 1323q43 74 120 135.5t177 61.5q119 0 238 -93q92 -74 188 -73q127 0 221 159l68 -61 q-43 -74 -120 -135.5t-177 -61.5q-119 0 -238 93q-92 74 -188 73q-127 0 -221 -159zM256 524.5q0 -198.5 120 -325.5t306 -127t306 127t120 325.5t-121 325.5t-305 127t-305 -127t-121 -325.5z" />
<glyph unicode="&#xe4;" d="M135 524.5q0 241.5 148.5 399t373.5 157.5q145 0 263 -71.5t182 -196.5v236h119v-1049h-119v238q-63 -125 -181 -198t-264 -73q-225 0 -373.5 158t-148.5 399.5zM256 524.5q0 -198.5 120 -325.5t306 -127t306 127t120 325.5t-121 325.5t-305 127t-305 -127t-121 -325.5z M360 1431.5q0 32.5 23 55t55.5 22.5t55 -22.5t22.5 -55t-22.5 -55t-55 -22.5t-55.5 22.5t-23 55zM840 1431.5q0 32.5 22.5 55t55 22.5t55 -22.5t22.5 -55t-22.5 -55t-55 -22.5t-55 22.5t-22.5 55z" />
<glyph unicode="&#xe5;" d="M135 524.5q0 241.5 148.5 399t373.5 157.5q145 0 263 -71.5t182 -196.5v236h119v-1049h-119v238q-63 -125 -181 -198t-264 -73q-225 0 -373.5 158t-148.5 399.5zM256 524.5q0 -198.5 120 -325.5t306 -127t306 127t120 325.5t-121 325.5t-305 127t-305 -127t-121 -325.5z M453 1499q0 90 62.5 144.5t162.5 54.5t162.5 -54.5t62.5 -144.5t-62.5 -144.5t-162.5 -54.5t-162.5 54.5t-62.5 144.5zM537 1499q0 -55 39.5 -90t101 -35t101.5 35t40 90t-40 90t-101.5 35t-101 -35t-39.5 -90z" />
<glyph unicode="&#xe6;" horiz-adv-x="2103" d="M135 301q0 150 116 246t294 96q238 0 350 -143v133q0 166 -90 258t-248 92q-190 0 -301 -133l-55 76q133 156 356 155q162 0 273.5 -69.5t156.5 -194.5q70 121 188.5 192.5t262.5 71.5q227 0 384.5 -158.5t157.5 -396.5v-12h-972q0 -197 129 -319.5t321 -122.5 q262 0 395 198l89 -49q-76 -123 -203 -188.5t-285 -65.5q-166 0 -275.5 61.5t-197.5 182.5q-49 -119 -171 -181.5t-263 -62.5q-176 0 -294 93.5t-118 240.5zM250 309.5q0 -112.5 95 -184.5t232.5 -72t231.5 72t94 184q0 111 -94 181.5t-231 70.5q-139 0 -233.5 -69.5 t-94.5 -182zM1012 596h852q-16 168 -136 274.5t-288 106.5q-172 0 -293 -107.5t-135 -273.5z" />
<glyph unicode="&#xe7;" horiz-adv-x="1175" d="M123 524q0 240 163 398.5t400 158.5q219 0 361 -118l-58 -84q-115 100 -293 100q-197 0 -325.5 -129t-128.5 -325.5t129 -325.5t325 -129q178 0 293 100l58 -84q-141 -119 -361 -119q-25 0 -37 2l-45 -137q49 8 80 8q92 -4 152.5 -63.5t60.5 -153.5q0 -98 -71.5 -161.5 t-188.5 -63.5q-96 0 -169 45t-106 108l66 41q27 -49 82 -81.5t127 -32.5t124 38t52 107q0 68 -44 110t-112 42q-88 0 -151 -41l-8 6l77 237q-199 37 -325.5 186.5t-126.5 360.5z" />
<glyph unicode="&#xe8;" horiz-adv-x="1335" d="M123 524q0 231 160.5 394t386.5 163q227 0 384.5 -158.5t157.5 -396.5v-12h-972q0 -197 129 -319.5t321 -122.5q262 0 395 198l89 -49q-76 -123 -203 -188.5t-285 -65.5q-240 0 -401.5 157.5t-161.5 399.5zM244 596h852q-16 168 -136 274.5t-288 106.5 q-172 0 -293 -107.5t-135 -273.5zM457 1380l71 99l269 -211l-47 -66z" />
<glyph unicode="&#xe9;" horiz-adv-x="1335" d="M123 524q0 231 160.5 394t386.5 163q227 0 384.5 -158.5t157.5 -396.5v-12h-972q0 -197 129 -319.5t321 -122.5q262 0 395 198l89 -49q-76 -123 -203 -188.5t-285 -65.5q-240 0 -401.5 157.5t-161.5 399.5zM244 596h852q-16 168 -136 274.5t-288 106.5 q-172 0 -293 -107.5t-135 -273.5zM539 1268l268 211l72 -99l-293 -178z" />
<glyph unicode="&#xea;" horiz-adv-x="1335" d="M123 524q0 231 160.5 394t386.5 163q227 0 384.5 -158.5t157.5 -396.5v-12h-972q0 -197 129 -319.5t321 -122.5q262 0 395 198l89 -49q-76 -123 -203 -188.5t-285 -65.5q-240 0 -401.5 157.5t-161.5 399.5zM244 596h852q-16 168 -136 274.5t-288 106.5 q-172 0 -293 -107.5t-135 -273.5zM303 1274l365 268l364 -268l-53 -72l-311 230l-314 -230z" />
<glyph unicode="&#xeb;" horiz-adv-x="1335" d="M123 524q0 231 160.5 394t386.5 163q227 0 384.5 -158.5t157.5 -396.5v-12h-972q0 -197 129 -319.5t321 -122.5q262 0 395 198l89 -49q-76 -123 -203 -188.5t-285 -65.5q-240 0 -401.5 157.5t-161.5 399.5zM244 596h852q-16 168 -136 274.5t-288 106.5 q-172 0 -293 -107.5t-135 -273.5zM350 1321q0 33 22.5 55.5t55.5 22.5t55.5 -22.5t22.5 -55.5t-22.5 -55.5t-55.5 -22.5t-55.5 22.5t-22.5 55.5zM829 1321q0 33 22.5 55.5t55.5 22.5t55.5 -22.5t22.5 -55.5t-22.5 -55.5t-55.5 -22.5t-55.5 22.5t-22.5 55.5z" />
<glyph unicode="&#xec;" horiz-adv-x="546" d="M-12 1380l71 99l269 -211l-47 -66zM221 0v1049h119v-1049h-119z" />
<glyph unicode="&#xed;" horiz-adv-x="546" d="M221 0v1049h119v-1049h-119zM233 1268l269 211l71 -99l-292 -178z" />
<glyph unicode="&#xee;" horiz-adv-x="546" d="M-84 1274l365 268l364 -268l-53 -72l-311 230l-314 -230zM221 0v1049h119v-1049h-119z" />
<glyph unicode="&#xef;" horiz-adv-x="546" d="M-37 1331q0 33 22.5 55.5t55.5 22.5t55.5 -22.5t22.5 -55.5t-22.5 -55.5t-55.5 -22.5t-55.5 22.5t-22.5 55.5zM221 0v1049h119v-1049h-119zM442 1331q0 33 22.5 55.5t55.5 22.5t55.5 -22.5t22.5 -55.5t-22.5 -55.5t-55.5 -22.5t-55.5 22.5t-22.5 55.5z" />
<glyph unicode="&#xf0;" horiz-adv-x="1423" d="M129 524.5q0 243.5 163 400t392 156.5q131 0 244.5 -57t181.5 -160q-80 414 -365 639l-159 -160l-66 66l148 145q-123 82 -267 134l33 104q180 -68 316 -156l155 156l64 -66l-144 -141q455 -367 455 -1061q0 -244 -164 -400.5t-411 -156.5q-250 0 -413 157t-163 400.5z M250 524.5q0 -196.5 128 -324.5t327 -128q197 0 325.5 128t128.5 324.5t-129 324.5t-325.5 128t-325.5 -128t-129 -324.5z" />
<glyph unicode="&#xf1;" horiz-adv-x="1257" d="M135 1321q43 74 120 135.5t177 61.5q119 0 238 -93q92 -74 188 -73q127 0 221 159l68 -61q-43 -74 -120 -135.5t-177 -61.5q-119 0 -238 93q-92 74 -188 73q-127 0 -221 -159zM207 0v1049h119v-148q43 88 138 134t191 46q201 0 306.5 -111.5t105.5 -305.5v-664h-117v629 q0 170 -78.5 262t-234.5 92q-137 0 -224 -89t-87 -200v-694h-119z" />
<glyph unicode="&#xf2;" horiz-adv-x="1394" d="M123 524.5q0 243.5 164 400t409.5 156.5t410.5 -156.5t165 -400t-164 -400.5t-411.5 -157t-410.5 157t-163 400.5zM242 524.5q0 -196.5 128 -324.5t326 -128q197 0 327 128t130 324.5t-130 324.5t-326.5 128t-325.5 -128t-129 -324.5zM485 1380l72 99l268 -211l-47 -66z " />
<glyph unicode="&#xf3;" horiz-adv-x="1394" d="M123 524.5q0 243.5 164 400t409.5 156.5t410.5 -156.5t165 -400t-164 -400.5t-411.5 -157t-410.5 157t-163 400.5zM242 524.5q0 -196.5 128 -324.5t326 -128q197 0 327 128t130 324.5t-130 324.5t-326.5 128t-325.5 -128t-129 -324.5zM567 1268l269 211l71 -99l-293 -178 z" />
<glyph unicode="&#xf4;" horiz-adv-x="1394" d="M123 524.5q0 243.5 164 400t409.5 156.5t410.5 -156.5t165 -400t-164 -400.5t-411.5 -157t-410.5 157t-163 400.5zM242 524.5q0 -196.5 128 -324.5t326 -128q197 0 327 128t130 324.5t-130 324.5t-326.5 128t-325.5 -128t-129 -324.5zM332 1274l364 268l365 -268l-53 -72 l-312 230l-313 -230z" />
<glyph unicode="&#xf5;" horiz-adv-x="1394" d="M123 524.5q0 243.5 164 400t409.5 156.5t410.5 -156.5t165 -400t-164 -400.5t-411.5 -157t-410.5 157t-163 400.5zM190 1311q43 74 120 135t177 61q119 0 238 -92q92 -74 188 -74q127 0 222 160l67 -61q-43 -74 -119.5 -135.5t-177.5 -61.5q-119 0 -237 92 q-92 74 -189 74q-127 0 -221 -160zM242 524.5q0 -196.5 128 -324.5t326 -128q197 0 327 128t130 324.5t-130 324.5t-326.5 128t-325.5 -128t-129 -324.5z" />
<glyph unicode="&#xf6;" horiz-adv-x="1394" d="M123 524.5q0 243.5 164 400t409.5 156.5t410.5 -156.5t165 -400t-164 -400.5t-411.5 -157t-410.5 157t-163 400.5zM242 524.5q0 -196.5 128 -324.5t326 -128q197 0 327 128t130 324.5t-130 324.5t-326.5 128t-325.5 -128t-129 -324.5zM379 1431.5q0 32.5 22.5 55t55 22.5 t55.5 -22.5t23 -55t-23 -55t-55.5 -22.5t-55 22.5t-22.5 55zM858 1431.5q0 32.5 22.5 55t55.5 22.5t55.5 -22.5t22.5 -55t-22.5 -55t-55.5 -22.5t-55.5 22.5t-22.5 55z" />
<glyph unicode="&#xf7;" horiz-adv-x="1351" d="M152 799v102h1048v-102h-1048zM602 346q0 31 21.5 52.5t52.5 21.5t52.5 -21.5t21.5 -52.5t-21.5 -52.5t-52.5 -21.5t-52.5 21.5t-21.5 52.5zM602 1353.5q0 30.5 21.5 52t52.5 21.5t52.5 -21.5t21.5 -52t-21.5 -52t-52.5 -21.5t-52.5 21.5t-21.5 52z" />
<glyph unicode="&#xf8;" horiz-adv-x="1394" d="M29 29l200 161q-104 143 -104 334q0 244 164 400.5t409 156.5q256 0 422 -170l203 166l47 -57l-203 -164q105 -144 105 -332q0 -244 -164 -400.5t-410 -156.5q-258 0 -419 166l-201 -162zM244 524q0 -150 75 -260l713 578q-131 135 -334 135q-197 0 -325.5 -128 t-128.5 -325zM367 205q127 -133 331 -133q197 0 326 127.5t129 324.5q0 147 -76 258z" />
<glyph unicode="&#xf9;" horiz-adv-x="1232" d="M190 430v619h119v-600q0 -219 76 -299t231.5 -80t231.5 79.5t76 299.5v600h118v-619q0 -252 -103 -357.5t-322.5 -105.5t-323 105.5t-103.5 357.5zM406 1380l71 99l268 -211l-47 -66z" />
<glyph unicode="&#xfa;" horiz-adv-x="1232" d="M190 430v619h119v-600q0 -219 76 -299t231.5 -80t231.5 79.5t76 299.5v600h118v-619q0 -252 -103 -357.5t-322.5 -105.5t-323 105.5t-103.5 357.5zM487 1268l269 211l71 -99l-292 -178z" />
<glyph unicode="&#xfb;" horiz-adv-x="1232" d="M190 430v619h119v-600q0 -219 76 -299t231.5 -80t231.5 79.5t76 299.5v600h118v-619q0 -252 -103 -357.5t-322.5 -105.5t-323 105.5t-103.5 357.5zM252 1274l364 268l365 -268l-53 -72l-312 230l-313 -230z" />
<glyph unicode="&#xfc;" horiz-adv-x="1232" d="M190 430v619h119v-600q0 -219 76 -299t231.5 -80t231.5 79.5t76 299.5v600h118v-619q0 -252 -103 -357.5t-322.5 -105.5t-323 105.5t-103.5 357.5zM299 1321q0 33 22.5 55.5t55.5 22.5t55.5 -22.5t22.5 -55.5t-22.5 -55.5t-55.5 -22.5t-55.5 22.5t-22.5 55.5zM778 1321 q0 33 22.5 55.5t55.5 22.5t55.5 -22.5t22.5 -55.5t-22.5 -55.5t-55.5 -22.5t-55.5 22.5t-22.5 55.5z" />
<glyph unicode="&#xfd;" horiz-adv-x="1095" d="M0 1049h135l432 -918l394 918h135l-707 -1581h-133l244 538zM418 1268l268 211l72 -99l-293 -178z" />
<glyph unicode="&#xfe;" horiz-adv-x="1417" d="M205 -532v2293h119v-948q63 125 181 196.5t263 71.5q225 0 373.5 -157.5t148.5 -399t-148.5 -399.5t-373.5 -158q-145 0 -263 73t-181 198v-770h-119zM317 524.5q0 -198.5 120 -325.5t306.5 -127t306 127t119.5 325.5t-120.5 325.5t-305 127t-305.5 -127t-121 -325.5z " />
<glyph unicode="&#xff;" horiz-adv-x="1095" d="M0 1049h135l432 -918l394 918h135l-707 -1581h-133l244 538zM250 1321q0 33 22.5 55.5t55 22.5t55.5 -22.5t23 -55.5t-23 -55.5t-55.5 -22.5t-55 22.5t-22.5 55.5zM729 1321q0 33 22.5 55.5t55.5 22.5t55.5 -22.5t22.5 -55.5t-22.5 -55.5t-55.5 -22.5t-55.5 22.5 t-22.5 55.5z" />
<glyph unicode="&#x152;" horiz-adv-x="1953" d="M125 843.5q0 354.5 250 600.5t602 246h835v-109h-712v-680h688v-108h-688v-684h712v-109h-835q-352 0 -602 244.5t-250 599zM256 844q0 -305 209 -517t512 -212v1460q-301 0 -511 -213t-210 -518z" />
<glyph unicode="&#x153;" horiz-adv-x="2355" d="M123 524.5q0 243.5 164 400t409 156.5q168 0 304.5 -78.5t207.5 -214.5q70 133 199 213t283 80q227 0 384.5 -158.5t157.5 -396.5v-12h-972q0 -197 129 -319.5t321 -122.5q262 0 395 198l88 -49q-76 -123 -202.5 -188.5t-284.5 -65.5q-164 0 -297 78t-203 211 q-72 -135 -206 -212t-304 -77q-248 0 -410.5 157t-162.5 400.5zM242 524.5q0 -196.5 128 -324.5t326 -128q197 0 327 128t130 324.5t-130 324.5t-326.5 128t-325.5 -128t-129 -324.5zM1264 596h852q-16 168 -136 274.5t-288 106.5q-172 0 -293 -107.5t-135 -273.5z" />
<glyph unicode="&#x178;" horiz-adv-x="1249" d="M-12 1690h149l488 -828l487 828h150l-576 -961v-729h-123v729zM307 2070.5q0 32.5 22.5 55t55.5 22.5t55.5 -22.5t22.5 -55t-22.5 -55t-55.5 -22.5t-55.5 22.5t-22.5 55zM786 2070.5q0 32.5 22.5 55t55.5 22.5t55.5 -22.5t22.5 -55t-22.5 -55t-55.5 -22.5t-55.5 22.5 t-22.5 55z" />
<glyph unicode="&#x2c6;" horiz-adv-x="1054" d="M162 1452l364 268l365 -268l-53 -72l-312 230l-313 -230z" />
<glyph unicode="&#x2dc;" horiz-adv-x="1171" d="M74 1378q43 74 119.5 135.5t177.5 61.5q119 0 237 -92q92 -74 189 -74q127 0 221 160l67 -62q-43 -74 -119.5 -135t-177.5 -61q-118 0 -237 92q-92 74 -189 74q-127 0 -221 -160z" />
<glyph unicode="&#x2000;" horiz-adv-x="1168" />
<glyph unicode="&#x2001;" horiz-adv-x="2337" />
<glyph unicode="&#x2002;" horiz-adv-x="1168" />
<glyph unicode="&#x2003;" horiz-adv-x="2337" />
<glyph unicode="&#x2004;" horiz-adv-x="779" />
<glyph unicode="&#x2005;" horiz-adv-x="584" />
<glyph unicode="&#x2006;" horiz-adv-x="389" />
<glyph unicode="&#x2007;" horiz-adv-x="389" />
<glyph unicode="&#x2008;" horiz-adv-x="292" />
<glyph unicode="&#x2009;" horiz-adv-x="467" />
<glyph unicode="&#x200a;" horiz-adv-x="129" />
<glyph unicode="&#x2010;" horiz-adv-x="942" d="M141 543v100h660v-100h-660z" />
<glyph unicode="&#x2011;" horiz-adv-x="942" d="M141 543v100h660v-100h-660z" />
<glyph unicode="&#x2012;" horiz-adv-x="942" d="M141 543v100h660v-100h-660z" />
<glyph unicode="&#x2013;" horiz-adv-x="1208" d="M182 543v100h856v-100h-856z" />
<glyph unicode="&#x2014;" horiz-adv-x="2023" d="M182 543v100h1673v-100h-1673z" />
<glyph unicode="&#x2018;" horiz-adv-x="358" d="M96 1438q0 170 129 282l29 -24q-53 -88 -59 -176q31 -4 52 -27t21 -55q0 -35 -25.5 -60.5t-60.5 -25.5t-60.5 25.5t-25.5 60.5z" />
<glyph unicode="&#x2019;" horiz-adv-x="358" d="M90 1634q0 35 25.5 60.5t60.5 25.5t60.5 -25.5t25.5 -60.5q0 -170 -129 -282l-29 24q53 88 60 176q-31 4 -52.5 27t-21.5 55z" />
<glyph unicode="&#x201a;" horiz-adv-x="380" d="M117 53q0 35 25.5 60.5t60.5 25.5t60.5 -25.5t25.5 -60.5q0 -170 -129 -282l-29 24q53 88 59 176q-31 4 -52 26.5t-21 55.5z" />
<glyph unicode="&#x201c;" horiz-adv-x="600" d="M96 1438q0 170 129 282l29 -24q-53 -88 -59 -176q31 -4 52 -27t21 -55q0 -35 -25.5 -60.5t-60.5 -25.5t-60.5 25.5t-25.5 60.5zM338 1438q0 170 129 282l29 -24q-53 -88 -60 -176q31 -4 52.5 -27t21.5 -55q0 -35 -25.5 -60.5t-60.5 -25.5t-60.5 25.5t-25.5 60.5z" />
<glyph unicode="&#x201d;" horiz-adv-x="600" d="M90 1634q0 35 25.5 60.5t60.5 25.5t60.5 -25.5t25.5 -60.5q0 -170 -129 -282l-29 24q53 88 60 176q-31 4 -52.5 27t-21.5 55zM332 1634q0 35 25.5 60.5t60.5 25.5t60.5 -25.5t25.5 -60.5q0 -170 -129 -282l-29 24q53 88 60 176q-31 4 -52.5 27t-21.5 55z" />
<glyph unicode="&#x201e;" horiz-adv-x="589" d="M90 49q0 35 25.5 60.5t60.5 25.5t60.5 -25.5t25.5 -60.5q0 -170 -129 -282l-29 24q53 88 60 176q-31 4 -52.5 26.5t-21.5 55.5zM332 49q0 35 25.5 60.5t60.5 25.5t60.5 -25.5t25.5 -60.5q0 -170 -129 -282l-29 24q53 88 60 176q-31 4 -52.5 26.5t-21.5 55.5z" />
<glyph unicode="&#x2022;" horiz-adv-x="573" d="M158 731q0 53 37.5 90t91 37t91.5 -37t38 -90t-38 -90t-91.5 -37t-91 37t-37.5 90z" />
<glyph unicode="&#x2026;" horiz-adv-x="1030" d="M117 53q0 35 25.5 60.5t60.5 25.5t60.5 -25.5t25.5 -60.5t-25.5 -60.5t-60.5 -25.5t-60.5 25.5t-25.5 60.5zM428 53q0 35 25.5 60.5t60.5 25.5t60.5 -25.5t25.5 -60.5t-25.5 -60.5t-60.5 -25.5t-60.5 25.5t-25.5 60.5zM739 53q0 35 26 60.5t60.5 25.5t60 -25.5 t25.5 -60.5t-25.5 -60.5t-60 -25.5t-60.5 25.5t-26 60.5z" />
<glyph unicode="&#x202f;" horiz-adv-x="467" />
<glyph unicode="&#x2039;" horiz-adv-x="563" d="M31 569l399 512l76 -59l-354 -453l354 -452l-76 -60z" />
<glyph unicode="&#x203a;" horiz-adv-x="563" d="M57 117l355 452l-355 453l76 59l399 -512l-399 -512z" />
<glyph unicode="&#x205f;" horiz-adv-x="584" />
<glyph unicode="&#x20ac;" horiz-adv-x="1691" d="M12 629v82h156q-10 76 -10 135q0 57 10 129h-156v82h172q72 291 312.5 477t545.5 186q336 0 543 -178l-61 -104q-178 162 -469 161q-260 0 -460 -151.5t-265 -390.5h958v-82h-985q-12 -66 -12 -129q0 -68 12 -135h985v-82h-960q63 -240 258.5 -389.5t468.5 -149.5 q291 0 471 158l61 -103q-201 -176 -545 -176q-317 0 -552.5 184.5t-305.5 475.5h-172z" />
<glyph unicode="&#x2122;" horiz-adv-x="1030" d="M35 1655v35h373v-35h-166v-494h-39v494h-168zM414 1161l71 529h41l162 -430l160 430h41l72 -529h-39l-64 455l-156 -420h-30l-156 420l-63 -455h-39z" />
<glyph unicode="&#x25fc;" horiz-adv-x="1044" d="M0 0v1044h1044v-1044h-1044z" />
<glyph unicode="&#xfb01;" horiz-adv-x="1007" d="M119 958v91h100v397q0 176 73 261t200 85q90 0 158.5 -40t99.5 -95l-62 -66q-23 41 -72 69t-108 28q-86 0 -128 -55.5t-42 -180.5v-403h446v-1049h-118v958h-328v-958h-119v958h-100z" />
<glyph unicode="&#xfb02;" horiz-adv-x="1036" d="M119 958v91h100v397q0 176 71.5 261t198.5 85q88 0 154 -37l-35 -90q-49 23 -102 23q-86 0 -128 -55.5t-42 -180.5v-403h270v-91h-270v-958h-117v958h-100zM711 0v1761h118v-1761h-118z" />
<glyph unicode="&#xfb03;" horiz-adv-x="1476" d="M127 958v91h100v397q0 176 73 261t200 85q82 0 162 -43l-46 -84q-45 23 -100 23q-86 0 -128 -55.5t-42 -180.5v-403h344v397q0 176 73 261t200 85q90 0 158.5 -40t99.5 -95l-62 -66q-23 41 -72 69t-108 28q-86 0 -128 -55.5t-42 -180.5v-403h446v-1049h-118v958h-328 v-958h-119v958h-344v-958h-119v958h-100z" />
<glyph unicode="&#xfb04;" horiz-adv-x="1509" d="M127 958v91h100v397q0 176 73 261t200 85q82 0 162 -43l-46 -84q-45 23 -100 23q-86 0 -128 -55.5t-42 -180.5v-403h348v397q0 176 72 261t199 85q88 0 153 -37l-35 -90q-49 23 -102 23q-86 0 -128 -55.5t-42 -180.5v-403h270v-91h-270v-958h-117v958h-348v-958h-119v958 h-100zM1186 0v1761h119v-1761h-119z" />
</font>
</defs>
</svg>
