<?xml version="1.0" standalone="no"?>
<!DOCTYPE svg PUBLIC "-//W3C//DTD SVG 1.1//EN" "http://www.w3.org/Graphics/SVG/1.1/DTD/svg11.dtd" >
<svg xmlns="http://www.w3.org/2000/svg" xmlns:xlink="http://www.w3.org/1999/xlink" version="1.1">
<metadata></metadata>
<defs>
<font id="spartan_mbbold" horiz-adv-x="1400" >
<font-face units-per-em="2048" ascent="1638" descent="-410" />
<missing-glyph horiz-adv-x="548" />
<glyph horiz-adv-x="0" />
<glyph horiz-adv-x="682" />
<glyph horiz-adv-x="0" />
<glyph horiz-adv-x="0" />
<glyph unicode="&#xd;" horiz-adv-x="681" />
<glyph unicode=" "  horiz-adv-x="548" />
<glyph unicode="&#x09;" horiz-adv-x="548" />
<glyph unicode="&#xa0;" horiz-adv-x="548" />
<glyph unicode="!" horiz-adv-x="684" d="M143 166q0 84 57.5 141.5t141.5 57.5t141.5 -57.5t57.5 -141.5t-57.5 -141.5t-141.5 -57.5t-141.5 57.5t-57.5 141.5zM193 1761h299l-39 -1249h-222z" />
<glyph unicode="&#x22;" horiz-adv-x="917" d="M115 1714h295l-56 -655h-184zM508 1714h295l-55 -655h-185z" />
<glyph unicode="#" horiz-adv-x="1611" d="M139 444v207h228l43 332h-271v207h293l57 442h205l-55 -442h367l57 442h205l-56 -442h203v-207h-227l-43 -332h270v-207h-295l-55 -444h-207l55 444h-366l-55 -444h-207l55 444h-201zM571 651h369l41 332h-367z" />
<glyph unicode="$" horiz-adv-x="1363" d="M66 219l180 244l21.5 -21.5t58.5 -48.5t91 -61.5t111.5 -48t128.5 -21.5q113 0 199 47t86 166q0 49 -24.5 89t-83 78t-109.5 63.5t-150 68.5q-20 10 -32 14q-164 74 -252 185t-88 246q0 193 126 326.5t308 166.5v260h186v-258q121 -12 223.5 -55t143.5 -80l41 -37 l-152 -233q-14 14 -40.5 33.5t-111.5 53.5t-175 34q-113 0 -175.5 -56.5t-62.5 -142.5q0 -63 56.5 -111.5t162.5 -97.5q14 -6 79 -35t87.5 -39t79.5 -39.5t82.5 -49t71 -52.5t67 -63.5t46 -69.5t34.5 -84t10 -96q0 -227 -129 -356.5t-338 -160.5v-260h-186v252 q-109 4 -207 32t-161.5 63.5t-111.5 70.5t-71 60z" />
<glyph unicode="%" horiz-adv-x="2021" d="M61 1317q0 176 126 289.5t316.5 113.5t316.5 -113.5t126 -289.5t-126 -290t-316.5 -114t-316.5 114t-126 290zM281 1317q0 -98 64.5 -162.5t158.5 -64.5t158.5 64.5t64.5 162.5t-64.5 162.5t-158.5 64.5t-158.5 -64.5t-64.5 -162.5zM420 0l983 1690h203l-983 -1690h-203z M1075 373q0 176 126 289.5t316.5 113.5t316.5 -113.5t126 -289.5t-126 -290t-316.5 -114t-316.5 114t-126 290zM1294 372.5q0 -98.5 64.5 -163t159 -64.5t159 64.5t64.5 163t-64.5 163t-159 64.5t-159 -64.5t-64.5 -163z" />
<glyph unicode="&#x26;" horiz-adv-x="1665" d="M78 436q0 266 409 479q-186 215 -186 383q0 188 131 305t371 117q221 0 346 -128t125 -294q0 -86 -45 -164.5t-113.5 -133t-108.5 -80t-73 -39.5l291 -308q123 102 233 226l199 -191q-98 -121 -230 -246l349 -362h-402l-184 193q-90 -74 -151.5 -114t-168 -76t-227.5 -36 q-102 0 -197.5 24.5t-180.5 77t-136 146.5t-51 221zM436 461q0 -90 69.5 -141.5t168.5 -51.5q100 0 188 48.5t121 86.5l-328 336q-80 -37 -149.5 -107.5t-69.5 -170.5zM623 1298q0 -51 35.5 -110.5t63.5 -88t50 -44.5q104 53 162.5 109.5t58.5 133.5q0 84 -46 138.5 t-144 54.5q-88 0 -134 -55.5t-46 -137.5z" />
<glyph unicode="'" horiz-adv-x="524" d="M115 1714h295l-56 -655h-184z" />
<glyph unicode="(" horiz-adv-x="784" d="M127 628.5q0 200.5 38 394.5t91 327t106.5 237.5t92.5 153.5l37 51l196 -84q-12 -16 -30.5 -46t-66.5 -132.5t-85 -218t-67.5 -301t-30.5 -382t28.5 -379.5t69.5 -304t83 -214t70 -137l29 -43l-196 -83q-14 18 -39 52t-88.5 149.5t-111.5 241.5t-87 321.5t-39 396z" />
<glyph unicode=")" horiz-adv-x="784" d="M96 -449q12 16 30.5 45t67 132.5t85 219t67.5 300t31 381t-29 380t-69.5 304.5t-82.5 215t-71 137l-29 43l197 84q14 -18 38.5 -52t88 -149.5t112 -242.5t87 -323t38.5 -396.5t-37.5 -394t-91 -326.5t-106.5 -236.5t-90 -154.5l-39 -49z" />
<glyph unicode="*" horiz-adv-x="878" d="M102 1468l45 136l218 -66v223h149v-223l217 66l45 -136l-217 -77l127 -189l-113 -76l-133 174l-135 -174l-110 76l127 189z" />
<glyph unicode="+" horiz-adv-x="1294" d="M121 719v262h395v395h262v-395h396v-262h-396v-395h-262v395h-395z" />
<glyph unicode="," horiz-adv-x="636" d="M121 166q0 82 57 140.5t139 58.5q84 0 141.5 -57.5t57.5 -141.5q0 -270 -291 -512l-86 72q106 106 133 258q-66 16 -108.5 65t-42.5 117z" />
<glyph unicode="-" horiz-adv-x="913" d="M127 461v262h659v-262h-659z" />
<glyph unicode="." horiz-adv-x="634" d="M119 166q0 84 57 141.5t141 57.5t141.5 -57.5t57.5 -141.5t-57.5 -141.5t-141.5 -57.5t-141 57.5t-57 141.5z" />
<glyph unicode="/" horiz-adv-x="1177" d="M37 -246l844 2007h260l-844 -2007h-260z" />
<glyph unicode="0" horiz-adv-x="1540" d="M82 844q0 418 198.5 647t489.5 229t489.5 -229t198.5 -647t-198.5 -647.5t-489.5 -229.5t-489.5 229.5t-198.5 647.5zM406 843.5q0 -282.5 100 -439t264 -156.5t264.5 156.5t100.5 439t-100.5 439.5t-264.5 157t-264 -157t-100 -439.5z" />
<glyph unicode="1" horiz-adv-x="641" d="M-68 1374v316h564v-1690h-320v1374h-244z" />
<glyph unicode="2" horiz-adv-x="1536" d="M127 0v162q6 4 80 59t144.5 111.5t173 140.5t185.5 168t159.5 171t120.5 171t44 152q0 45 -13 93t-43 100t-90.5 85t-142.5 33q-61 0 -117.5 -34t-93 -81t-65.5 -95t-41 -81l-12 -35l-277 97q6 20 17.5 54t59.5 121t110.5 153.5t174 120.5t244.5 54q150 0 266.5 -40 t184.5 -99t111 -141t57 -156t14 -149q0 -92 -44 -192.5t-100 -177.5t-147.5 -167t-147.5 -136t-141 -111.5t-89 -69.5h700v-281h-1282z" />
<glyph unicode="3" horiz-adv-x="1345" d="M51 389l301 113q2 -10 6 -27.5t24.5 -61.5t50.5 -78t89.5 -61.5t134.5 -27.5q127 0 203 68.5t76 185.5q0 121 -81 201.5t-196 80.5l-69 -8v211h76q98 0 170.5 72.5t72.5 177.5q0 96 -71.5 160.5t-170 64.5t-166 -54t-87.5 -108l-19 -53l-258 90q2 16 9.5 42t43 92.5 t89 116.5t157 92t236.5 42q229 0 379.5 -138t150.5 -345q0 -111 -49 -199t-133 -139q111 -57 174 -160.5t63 -238.5q0 -231 -166.5 -382t-431.5 -151q-147 0 -263.5 43t-178 105.5t-102.5 125t-54 105.5z" />
<glyph unicode="4" horiz-adv-x="1312" d="M-39 414v102l807 1174h315v-996h197v-280h-197v-414h-299v414h-823zM395 694h389v568z" />
<glyph unicode="5" horiz-adv-x="1339" d="M53 334l254 123q31 -96 118 -160t226 -64q135 0 219 84t84 215q0 172 -133 259.5t-327.5 87.5t-331.5 -93l139 904h862v-281h-590l-49 -317q59 25 123 24q127 0 234.5 -30.5t197.5 -96t141.5 -185.5t51.5 -282q0 -244 -173 -399.5t-448 -155.5q-242 0 -392 107.5 t-206 259.5z" />
<glyph unicode="6" horiz-adv-x="1413" d="M72 541q0 195 55 329t186 289l445 531h395l-506 -592q63 35 148 35q207 0 376.5 -162t169.5 -430q0 -272 -182 -423t-434 -151q-279 0 -466 165t-187 409zM401 543q0 -133 87 -221.5t222.5 -88.5t224.5 88.5t89 221.5q0 135 -91 225t-222 90q-129 0 -219.5 -91 t-90.5 -224z" />
<glyph unicode="7" horiz-adv-x="1341" d="M113 0l798 1409h-757v281h1228v-97l-893 -1593h-376z" />
<glyph unicode="8" horiz-adv-x="1380" d="M86 453q0 164 82 279.5t219 174.5q-231 125 -231 387q0 180 161.5 303t372.5 123t373 -122.5t162 -303.5q0 -262 -232 -387q137 -59 219 -175t82 -279q0 -209 -180 -347.5t-424 -138.5t-424 138.5t-180 347.5zM430 502q0 -115 72.5 -187.5t187.5 -72.5t187.5 72.5 t72.5 187.5q0 113 -74.5 184.5t-185 71.5t-185.5 -71.5t-75 -184.5zM461 1249.5q0 -98.5 66.5 -162t162.5 -63.5t163 63.5t67 162t-66 164t-164 65.5t-163.5 -65.5t-65.5 -164z" />
<glyph unicode="9" horiz-adv-x="1413" d="M72 1147q0 272 182 422.5t434 150.5q279 0 466 -164.5t187 -408.5q0 -195 -55 -329t-186 -290l-445 -528h-395l506 590q-63 -35 -148 -35q-207 0 -376.5 162t-169.5 430zM389 1145q0 -135 91 -225.5t222 -90.5q129 0 219.5 91.5t90.5 224.5t-87 221t-222.5 88t-224.5 -88 t-89 -221z" />
<glyph unicode=":" horiz-adv-x="634" d="M119 166q0 84 57 141.5t141 57.5t141.5 -57.5t57.5 -141.5t-57.5 -141.5t-141.5 -57.5t-141 57.5t-57 141.5zM119 934q0 82 57 140.5t141 58.5t141.5 -58.5t57.5 -140.5t-57.5 -140.5t-141.5 -58.5t-141 58.5t-57 140.5z" />
<glyph unicode=";" horiz-adv-x="634" d="M119 934q0 82 57 140.5t141 58.5t141.5 -58.5t57.5 -140.5t-57.5 -140.5t-141.5 -58.5t-141 58.5t-57 140.5zM121 166q0 82 57 140.5t139 58.5q84 0 141.5 -57.5t57.5 -141.5q0 -270 -291 -512l-86 72q106 106 133 258q-66 16 -108.5 65t-42.5 117z" />
<glyph unicode="&#x3c;" horiz-adv-x="1331" d="M100 752v200l1121 475v-243l-799 -332l799 -332v-244z" />
<glyph unicode="=" horiz-adv-x="1286" d="M119 483v262h1048v-262h-1048zM119 950v262h1048v-262h-1048z" />
<glyph unicode="&#x3e;" horiz-adv-x="1331" d="M111 276v244l798 332l-798 332v243l1120 -475v-200z" />
<glyph unicode="?" horiz-adv-x="1212" d="M53 1278q25 180 164 311t381 131q137 0 247.5 -49t174 -126t96.5 -164t33 -171q0 -162 -109.5 -309t-318.5 -186v-197h-283v463q47 -14 154 -14q137 0 204.5 75.5t67.5 167.5q0 94 -66.5 168t-199.5 74q-256 0 -295 -227zM381 166q0 84 57.5 141.5t141.5 57.5t141 -57.5 t57 -141.5t-57 -141.5t-141 -57.5t-141.5 57.5t-57.5 141.5z" />
<glyph unicode="@" horiz-adv-x="1910" d="M68 846q0 379 266 626.5t643 247.5q362 0 614 -234.5t252 -592.5q0 -215 -108.5 -328.5t-266.5 -113.5q-168 0 -268 104q-111 -170 -315 -170q-178 0 -297 126t-119 314.5t119 316.5t297 128q190 0 299 -140v115h207v-479q0 -18 7 -41t34.5 -45.5t72.5 -22.5 q70 0 100.5 52.5t30.5 183.5q0 260 -189.5 431t-471.5 171q-272 0 -464 -190.5t-192 -458.5t190.5 -451.5t465.5 -183.5q123 0 226.5 39t145.5 73.5t64 65.5l201 -131q-20 -31 -57 -66.5t-114 -93t-199 -94.5t-265 -37q-383 0 -646 249t-263 630zM735 829 q0 -102 63.5 -167.5t164.5 -65.5q96 0 159.5 66.5t63.5 167t-64.5 168t-158.5 67.5q-96 0 -162 -68t-66 -168z" />
<glyph unicode="A" horiz-adv-x="1556" d="M-45 0l676 1690h295l676 -1690h-342l-148 395h-668l-147 -395h-342zM555 676h446l-223 581z" />
<glyph unicode="B" horiz-adv-x="1353" d="M145 0v1690h478q240 0 380 -103.5t140 -326.5q0 -260 -221 -367q370 -61 370 -426q0 -213 -145.5 -340t-401.5 -127h-600zM465 248h172q319 0 319 229q0 246 -319 246h-172v-475zM465 999h72q297 0 297 230q0 213 -297 213h-72v-443z" />
<glyph unicode="C" horiz-adv-x="1572" d="M68 843.5q0 237.5 124.5 440.5t333.5 319.5t449 116.5q164 0 302 -41t193 -82l58 -38l-158 -256q-14 12 -42 28.5t-118 45t-186 28.5q-145 0 -265 -49t-192.5 -130t-111.5 -179.5t-39 -203t39 -202.5t111.5 -179t192.5 -130t265 -49q96 0 182 25.5t125 51.5l39 25 l158 -256q-8 -6 -22.5 -17.5t-65.5 -39t-110.5 -49t-156 -39t-198.5 -17.5q-240 0 -449 117t-333.5 319.5t-124.5 440z" />
<glyph unicode="D" horiz-adv-x="1523" d="M145 0v1690h459q352 0 602 -242t250 -604q0 -365 -249 -604.5t-603 -239.5h-459zM465 285h102q236 0 390.5 159.5t154.5 399t-154.5 400.5t-390.5 161h-102v-1120z" />
<glyph unicode="E" horiz-adv-x="1187" d="M145 0v1690h934v-281h-614v-422h590v-280h-590v-426h614v-281h-934z" />
<glyph unicode="F" horiz-adv-x="1169" d="M145 0v1690h942v-281h-622v-422h577v-280h-577v-707h-320z" />
<glyph unicode="G" horiz-adv-x="1736" d="M68 844q0 369 235.5 622.5t587.5 253.5q416 0 651 -288l-223 -209q-55 90 -163.5 149.5t-246.5 59.5q-209 0 -353 -171t-144 -417q0 -242 146.5 -413t350.5 -171q172 0 305.5 105.5t133.5 277.5v23h-457v247h780v-266q0 -125 -56 -245.5t-154.5 -218t-248 -157 t-321.5 -59.5q-340 0 -581.5 257.5t-241.5 619.5z" />
<glyph unicode="H" horiz-adv-x="1581" d="M145 0v1690h320v-703h651v703h320v-1690h-320v707h-651v-707h-320z" />
<glyph unicode="I" horiz-adv-x="610" d="M145 0v1690h320v-1690h-320z" />
<glyph unicode="J" horiz-adv-x="993" d="M-57 129l102 270q14 -14 39 -35.5t91.5 -56.5t119.5 -35q117 0 183.5 71t66.5 216v1131h319v-1215q0 -248 -136 -378t-390 -130q-106 0 -205.5 41t-144.5 82z" />
<glyph unicode="K" horiz-adv-x="1546" d="M145 0v1690h320v-723l633 723h387l-713 -816l813 -874h-440l-680 739v-739h-320z" />
<glyph unicode="L" horiz-adv-x="1150" d="M145 0v1690h320v-1409h618v-281h-938z" />
<glyph unicode="M" horiz-adv-x="1937" d="M49 0l170 1690h340l410 -1074l409 1074h340l170 -1690h-319l-111 1116l-393 -1081h-193l-393 1081l-110 -1116h-320z" />
<glyph unicode="N" horiz-adv-x="1675" d="M145 0v1690h320l745 -1155v1155h320v-1690h-320l-745 1155v-1155h-320z" />
<glyph unicode="O" horiz-adv-x="1839" d="M68 843.5q0 366.5 249.5 621.5t602 255t602.5 -255t250 -621.5t-250 -621.5t-602.5 -255t-602 255t-249.5 621.5zM414 843.5q0 -233.5 137 -401.5t368.5 -168t368.5 168t137 401.5t-137 401.5t-368.5 168t-368.5 -168t-137 -401.5z" />
<glyph unicode="P" horiz-adv-x="1345" d="M145 0v1690h566q256 0 411.5 -131.5t155.5 -377t-156.5 -388t-410.5 -142.5h-246v-651h-320zM465 909h147q147 0 238.5 64.5t91.5 198t-91 198t-239 64.5h-147v-525z" />
<glyph unicode="Q" horiz-adv-x="1839" d="M68 843.5q0 366.5 249.5 621.5t602 255t602.5 -255t250 -621q0 -291 -166 -522q121 -53 239 -91l-141 -286q-152 57 -318 166q-211 -143 -466 -144q-352 0 -602 255t-250 621.5zM414 843.5q0 -233.5 137 -401.5t369 -168q106 0 196 39q-156 135 -252 258l137 170 q127 -141 316 -262q108 155 108 361q0 237 -137 405t-368.5 168t-368.5 -168t-137 -401.5z" />
<glyph unicode="R" horiz-adv-x="1427" d="M145 0v1690h566q256 0 411.5 -131.5t155.5 -376.5q0 -197 -102.5 -329t-278.5 -179l553 -674h-408l-501 651h-76v-651h-320zM465 909h147q147 0 238.5 64.5t91.5 198t-91 198t-239 64.5h-147v-525z" />
<glyph unicode="S" horiz-adv-x="1363" d="M66 219l180 244l21.5 -21.5t58.5 -48.5t91 -61.5t111.5 -48t128.5 -21.5q113 0 199 47t86 166q0 49 -24.5 89t-83 78t-109.5 63.5t-150 68.5q-20 10 -32 14q-164 74 -252 185t-88 246q0 219 159.5 360t368.5 141q150 0 274.5 -45t174.5 -90l51 -43l-152 -233 q-14 14 -40.5 33.5t-111.5 53.5t-175 34q-113 0 -175.5 -56.5t-62.5 -142.5q0 -63 56.5 -111.5t162.5 -97.5q14 -6 79 -35t87.5 -39t79.5 -39.5t82.5 -49t71 -52.5t67 -63.5t46 -69.5t34.5 -84t10 -96q0 -266 -173 -396.5t-437 -130.5q-117 0 -222.5 25.5t-174 63.5 t-120.5 75t-75 62z" />
<glyph unicode="T" horiz-adv-x="1212" d="M12 1409v281h1188v-281h-434v-1409h-320v1409h-434z" />
<glyph unicode="U" horiz-adv-x="1527" d="M127 600v1090h319v-1000q0 -223 76 -315t242 -92t241.5 92t75.5 315v1000h320v-1090q0 -313 -162 -473t-475 -160t-475 160t-162 473z" />
<glyph unicode="V" horiz-adv-x="1581" d="M-45 1690h360l476 -1209l475 1209h360l-708 -1690h-254z" />
<glyph unicode="W" horiz-adv-x="2252" d="M-45 1690h354l328 -1254l367 1254h245l367 -1254l328 1254h354l-486 -1690h-356l-330 1073l-329 -1073h-357z" />
<glyph unicode="X" horiz-adv-x="1589" d="M-45 0l641 909l-535 781h381l353 -514l352 514h381l-535 -781l641 -909h-397l-442 633l-443 -633h-397z" />
<glyph unicode="Y" horiz-adv-x="1449" d="M-45 1690h383l387 -613l387 613h383l-610 -940v-750h-320v750z" />
<glyph unicode="Z" horiz-adv-x="1566" d="M47 0l911 1407h-794v283h1358l-916 -1407h858v-283h-1417z" />
<glyph unicode="[" horiz-adv-x="831" d="M145 -532v2293h594v-202h-331v-1889h331v-202h-594z" />
<glyph unicode="\" horiz-adv-x="1177" d="M37 1761h260l844 -1761h-260z" />
<glyph unicode="]" horiz-adv-x="831" d="M90 -330h332v1889h-332v202h594v-2293h-594v202z" />
<glyph unicode="^" horiz-adv-x="987" d="M-8 1239l424 483h155l424 -483h-274l-227 268l-228 -268h-274z" />
<glyph unicode="_" horiz-adv-x="1048" d="M0 -59h1049v-148h-1049v148z" />
<glyph unicode="`" horiz-adv-x="737" d="M100 1520l158 200l379 -323l-98 -135z" />
<glyph unicode="a" d="M68 524.5q0 235.5 148.5 396t375.5 160.5q229 0 369 -166v134h303v-1049h-303v143q-137 -176 -369 -176q-227 0 -375.5 161t-148.5 396.5zM387 524q0 -131 81 -215t210 -84q127 0 209 84t82 215t-83 215t-208 84t-208 -84t-83 -215z" />
<glyph unicode="b" d="M137 0v1761h303v-846q139 166 369 166q227 0 375.5 -160.5t148.5 -396t-148.5 -396.5t-375.5 -161q-231 0 -369 176v-143h-303zM432 524q0 -131 82 -215t209 -84q129 0 210 84t81 215t-83 215t-208 84t-208 -84t-83 -215z" />
<glyph unicode="c" horiz-adv-x="1048" d="M66 524.5q0 231.5 172 394t405 162.5q104 0 193.5 -25.5t126.5 -51.5l34 -25l-106 -209q-78 64 -205 64h-1q-126 0 -213 -90t-87 -220.5t87 -219.5t214 -89q57 0 108.5 15.5t73.5 31.5l23 17l106 -209q-14 -12 -39.5 -28.5t-117.5 -45.5t-197 -29q-233 0 -405 163 t-172 394.5z" />
<glyph unicode="d" d="M68 524.5q0 235.5 148.5 396t375.5 160.5q229 0 369 -166v846h303v-1761h-303v143q-137 -176 -369 -176q-227 0 -375.5 161t-148.5 396.5zM387 524q0 -131 81 -215t210 -84q127 0 209 84t82 215t-83 215t-208 84t-208 -84t-83 -215z" />
<glyph unicode="e" horiz-adv-x="1259" d="M66 526q0 229 166.5 392t402.5 163q242 0 400.5 -149.5t158.5 -401.5l-2 -45h-813q0 -131 86 -203.5t197 -72.5q98 0 161.5 30.5t128.5 108.5l219 -110q-162 -270 -532 -271q-238 0 -405.5 164t-167.5 395zM387 655h512q-12 90 -84 148.5t-172 58.5q-109 0 -179.5 -60.5 t-76.5 -146.5z" />
<glyph unicode="f" horiz-adv-x="727" d="M55 819v230h138v268q0 219 100 347t276 128q74 0 141.5 -21.5t98.5 -41.5l31 -21l-107 -215q-41 33 -112 33q-70 0 -97.5 -49.5t-27.5 -165.5v-262h247v-230h-247v-819h-303v819h-138z" />
<glyph unicode="g" d="M68 524.5q0 235.5 148.5 396t375.5 160.5q229 0 369 -166v134h303v-1078q0 -256 -165 -395t-442 -139q-438 0 -569 305l248 121q35 -70 118 -117t203.5 -47t212 74.5t91.5 214.5v155q-137 -176 -369 -176q-227 0 -375.5 161t-148.5 396.5zM387 524q0 -131 81 -215 t210 -84q127 0 209 84t82 215t-83 215t-208 84t-208 -84t-83 -215z" />
<glyph unicode="h" horiz-adv-x="1331" d="M143 0v1761h303v-831q130 151 310 151h2q115 0 213 -37.5t167.5 -131t69.5 -228.5v-684h-303v602q0 104 -58.5 174t-160.5 70q-96 0 -168 -69.5t-72 -158.5v-618h-303z" />
<glyph unicode="i" horiz-adv-x="589" d="M115 1448q0 76 52 128t128 52t128 -52t52 -128t-52 -128t-128 -52t-128 52t-52 128zM143 0v1049h303v-1049h-303z" />
<glyph unicode="j" horiz-adv-x="589" d="M-168 -502l94 244q43 -33 101 -33q117 0 116 164v1176h303v-1231q0 -162 -85 -271.5t-267 -109.5q-82 0 -147.5 15.5t-89.5 31.5zM115 1448q0 76 52 128t128 52t128 -52t52 -128t-52 -128t-128 -52t-128 52t-52 128z" />
<glyph unicode="k" horiz-adv-x="1232" d="M143 0v1761h303v-1093l367 381h391l-463 -476l539 -573h-387l-447 481v-481h-303z" />
<glyph unicode="l" horiz-adv-x="589" d="M143 0v1761h303v-1761h-303z" />
<glyph unicode="m" horiz-adv-x="2009" d="M143 0v1049h303v-119q136 151 312 151h2q123 0 220 -50t146 -150q153 200 351 200h2q176 0 291.5 -98t115.5 -299v-684h-301v602q0 104 -55 170t-162 66q-90 0 -145.5 -58.5t-55.5 -128.5v-651h-301v602q0 104 -55 170t-162 66q-94 0 -148.5 -61.5t-54.5 -135.5v-641 h-303z" />
<glyph unicode="n" horiz-adv-x="1331" d="M143 0v1049h303v-119q130 151 310 151h2q115 0 213 -37.5t167.5 -131t69.5 -228.5v-684h-303v602q0 104 -58.5 174t-160.5 70q-96 0 -168 -69.5t-72 -158.5v-618h-303z" />
<glyph unicode="o" horiz-adv-x="1359" d="M66 524.5q0 243.5 175 400t439 156.5t439 -156.5t175 -400t-175 -400.5t-439 -157t-439 157t-175 400.5zM381 524q0 -129 85 -214t214 -85t214 85t85 214t-85 214t-214 85t-214 -85t-85 -214z" />
<glyph unicode="p" d="M137 -532v1581h303v-134q139 166 369 166q227 0 375.5 -160.5t148.5 -396t-148.5 -396.5t-375.5 -161q-231 0 -369 176v-675h-303zM432 524q0 -131 82 -215t209 -84q129 0 210 84t81 215t-83 215t-208 84t-208 -84t-83 -215z" />
<glyph unicode="q" d="M68 524.5q0 235.5 148.5 396t375.5 160.5q229 0 369 -166v134h303v-1581h-303v675q-137 -176 -369 -176q-227 0 -375.5 161t-148.5 396.5zM387 524q0 -131 81 -215t210 -84q127 0 209 84t82 215t-83 215t-208 84t-208 -84t-83 -215z" />
<glyph unicode="r" horiz-adv-x="966" d="M143 0v1049h303v-152q10 16 32 42t62 60.5t101 58t127 23.5q57 0 110.5 -14t79.5 -29l25 -14l-125 -256q-68 51 -180 51q-66 0 -115 -28.5t-72.5 -70.5t-34 -75t-10.5 -53v-592h-303z" />
<glyph unicode="s" horiz-adv-x="999" d="M63 137l148 174q12 -12 35.5 -32.5t89 -53t127.5 -32.5q147 0 147 116q0 33 -23.5 58.5t-49 38t-83 35t-87.5 36.5q-104 49 -166 112.5t-62 170.5q0 150 114.5 235.5t311.5 85.5q98 0 182 -24.5t119 -48.5l35 -27l-129 -174q-96 61 -207 61q-139 0 -139 -92 q0 -43 43 -69.5t139 -55.5q63 -20 110.5 -40.5t99.5 -58.5t81 -96.5t29 -133.5q0 -84 -30 -148.5t-75 -102.5t-109.5 -62.5t-125 -33t-127.5 -8.5q-80 0 -150.5 17.5t-114.5 43t-75 50t-43 41.5z" />
<glyph unicode="t" horiz-adv-x="768" d="M55 819v230h138v393h303v-393h231v-230h-231v-424q0 -157 93 -157h1q25 0 48.5 8t35.5 16l12 8l74 -243q-102 -59 -240 -60q-180 0 -253.5 107.5t-73.5 265.5v479h-138z" />
<glyph unicode="u" horiz-adv-x="1314" d="M125 453v596h303v-527q0 -172 53.5 -240.5t176 -68.5t176 68.5t53.5 240.5v527h303v-596q0 -260 -128 -373t-404.5 -113t-404.5 113t-128 373z" />
<glyph unicode="v" horiz-adv-x="1236" d="M-31 1049h357l292 -648l293 648h357l-547 -1049h-205z" />
<glyph unicode="w" horiz-adv-x="1974" d="M-31 1049h348l291 -643l275 643h209l274 -643l291 643h348l-547 -1049h-205l-266 618l-266 -618h-205z" />
<glyph unicode="x" horiz-adv-x="1245" d="M-10 0l446 549l-385 500h352l220 -289l219 289h352l-385 -500l446 -549h-364l-268 340l-269 -340h-364z" />
<glyph unicode="y" horiz-adv-x="1245" d="M-31 1049h346l328 -631l287 631h346l-795 -1581h-346l332 657z" />
<glyph unicode="z" horiz-adv-x="1150" d="M23 0l593 815h-510v234h1022l-593 -816h557v-233h-1069z" />
<glyph unicode="{" horiz-adv-x="837" d="M133 532v164q127 0 127 125v570q0 70 14.5 130t49 117.5t101.5 90t161 32.5h166v-221h-72q-72 0 -115 -47t-43 -127v-561q0 -133 -104 -191q104 -57 104 -190v-561q0 -80 43 -127t115 -47h72v-221h-166q-94 0 -161 32.5t-101.5 90t-49 118t-14.5 129.5v570 q0 125 -127 124z" />
<glyph unicode="|" horiz-adv-x="552" d="M145 0v1761h263v-1761h-263z" />
<glyph unicode="}" horiz-adv-x="837" d="M86 -311h72q72 0 114.5 47t42.5 127v561q0 133 105 190q-104 57 -105 191v561q0 80 -43 127t-114 47h-72v221h166q94 0 160.5 -32.5t101.5 -90t49.5 -118t14.5 -129.5v-570q0 -125 127 -125v-164q-127 0 -127 -124v-570q0 -70 -14.5 -130t-49.5 -117.5t-101.5 -90 t-160.5 -32.5h-166v221z" />
<glyph unicode="~" horiz-adv-x="1396" d="M129 799q6 10 15.5 27.5t43 62.5t71.5 80t96.5 62.5t119.5 27.5q141 0 289 -107q96 -68 158 -67q53 0 100 40t68 79l18 40l160 -141q-6 -10 -15.5 -27.5t-43 -62.5t-71.5 -80t-96.5 -62.5t-119.5 -27.5q-135 1 -289 107q-96 68 -158 67q-53 0 -100 -40t-68 -81l-18 -39z " />
<glyph unicode="&#xa1;" horiz-adv-x="688" d="M145 1063q0 84 58.5 141.5t140.5 57.5t140.5 -57.5t58.5 -141.5t-58.5 -141.5t-140.5 -57.5t-140.5 57.5t-58.5 141.5zM195 -532l38 1249h222l39 -1249h-299z" />
<glyph unicode="&#xa2;" horiz-adv-x="1048" d="M66 524q0 188 118.5 336t298.5 199v244h187v-224q96 -2 178 -27.5t115 -47.5l34 -25l-106 -209q-78 63 -205 63.5t-214 -89t-87 -220.5t87 -220t214 -89q57 0 108.5 15.5t73.5 31.5l23 17l106 -209q-92 -78 -270 -99v-235h-186v241q-201 35 -338 188.5t-137 358.5z" />
<glyph unicode="&#xa3;" horiz-adv-x="1538" d="M121 606v170h229q-119 184 -119 375q0 246 152 408.5t416 162.5q127 0 230.5 -38.5t160.5 -89t98 -114t54.5 -99t17.5 -58.5l-268 -129q-6 27 -19.5 60.5t-44.5 87t-91 88t-138 34.5q-117 0 -184.5 -88t-67.5 -225q0 -45 5 -86t11 -68.5t20.5 -64.5t22.5 -53.5 t27.5 -53.5t25.5 -49h398v-170h-334q16 -55 16 -117q0 -43 -12 -83.5t-27 -69.5l-16 -29q20 0 147 -46t224 -46q57 0 99 42t54.5 76t16.5 58l233 -117q-2 -16 -11 -44.5t-36 -76t-64.5 -87t-105 -68.5t-151.5 -29q-137 0 -337 66.5t-288 66.5q-96 0 -135 -102h-195 q4 98 89 215t206 119q37 59 37 145q0 49 -31 127h-315z" />
<glyph unicode="&#xa5;" horiz-adv-x="1495" d="M-23 1690h383l388 -613l387 613h383l-535 -824h350v-227h-426v-158h426v-227h-426v-254h-319v254h-428v227h428v158h-428v227h352z" />
<glyph unicode="&#xa6;" horiz-adv-x="552" d="M145 0v680h263v-680h-263zM145 1081v680h263v-680h-263z" />
<glyph unicode="&#xa7;" horiz-adv-x="1310" d="M80 -223l256 106q2 -8 7 -20.5t27.5 -46t50.5 -59t77 -46t108 -20.5q109 0 166 46t57 124t-81.5 136t-258.5 134q-201 86 -302 194.5t-101 266.5q4 115 72.5 207t183.5 141q-94 68 -138 151t-44 201q0 182 132 305t376 123q104 0 190 -30.5t133 -73.5t80 -86t43 -74 l12 -31l-254 -108q-2 6 -5 16t-17 36t-34.5 45.5t-59.5 35.5t-88 16q-84 0 -131.5 -48t-47.5 -118q0 -72 79 -127t247 -126q211 -88 315.5 -200t104.5 -272q0 -96 -67.5 -195t-188.5 -153q184 -135 184 -358q0 -78 -29.5 -150.5t-91 -138t-174 -104.5t-262.5 -39 q-121 0 -219 34.5t-152.5 85t-92.5 100.5t-50 85zM365 639q2 -115 223 -209q160 -72 188 -88q74 20 126 67.5t56 118.5q-4 76 -84.5 133.5t-226.5 118.5q-35 14 -104 47q-72 -20 -124 -68t-54 -120z" />
<glyph unicode="&#xa8;" horiz-adv-x="1095" d="M145 1431.5q0 65.5 47.5 112.5t113 47t112.5 -47t47 -112.5t-47 -112.5t-112.5 -47t-113 47t-47.5 112.5zM629 1431.5q0 65.5 47 112.5t112.5 47t112.5 -47t47 -112.5t-47 -112.5t-112.5 -47t-112.5 47t-47 112.5z" />
<glyph unicode="&#xa9;" horiz-adv-x="1878" d="M68 843.5q0 362.5 256 619.5t614 257q360 0 616 -256t256 -620q0 -362 -255 -618.5t-617.5 -256.5t-616 256t-253.5 618.5zM266 843.5q0 -282.5 195.5 -480t476.5 -197.5q279 0 475.5 198.5t196.5 479.5q0 283 -196.5 480.5t-475.5 197.5q-276 0 -474 -198t-198 -480.5z M500 846q0 190 140 323.5t328.5 133.5t286.5 -82l-77 -154q-18 14 -70.5 30.5t-103.5 16.5q-111 0 -187 -76.5t-76 -189.5q0 -115 76 -191.5t187 -76.5q113 0 172 49l79 -156q-25 -23 -105.5 -51.5t-180.5 -28.5q-188 0 -328.5 132.5t-140.5 320.5z" />
<glyph unicode="&#xaa;" horiz-adv-x="1019" d="M139 1376.5q0 145.5 93.5 244.5t232.5 99q141 0 227 -102v82h187v-647h-187v88q-88 -109 -227 -109t-232.5 99.5t-93.5 245zM338 1376q0 -80 50 -132t130 -52q78 0 128 52t50 132t-51 132.5t-127 52.5q-78 0 -129 -52.5t-51 -132.5z" />
<glyph unicode="&#xab;" horiz-adv-x="1228" d="M57 569l400 512l161 -127l-299 -385l299 -385l-161 -127zM569 569l400 512l161 -127l-299 -385l299 -385l-161 -127z" />
<glyph unicode="&#xad;" horiz-adv-x="913" d="M127 461v262h659v-262h-659z" />
<glyph unicode="&#xae;" horiz-adv-x="1021" d="M53 1260q0 190 134.5 325t322.5 135q193 0 327 -135t134 -325q0 -188 -134.5 -322.5t-326.5 -134.5q-188 0 -322.5 134.5t-134.5 322.5zM156 1260q0 -145 104.5 -249t249.5 -104q147 0 251.5 103.5t104.5 249.5q0 147 -104.5 251.5t-251.5 104.5q-145 0 -249.5 -104.5 t-104.5 -251.5zM371 1028v471h145q72 0 115 -37t43 -104q0 -53 -30 -90t-81 -49l156 -191h-107l-141 184h-18v-184h-82zM453 1278h39q94 0 94 78t-94 78h-39v-156z" />
<glyph unicode="&#xaf;" horiz-adv-x="1122" d="M143 1319v205h836v-205h-836z" />
<glyph unicode="&#xb0;" horiz-adv-x="716" d="M127 1581q0 92 66.5 151.5t165 59.5t165 -59.5t66.5 -151.5t-66.5 -151.5t-165 -59.5t-165 59.5t-66.5 151.5zM256 1581q0 -45 29.5 -75.5t72.5 -30.5t73 30.5t30 75.5t-30 76t-73 31t-72.5 -31t-29.5 -76z" />
<glyph unicode="&#xb1;" horiz-adv-x="1310" d="M131 0v262h1049v-262h-1049zM131 760v262h393v352h262v-352h394v-262h-394v-354h-262v354h-393z" />
<glyph unicode="&#xb2;" horiz-adv-x="550" d="M63 1051v63q2 2 31 23.5t56.5 43t67.5 54.5t73 65.5t62.5 66.5t47 66.5t17.5 59.5q0 43 -26.5 83t-86.5 40q-39 0 -70.5 -32t-46.5 -64l-12 -31l-106 37q2 8 6 21.5t22.5 47t43 59t68.5 47t95 21.5q72 0 124 -22.5t76.5 -59t35 -72.5t10.5 -75q0 -35 -17.5 -74t-39 -69.5 t-57.5 -65.5t-57.5 -53.5t-54 -44t-34.5 -27.5h272v-108h-500z" />
<glyph unicode="&#xb3;" horiz-adv-x="514" d="M29 1212l114 43q2 -10 6.5 -26.5t34 -44t76.5 -27.5t77 26.5t30 71.5q0 47 -32 78t-75 31l-27 -4v82h29q37 0 65.5 27.5t28.5 66.5q0 37 -27.5 62.5t-64.5 25.5q-39 0 -64.5 -21.5t-31.5 -41.5l-8 -21l-99 35q0 6 3.5 16.5t16.5 35t33.5 44t59.5 35.5t90 16 q88 0 145.5 -52t57.5 -132q0 -90 -70 -129q92 -47 92 -154q0 -90 -64.5 -147t-164.5 -57q-55 0 -100 16t-68.5 39.5t-39 48.5t-19.5 41z" />
<glyph unicode="&#xb4;" horiz-adv-x="1030" d="M246 1397l379 323l157 -200l-438 -258z" />
<glyph unicode="&#xb5;" horiz-adv-x="1384" d="M121 -328q0 119 27.5 352.5t27.5 409.5v615h303v-603q0 -104 58.5 -173.5t160.5 -69.5q96 0 168 69.5t72 157.5v619h303v-1049h-303v119q-131 -152 -311 -152q-43 0 -80 11.5t-53 21.5l-17 12v-340h-356z" />
<glyph unicode="&#xb6;" horiz-adv-x="1415" d="M68 1182q0 219 146 363.5t388 144.5h668v-1690h-180v1509h-111v-1509h-180v651h-197q-240 0 -387 155t-147 376z" />
<glyph unicode="&#xb7;" horiz-adv-x="638" d="M121 551q0 84 58.5 141.5t140 57.5t140 -57.5t58.5 -141.5t-58.5 -141.5t-140 -57.5t-140 57.5t-58.5 141.5z" />
<glyph unicode="&#xb8;" horiz-adv-x="888" d="M147 -436l127 94q8 -12 23.5 -28.5t62 -45t93.5 -28.5q57 0 88.5 27.5t31.5 68.5q0 51 -39.5 79.5t-93.5 28.5q-35 0 -63.5 -6t-40.5 -12l-12 -6l-17 12l99 303l124 -39l-49 -151q10 2 27 2q106 0 175 -56.5t69 -154.5q0 -106 -76 -180t-223 -74q-51 0 -101.5 17.5 t-86.5 41t-63.5 48t-41.5 40.5z" />
<glyph unicode="&#xb9;" horiz-adv-x="274" d="M29 1571v119h213v-639h-121v520h-92z" />
<glyph unicode="&#xba;" horiz-adv-x="1040" d="M133 1374.5q0 151.5 110.5 248.5t276.5 97t276.5 -97t110.5 -248.5t-110.5 -249t-276.5 -97.5t-276.5 97.5t-110.5 249zM334 1374q0 -80 53 -131t133 -51t133.5 51t53.5 131t-53.5 131t-133.5 51t-133 -51t-53 -131z" />
<glyph unicode="&#xbb;" horiz-adv-x="1228" d="M98 184l299 385l-299 385l162 127l399 -512l-399 -512zM610 184l299 385l-299 385l162 127l399 -512l-399 -512z" />
<glyph unicode="&#xbc;" horiz-adv-x="1712" d="M74 1505v185h327v-983h-186v798h-141zM180 0l983 1690h203l-983 -1690h-203zM870 242v59l469 682h185v-580h114v-161h-114v-242h-174v242h-480zM1122 403h228v330z" />
<glyph unicode="&#xbd;" horiz-adv-x="1912" d="M127 1505v185h328v-983h-187v798h-141zM180 0l983 1690h203l-983 -1690h-203zM1059 0v92q2 2 46 35t83 64.5t98.5 81t106.5 96.5t92 97t69.5 98t24.5 87q0 61 -39 119.5t-127 58.5q-55 0 -102 -46t-66 -93l-20 -47l-158 55q2 12 9 32t35 69t62.5 88t99 69.5t140.5 30.5 q106 0 182 -32.5t113 -87t52.5 -106.5t15.5 -110q0 -45 -16.5 -93t-48.5 -92t-63.5 -82t-76.5 -78t-70.5 -61.5t-65.5 -51t-42 -31.5h399v-162h-733z" />
<glyph unicode="&#xbe;" horiz-adv-x="1955" d="M72 940l172 66q0 -6 2 -15.5t14 -35t28.5 -45t51.5 -35t78 -15.5q72 0 114.5 39t42.5 105q0 70 -46 114.5t-111 44.5l-39 -4v121h43q55 0 97 41t42 100q0 53 -41 90t-98 37q-55 0 -94 -30.5t-49 -59.5l-11 -31l-147 52q2 8 6 23.5t24.5 52t50 65.5t89 52.5t135.5 23.5 q129 0 215 -78t86 -197q0 -127 -104 -190q135 -70 135 -227q0 -131 -94.5 -217.5t-245.5 -86.5q-84 0 -150.5 25t-101.5 59.5t-58.5 70.5t-29.5 60zM424 0l983 1690h203l-983 -1690h-203zM1114 242v59l469 682h184v-580h115v-161h-115v-242h-174v242h-479zM1366 403h227v330 z" />
<glyph unicode="&#xbf;" horiz-adv-x="1210" d="M59 -53q0 162 110 309t318 186v197h283v-463q-47 14 -154 14q-137 0 -204.5 -75.5t-67.5 -167.5q0 -94 66.5 -168t199.5 -74q256 0 295 227l250 -53q-25 -180 -164 -311t-381 -131q-137 0 -247.5 49t-174 126t-96.5 164t-33 171zM430 991q0 82 57.5 140.5t141.5 58.5 t141 -58.5t57 -140.5t-57 -140t-141 -58t-141.5 58t-57.5 140z" />
<glyph unicode="&#xc0;" horiz-adv-x="1556" d="M-45 0l676 1690h295l676 -1690h-342l-148 395h-668l-147 -395h-342zM340 2099l158 201l379 -324l-99 -135zM555 676h446l-223 581z" />
<glyph unicode="&#xc1;" horiz-adv-x="1556" d="M-45 0l676 1690h295l676 -1690h-342l-148 395h-668l-147 -395h-342zM555 676h446l-223 581zM680 1976l379 324l158 -201l-439 -258z" />
<glyph unicode="&#xc2;" horiz-adv-x="1556" d="M-45 0l676 1690h295l676 -1690h-342l-148 395h-668l-147 -395h-342zM346 1999l432 315l432 -315l-118 -158l-314 230l-313 -230zM555 676h446l-223 581z" />
<glyph unicode="&#xc3;" horiz-adv-x="1556" d="M-45 0l676 1690h295l676 -1690h-342l-148 395h-668l-147 -395h-342zM209 2058q145 260 346 260q129 0 289 -106q96 -68 157 -68q29 0 54.5 11.5t44 27t36 35.5t25.5 36.5t19 33.5l8 16l160 -141q-145 -260 -347 -260q-129 0 -288 106q-96 68 -158 68q-29 0 -54.5 -11.5 t-44 -27t-36 -36t-25.5 -36.5t-18 -33l-8 -16zM555 676h446l-223 581z" />
<glyph unicode="&#xc4;" horiz-adv-x="1556" d="M-45 0l676 1690h295l676 -1690h-342l-148 395h-668l-147 -395h-342zM377 2070.5q0 65.5 47 112.5t112.5 47t112.5 -47t47 -112.5t-47 -112.5t-112.5 -47t-112.5 47t-47 112.5zM555 676h446l-223 581zM860 2070.5q0 65.5 47 112.5t112.5 47t113 -47t47.5 -112.5 t-47.5 -112.5t-113 -47t-112.5 47t-47 112.5z" />
<glyph unicode="&#xc5;" horiz-adv-x="1556" d="M-45 0l676 1690h295l676 -1690h-342l-148 395h-668l-147 -395h-342zM475 2138q0 117 87 192.5t216 75.5t216 -75.5t87 -192.5t-87 -192.5t-216 -75.5t-216 75.5t-87 192.5zM555 676h446l-223 581zM649 2138q0 -53 38 -90t91 -37t91 37t38 90t-38 90t-91 37t-91 -37 t-38 -90z" />
<glyph unicode="&#xc6;" horiz-adv-x="1820" d="M-45 0l676 1690h1081v-281h-614v-422h590v-280h-590v-426h614v-281h-934v395h-334l-147 -395h-342zM555 676h223v581z" />
<glyph unicode="&#xc7;" horiz-adv-x="1572" d="M68 844q0 238 124.5 440.5t333.5 319t449 116.5q164 0 302 -41t193 -82l58 -38l-158 -256q-14 12 -42 28.5t-118 45t-186 28.5q-145 0 -265 -49t-192.5 -130t-111.5 -179.5t-39 -203t39 -202.5t111.5 -179t192.5 -130t265 -49q96 0 182 25.5t125 51.5l39 25l158 -256 q-8 -6 -22.5 -17.5t-65.5 -39t-110.5 -49t-156 -39t-198.5 -17.5q-49 0 -98 6l-35 -112q10 2 26 2q106 0 175 -56.5t69 -154.5q0 -106 -75.5 -180t-223.5 -74q-51 0 -101 17.5t-86 41t-63.5 48t-42.5 40.5l-12 19l127 94q8 -12 23.5 -28.5t61.5 -45t93 -28.5q57 0 89 27.5 t32 68.5q0 51 -40 79.5t-93 28.5q-35 0 -63.5 -6t-41.5 -12l-12 -6l-16 12l80 248q-293 76 -486.5 311.5t-193.5 536.5z" />
<glyph unicode="&#xc8;" horiz-adv-x="1187" d="M145 0v1690h934v-281h-614v-422h590v-280h-590v-426h614v-281h-934zM283 2099l157 201l379 -324l-98 -135z" />
<glyph unicode="&#xc9;" horiz-adv-x="1187" d="M145 0v1690h934v-281h-614v-422h590v-280h-590v-426h614v-281h-934zM406 1976l378 324l158 -201l-438 -258z" />
<glyph unicode="&#xca;" horiz-adv-x="1187" d="M145 0v1690h934v-281h-614v-422h590v-280h-590v-426h614v-281h-934zM180 1999l432 315l432 -315l-118 -158l-314 230l-313 -230z" />
<glyph unicode="&#xcb;" horiz-adv-x="1187" d="M145 0v1690h934v-281h-614v-422h590v-280h-590v-426h614v-281h-934zM211 2070.5q0 65.5 47 112.5t112.5 47t112.5 -47t47 -112.5t-47 -112.5t-112.5 -47t-112.5 47t-47 112.5zM694 2070.5q0 65.5 47 112.5t113 47t113 -47t47 -112.5t-47 -112.5t-113 -47t-113 47 t-47 112.5z" />
<glyph unicode="&#xcc;" horiz-adv-x="610" d="M-133 2099l158 201l378 -324l-98 -135zM145 0v1690h320v-1690h-320z" />
<glyph unicode="&#xcd;" horiz-adv-x="610" d="M145 0v1690h320v-1690h-320zM207 1976l379 324l157 -201l-438 -258z" />
<glyph unicode="&#xce;" horiz-adv-x="610" d="M-127 1999l432 315l432 -315l-119 -158l-313 230l-313 -230zM145 0v1690h320v-1690h-320z" />
<glyph unicode="&#xcf;" horiz-adv-x="610" d="M-96 2070.5q0 65.5 47 112.5t112.5 47t112.5 -47t47 -112.5t-47 -112.5t-112.5 -47t-112.5 47t-47 112.5zM145 0v1690h320v-1690h-320zM387 2070.5q0 65.5 47 112.5t112.5 47t113 -47t47.5 -112.5t-47.5 -112.5t-113 -47t-112.5 47t-47 112.5z" />
<glyph unicode="&#xd0;" horiz-adv-x="1523" d="M-20 715v260h165v715h459q352 0 602 -242t250 -604q0 -365 -249 -604.5t-603 -239.5h-459v715h-165zM465 285h102q236 0 390.5 159.5t154.5 399t-154.5 400.5t-390.5 161h-102v-430h289v-260h-289v-430z" />
<glyph unicode="&#xd1;" horiz-adv-x="1675" d="M145 0v1690h320l745 -1155v1155h320v-1690h-320l-745 1155v-1155h-320zM268 2064q145 260 346 260q129 0 289 -106q96 -68 158 -68q29 0 54.5 11.5t44 27t35.5 36t25.5 36.5t16.5 33l10 16l160 -141q-145 -260 -346 -260q-129 0 -289 106q-96 68 -158 68q-29 0 -54 -11.5 t-43.5 -26.5t-36 -35.5t-26 -37t-16.5 -33.5l-10 -16z" />
<glyph unicode="&#xd2;" horiz-adv-x="1839" d="M68 843.5q0 366.5 249.5 621.5t602 255t602.5 -255t250 -621.5t-250 -621.5t-602.5 -255t-602 255t-249.5 621.5zM414 843.5q0 -233.5 137 -401.5t368.5 -168t368.5 168t137 401.5t-137 401.5t-368.5 168t-368.5 -168t-137 -401.5zM590 2099l158 201l378 -324l-98 -135z " />
<glyph unicode="&#xd3;" horiz-adv-x="1839" d="M68 843.5q0 366.5 249.5 621.5t602 255t602.5 -255t250 -621.5t-250 -621.5t-602.5 -255t-602 255t-249.5 621.5zM414 843.5q0 -233.5 137 -401.5t368.5 -168t368.5 168t137 401.5t-137 401.5t-368.5 168t-368.5 -168t-137 -401.5zM713 1976l379 324l157 -201l-438 -258z " />
<glyph unicode="&#xd4;" horiz-adv-x="1839" d="M68 843.5q0 366.5 249.5 621.5t602 255t602.5 -255t250 -621.5t-250 -621.5t-602.5 -255t-602 255t-249.5 621.5zM414 843.5q0 -233.5 137 -401.5t368.5 -168t368.5 168t137 401.5t-137 401.5t-368.5 168t-368.5 -168t-137 -401.5zM487 1999l433 315l432 -315l-119 -158 l-313 230l-314 -230z" />
<glyph unicode="&#xd5;" horiz-adv-x="1839" d="M68 843.5q0 366.5 249.5 621.5t602 255t602.5 -255t250 -621.5t-250 -621.5t-602.5 -255t-602 255t-249.5 621.5zM350 2040q145 260 346 260q129 0 289 -107q96 -68 158 -67q29 0 54.5 11t44 26.5t35.5 36t25.5 37t16.5 32.5l10 17l160 -142q-145 -260 -346 -260 q-129 0 -289 107q-96 68 -158 67q-29 0 -54.5 -11t-43.5 -26.5t-35.5 -36t-26 -37t-16.5 -32.5l-10 -17zM414 843.5q0 -233.5 137 -401.5t368.5 -168t368.5 168t137 401.5t-137 401.5t-368.5 168t-368.5 -168t-137 -401.5z" />
<glyph unicode="&#xd6;" horiz-adv-x="1839" d="M68 843.5q0 366.5 249.5 621.5t602 255t602.5 -255t250 -621.5t-250 -621.5t-602.5 -255t-602 255t-249.5 621.5zM414 843.5q0 -233.5 137 -401.5t368.5 -168t368.5 168t137 401.5t-137 401.5t-368.5 168t-368.5 -168t-137 -401.5zM518 2070.5q0 65.5 47 112.5t112.5 47 t113 -47t47.5 -112.5t-47.5 -112.5t-113 -47t-112.5 47t-47 112.5zM1001 2070.5q0 65.5 47.5 112.5t113 47t112.5 -47t47 -112.5t-47 -112.5t-112.5 -47t-113 47t-47.5 112.5z" />
<glyph unicode="&#xd7;" horiz-adv-x="1257" d="M115 518l329 332l-329 332l184 182l330 -332l329 332l185 -182l-330 -332l330 -332l-185 -182l-329 332l-330 -332z" />
<glyph unicode="&#xd8;" horiz-adv-x="1839" d="M68 844q0 367 249.5 621.5t602.5 254.5q236 0 438 -125l110 140l193 -148l-117 -147q227 -248 228 -596q0 -367 -250 -622t-602 -255q-240 0 -443 125l-106 -135l-193 147l115 144q-225 252 -225 596zM414 844q0 -188 86 -332l663 838q-111 63 -243 63 q-231 0 -368.5 -168t-137.5 -401zM672 338q109 -63 248 -64q231 0 368 168.5t137 401.5q0 188 -90 334z" />
<glyph unicode="&#xd9;" horiz-adv-x="1527" d="M127 600v1090h319v-1000q0 -223 76 -315t242 -92t241.5 92t75.5 315v1000h320v-1090q0 -313 -162 -473t-475 -160t-475 160t-162 473zM434 2099l158 201l379 -324l-99 -135z" />
<glyph unicode="&#xda;" horiz-adv-x="1527" d="M127 600v1090h319v-1000q0 -223 76 -315t242 -92t241.5 92t75.5 315v1000h320v-1090q0 -313 -162 -473t-475 -160t-475 160t-162 473zM557 1976l379 324l158 -201l-439 -258z" />
<glyph unicode="&#xdb;" horiz-adv-x="1527" d="M127 600v1090h319v-1000q0 -223 76 -315t242 -92t241.5 92t75.5 315v1000h320v-1090q0 -313 -162 -473t-475 -160t-475 160t-162 473zM332 1999l432 315l432 -315l-119 -158l-313 230l-313 -230z" />
<glyph unicode="&#xdc;" horiz-adv-x="1527" d="M127 600v1090h319v-1000q0 -223 76 -315t242 -92t241.5 92t75.5 315v1000h320v-1090q0 -313 -162 -473t-475 -160t-475 160t-162 473zM362 2070.5q0 65.5 47.5 112.5t113 47t112.5 -47t47 -112.5t-47 -112.5t-112.5 -47t-113 47t-47.5 112.5zM846 2070.5q0 65.5 47 112.5 t112.5 47t112.5 -47t47 -112.5t-47 -112.5t-112.5 -47t-112.5 47t-47 112.5z" />
<glyph unicode="&#xdd;" horiz-adv-x="1449" d="M-45 1690h383l387 -613l387 613h383l-610 -940v-750h-320v750zM498 1976l379 324l157 -201l-438 -258z" />
<glyph unicode="&#xde;" horiz-adv-x="1490" d="M145 0v1690h320v-328h246q256 0 411.5 -131t155.5 -377t-156.5 -388t-410.5 -142h-246v-324h-320zM465 582h147q145 0 233.5 65.5t88.5 196.5q0 133 -88 197.5t-234 64.5h-147v-524z" />
<glyph unicode="&#xdf;" horiz-adv-x="1335" d="M59 688v232h136v370q0 215 149.5 358.5t353.5 143.5q223 0 366.5 -140.5t143.5 -348.5q0 -121 -58 -215.5t-161 -145.5q131 -57 207 -167.5t76 -262.5q0 -270 -172 -407.5t-475 -137.5v277q154 0 240.5 70.5t86.5 211.5q0 143 -88 218t-239 75v234q131 0 215 63.5 t84 186.5q0 106 -61.5 169.5t-164.5 63.5q-203 0 -202 -319v-1217h-301v688h-136z" />
<glyph unicode="&#xe0;" d="M68 524.5q0 235.5 148.5 396t375.5 160.5q229 0 369 -166v134h303v-1049h-303v143q-137 -176 -369 -176q-227 0 -375.5 161t-148.5 396.5zM356 1458l158 201l379 -324l-98 -135zM387 524q0 -131 81 -215t210 -84q127 0 209 84t82 215t-83 215t-208 84t-208 -84t-83 -215z " />
<glyph unicode="&#xe1;" d="M68 524.5q0 235.5 148.5 396t375.5 160.5q229 0 369 -166v134h303v-1049h-303v143q-137 -176 -369 -176q-227 0 -375.5 161t-148.5 396.5zM387 524q0 -131 81 -215t210 -84q127 0 209 84t82 215t-83 215t-208 84t-208 -84t-83 -215zM438 1337l379 324l158 -201l-438 -258 z" />
<glyph unicode="&#xe2;" d="M68 524.5q0 235.5 148.5 396t375.5 160.5q229 0 369 -166v134h303v-1049h-303v143q-137 -176 -369 -176q-227 0 -375.5 161t-148.5 396.5zM233 1360l433 315l432 -315l-119 -158l-313 230l-314 -230zM387 524q0 -131 81 -215t210 -84q127 0 209 84t82 215t-83 215 t-208 84t-208 -84t-83 -215z" />
<glyph unicode="&#xe3;" d="M68 524.5q0 235.5 148.5 396t375.5 160.5q229 0 369 -166v134h303v-1049h-303v143q-137 -176 -369 -176q-227 0 -375.5 161t-148.5 396.5zM96 1401q145 260 346 260q129 0 289 -107q96 -68 158 -67q29 0 54.5 11t44 26.5t35.5 36t25.5 37t16.5 32.5l10 17l160 -142 q-145 -260 -346 -260q-129 0 -289 107q-96 68 -158 67q-29 0 -54.5 -11t-43.5 -26.5t-35.5 -36t-26 -37t-16.5 -32.5l-10 -16zM387 524q0 -131 81 -215t210 -84q127 0 209 84t82 215t-83 215t-208 84t-208 -84t-83 -215z" />
<glyph unicode="&#xe4;" d="M68 524.5q0 235.5 148.5 396t375.5 160.5q229 0 369 -166v134h303v-1049h-303v143q-137 -176 -369 -176q-227 0 -375.5 161t-148.5 396.5zM264 1431.5q0 65.5 47 112.5t112.5 47t113 -47t47.5 -112.5t-47.5 -112.5t-113 -47t-112.5 47t-47 112.5zM387 524q0 -131 81 -215 t210 -84q127 0 209 84t82 215t-83 215t-208 84t-208 -84t-83 -215zM748 1431.5q0 65.5 47 112.5t112.5 47t112.5 -47t47 -112.5t-47 -112.5t-112.5 -47t-112.5 47t-47 112.5z" />
<glyph unicode="&#xe5;" d="M68 524.5q0 235.5 148.5 396t375.5 160.5q229 0 369 -166v134h303v-1049h-303v143q-137 -176 -369 -176q-227 0 -375.5 161t-148.5 396.5zM362 1499q0 117 87.5 192.5t216.5 75.5t216 -75.5t87 -192.5t-87 -192.5t-216 -75.5t-216.5 75.5t-87.5 192.5zM387 524 q0 -131 81 -215t210 -84q127 0 209 84t82 215t-83 215t-208 84t-208 -84t-83 -215zM537 1499q0 -53 37.5 -90t91 -37t91.5 37t38 90t-38 90t-91.5 37t-91 -37t-37.5 -90z" />
<glyph unicode="&#xe6;" horiz-adv-x="2021" d="M123 285q0 145 104.5 241.5t278.5 96.5q221 0 330 -97v90q0 102 -77 163t-181 61q-88 0 -160 -19.5t-101 -38.5l-28 -20l-101 205q12 12 39 31.5t127.5 51t223.5 31.5q283 0 423 -168q156 168 396 168q242 0 400.5 -149.5t158.5 -401.5l-2 -45h-813q0 -131 86 -203.5 t196 -72.5q98 0 162 30.5t129 108.5l219 -110q-162 -270 -532 -271q-258 0 -418 191q-217 -190 -465 -191q-170 0 -282.5 88.5t-112.5 229.5zM422 309.5q0 -69.5 60.5 -112.5t150.5 -43q88 0 150.5 46t62.5 109.5t-61.5 106.5t-151.5 43t-150.5 -40t-60.5 -109.5zM1149 655 h512q-12 90 -84 148.5t-172 58.5q-109 0 -179.5 -60.5t-76.5 -146.5z" />
<glyph unicode="&#xe7;" horiz-adv-x="1050" d="M68 524q0 231 172 394t405 163q104 0 193.5 -25.5t124.5 -51.5l36 -25l-106 -209q-78 63 -205 63.5t-214 -89t-87 -220.5t87 -220t214 -89q57 0 108.5 15.5t73.5 31.5l23 17l106 -209q-14 -12 -39.5 -28.5t-117.5 -45.5t-197 -29q-25 0 -37 2l-35 -108q10 2 27 2 q106 0 175 -56.5t69 -154.5q0 -106 -76 -180t-223 -74q-82 0 -158 41t-113 82l-34 43l127 94q8 -12 23.5 -28.5t61.5 -45t93 -28.5q57 0 89 27.5t32 68.5q0 51 -40 79.5t-94 28.5q-35 0 -63.5 -6t-40.5 -12l-12 -6l-17 12l78 244q-178 53 -293.5 198.5t-115.5 333.5z" />
<glyph unicode="&#xe8;" horiz-adv-x="1259" d="M66 526q0 229 166.5 392t402.5 163q242 0 400.5 -149.5t158.5 -401.5l-2 -45h-813q0 -131 86 -203.5t197 -72.5q98 0 161.5 30.5t128.5 108.5l219 -110q-162 -270 -532 -271q-238 0 -405.5 164t-167.5 395zM326 1460l157 201l379 -324l-98 -135zM387 655h512 q-12 90 -84 148.5t-172 58.5q-109 0 -179.5 -60.5t-76.5 -146.5z" />
<glyph unicode="&#xe9;" horiz-adv-x="1259" d="M66 526q0 229 166.5 392t402.5 163q242 0 400.5 -149.5t158.5 -401.5l-2 -45h-813q0 -131 86 -203.5t197 -72.5q98 0 161.5 30.5t128.5 108.5l219 -110q-162 -270 -532 -271q-238 0 -405.5 164t-167.5 395zM387 655h512q-12 90 -84 148.5t-172 58.5q-109 0 -179.5 -60.5 t-76.5 -146.5zM408 1337l378 324l158 -201l-438 -258z" />
<glyph unicode="&#xea;" horiz-adv-x="1259" d="M66 526q0 229 166.5 392t402.5 163q242 0 400.5 -149.5t158.5 -401.5l-2 -45h-813q0 -131 86 -203.5t197 -72.5q98 0 161.5 30.5t128.5 108.5l219 -110q-162 -270 -532 -271q-238 0 -405.5 164t-167.5 395zM203 1360l432 315l432 -315l-119 -158l-313 230l-313 -230z M387 655h512q-12 90 -84 148.5t-172 58.5q-109 0 -179.5 -60.5t-76.5 -146.5z" />
<glyph unicode="&#xeb;" horiz-adv-x="1259" d="M66 526q0 229 166.5 392t402.5 163q242 0 400.5 -149.5t158.5 -401.5l-2 -45h-813q0 -131 86 -203.5t197 -72.5q98 0 161.5 30.5t128.5 108.5l219 -110q-162 -270 -532 -271q-238 0 -405.5 164t-167.5 395zM233 1402.5q0 65.5 47.5 113t113 47.5t112.5 -47.5t47 -113 t-47 -112.5t-112.5 -47t-113 47t-47.5 112.5zM387 655h512q-12 90 -84 148.5t-172 58.5q-109 0 -179.5 -60.5t-76.5 -146.5zM717 1402.5q0 65.5 47 113t112.5 47.5t112.5 -47.5t47 -113t-47 -112.5t-112.5 -47t-112.5 47t-47 112.5z" />
<glyph unicode="&#xec;" horiz-adv-x="589" d="M-143 1460l157 201l379 -324l-98 -135zM143 0v1049h303v-1049h-303z" />
<glyph unicode="&#xed;" horiz-adv-x="589" d="M143 0v1049h303v-1049h-303zM197 1337l378 324l158 -201l-438 -258z" />
<glyph unicode="&#xee;" horiz-adv-x="589" d="M-137 1360l432 315l432 -315l-119 -158l-313 230l-313 -230zM143 0v1049h303v-1049h-303z" />
<glyph unicode="&#xef;" horiz-adv-x="589" d="M-106 1404.5q0 65.5 47 113t112.5 47.5t112.5 -47.5t47 -113t-47 -112.5t-112.5 -47t-112.5 47t-47 112.5zM143 0v1049h303v-1049h-303zM377 1404.5q0 65.5 47 113t112.5 47.5t112.5 -47.5t47 -113t-47 -112.5t-112.5 -47t-112.5 47t-47 112.5z" />
<glyph unicode="&#xf0;" horiz-adv-x="1406" d="M96 524q0 242 168 399.5t367 157.5q156 0 243 -80q-88 201 -270 338l-168 -165l-133 133l131 133q-41 20 -84 38.5t-70.5 29t-53 18.5t-29.5 10l73 256q2 0 28 -8t58.5 -19.5t76.5 -28t97.5 -41t106.5 -53.5l151 150l134 -135l-117 -117q233 -168 377.5 -421t144.5 -595 q0 -242 -174 -399.5t-438 -157.5q-274 0 -446.5 156.5t-172.5 400.5zM414 524q0 -131 83 -214t216 -83q129 0 213 83t84 214q0 129 -86 214t-211 85q-129 0 -214 -85t-85 -214z" />
<glyph unicode="&#xf1;" horiz-adv-x="1331" d="M106 1386q145 260 347 261q129 0 288 -107q96 -68 158 -67q29 0 54.5 11t44 26.5t36 36t25.5 36.5t18 33l8 16l160 -141q-145 -260 -346 -260q-129 0 -289 106q-96 68 -157 68q-29 0 -54.5 -11.5t-44 -26.5t-36 -35.5t-25.5 -37t-19 -32.5l-8 -17zM143 0v1049h303v-119 q131 152 312 151q115 0 213 -37.5t167.5 -131t69.5 -228.5v-684h-303v602q0 104 -58.5 174t-160.5 70q-96 0 -168 -69.5t-72 -158.5v-618h-303z" />
<glyph unicode="&#xf2;" horiz-adv-x="1359" d="M66 524.5q0 243.5 175 400t439 156.5t439 -156.5t175 -400t-175 -400.5t-439 -157t-439 157t-175 400.5zM371 1460l157 201l379 -324l-98 -135zM381 524q0 -129 85 -214t214 -85t214 85t85 214t-85 214t-214 85t-214 -85t-85 -214z" />
<glyph unicode="&#xf3;" horiz-adv-x="1359" d="M66 524.5q0 243.5 175 400t439 156.5t439 -156.5t175 -400t-175 -400.5t-439 -157t-439 157t-175 400.5zM381 524q0 -129 85 -214t214 -85t214 85t85 214t-85 214t-214 85t-214 -85t-85 -214zM453 1337l378 324l158 -201l-438 -258z" />
<glyph unicode="&#xf4;" horiz-adv-x="1359" d="M66 524.5q0 243.5 175 400t439 156.5t439 -156.5t175 -400t-175 -400.5t-439 -157t-439 157t-175 400.5zM248 1360l432 315l432 -315l-119 -158l-313 230l-313 -230zM381 524q0 -129 85 -214t214 -85t214 85t85 214t-85 214t-214 85t-214 -85t-85 -214z" />
<glyph unicode="&#xf5;" horiz-adv-x="1359" d="M66 524.5q0 243.5 175 400t439 156.5t439 -156.5t175 -400t-175 -400.5t-439 -157t-439 157t-175 400.5zM111 1346q145 260 346 260q129 0 288 -107q96 -68 158 -67q29 0 54.5 11t44 26.5t36 36t25.5 37t18 32.5l9 16l159 -141q-145 -260 -346 -260q-129 0 -289 106 q-96 68 -157 68q-29 0 -54.5 -11.5t-44 -26.5t-36 -35.5t-25.5 -37t-18 -32.5l-9 -17zM381 524q0 -129 85 -214t214 -85t214 85t85 214t-85 214t-214 85t-214 -85t-85 -214z" />
<glyph unicode="&#xf6;" horiz-adv-x="1359" d="M66 524.5q0 243.5 175 400t439 156.5t439 -156.5t175 -400t-175 -400.5t-439 -157t-439 157t-175 400.5zM279 1431.5q0 65.5 47 112.5t112.5 47t112.5 -47t47 -112.5t-47 -112.5t-112.5 -47t-112.5 47t-47 112.5zM381 524q0 -129 85 -214t214 -85t214 85t85 214t-85 214 t-214 85t-214 -85t-85 -214zM762 1431.5q0 65.5 47 112.5t112.5 47t112.5 -47t47 -112.5t-47 -112.5t-112.5 -47t-112.5 47t-47 112.5z" />
<glyph unicode="&#xf7;" horiz-adv-x="1310" d="M131 719v262h1049v-262h-1049zM512 378.5q0 59.5 42 101.5t101.5 42t101.5 -42t42 -101.5t-42 -101t-101.5 -41.5t-101.5 41.5t-42 101zM512 1319q0 59 42 101t101.5 42t101.5 -42t42 -101t-42 -101t-101.5 -42t-101.5 42t-42 101z" />
<glyph unicode="&#xf8;" horiz-adv-x="1361" d="M-6 51l180 146q-106 141 -106 327q0 244 175 400.5t439 156.5q242 0 416 -137l186 152l82 -99l-178 -145q109 -145 108 -328q0 -244 -175 -400.5t-439 -156.5q-246 0 -418 139l-190 -153zM383 524q0 -72 29 -135l458 371q-80 63 -188 63q-129 0 -214 -85t-85 -214z M489 289q80 -63 193 -64q129 0 214 85t85 214q0 70 -31 138z" />
<glyph unicode="&#xf9;" horiz-adv-x="1314" d="M125 453v596h303v-527q0 -172 53.5 -240.5t176 -68.5t176 68.5t53.5 240.5v527h303v-596q0 -260 -128 -373t-404.5 -113t-404.5 113t-128 373zM348 1458l158 201l379 -324l-99 -135z" />
<glyph unicode="&#xfa;" horiz-adv-x="1314" d="M125 453v596h303v-527q0 -172 53.5 -240.5t176 -68.5t176 68.5t53.5 240.5v527h303v-596q0 -260 -128 -373t-404.5 -113t-404.5 113t-128 373zM430 1337l379 324l158 -201l-439 -258z" />
<glyph unicode="&#xfb;" horiz-adv-x="1314" d="M125 453v596h303v-527q0 -172 53.5 -240.5t176 -68.5t176 68.5t53.5 240.5v527h303v-596q0 -260 -128 -373t-404.5 -113t-404.5 113t-128 373zM225 1360l432 315l433 -315l-119 -158l-314 230l-313 -230z" />
<glyph unicode="&#xfc;" horiz-adv-x="1314" d="M125 453v596h303v-527q0 -172 53.5 -240.5t176 -68.5t176 68.5t53.5 240.5v527h303v-596q0 -260 -128 -373t-404.5 -113t-404.5 113t-128 373zM256 1402.5q0 65.5 47 113t112.5 47.5t112.5 -47.5t47 -113t-47 -112.5t-112.5 -47t-112.5 47t-47 112.5zM739 1402.5 q0 65.5 47.5 113t113 47.5t112.5 -47.5t47 -113t-47 -112.5t-112.5 -47t-113 47t-47.5 112.5z" />
<glyph unicode="&#xfd;" horiz-adv-x="1245" d="M-31 1049h346l328 -631l287 631h346l-795 -1581h-346l332 657zM395 1337l379 324l158 -201l-438 -258z" />
<glyph unicode="&#xfe;" d="M139 -532v2293h303v-846q139 166 369 166q227 0 375.5 -160.5t148.5 -396t-148.5 -396.5t-375.5 -161q-231 0 -369 176v-675h-303zM434 524q0 -131 82 -215t209 -84q129 0 210 84t81 215t-83 215t-208 84t-208 -84t-83 -215z" />
<glyph unicode="&#xff;" horiz-adv-x="1245" d="M-31 1049h346l328 -631l287 631h346l-795 -1581h-346l332 657zM242 1402.5q0 65.5 47 113t112.5 47.5t112.5 -47.5t47 -113t-47 -112.5t-112.5 -47t-112.5 47t-47 112.5zM725 1402.5q0 65.5 47 113t112.5 47.5t112.5 -47.5t47 -113t-47 -112.5t-112.5 -47t-112.5 47 t-47 112.5z" />
<glyph unicode="&#x152;" horiz-adv-x="2045" d="M70 844q0 172 52 314t141 239.5t209 164t253 97.5t279 31h933v-281h-614v-422h590v-280h-590v-426h614v-281h-933q-182 0 -345 50t-297.5 148.5t-213 265.5t-78.5 380zM416 844q0 -258 161.5 -407.5t426.5 -149.5v1116q-260 0 -424 -151.5t-164 -407.5z" />
<glyph unicode="&#x153;" horiz-adv-x="2156" d="M66 524.5q0 243.5 175 400t439 156.5q250 0 416 -198q172 199 436 198q242 0 400.5 -149.5t158.5 -401.5l-2 -45h-813q0 -131 86 -203.5t197 -72.5q98 0 161.5 30.5t128.5 108.5l219 -110q-162 -270 -532 -271q-129 0 -243.5 53.5t-194.5 145.5q-164 -199 -418 -199 q-264 0 -439 157t-175 400.5zM381 524q0 -129 85 -214t214 -85t214 85t85 214t-85 214t-214 85t-214 -85t-85 -214zM1284 655h512q-12 90 -84 148.5t-172 58.5q-109 0 -179.5 -60.5t-76.5 -146.5z" />
<glyph unicode="&#x178;" horiz-adv-x="1449" d="M-45 1690h383l387 -613l387 613h383l-610 -940v-750h-320v750zM324 2070.5q0 65.5 47 112.5t112.5 47t112.5 -47t47 -112.5t-47 -112.5t-112.5 -47t-112.5 47t-47 112.5zM807 2070.5q0 65.5 47 112.5t112.5 47t112.5 -47t47 -112.5t-47 -112.5t-112.5 -47t-112.5 47 t-47 112.5z" />
<glyph unicode="&#x2c6;" horiz-adv-x="1159" d="M147 1405l433 315l432 -315l-119 -158l-313 230l-314 -230z" />
<glyph unicode="&#x2dc;" horiz-adv-x="1218" d="M39 1343q145 260 346 261q129 0 289 -107q96 -68 157 -67q29 0 54.5 11t44 26.5t36 36t25.5 36.5t17 33l10 16l160 -141q-145 -260 -347 -260q-129 0 -288 106q-96 68 -158 68q-29 0 -54.5 -11.5t-44 -26.5t-36 -35.5t-25.5 -37t-16 -32.5l-10 -17z" />
<glyph unicode="&#x2000;" horiz-adv-x="1203" />
<glyph unicode="&#x2001;" horiz-adv-x="2406" />
<glyph unicode="&#x2002;" horiz-adv-x="1203" />
<glyph unicode="&#x2003;" horiz-adv-x="2406" />
<glyph unicode="&#x2004;" horiz-adv-x="802" />
<glyph unicode="&#x2005;" horiz-adv-x="601" />
<glyph unicode="&#x2006;" horiz-adv-x="401" />
<glyph unicode="&#x2007;" horiz-adv-x="401" />
<glyph unicode="&#x2008;" horiz-adv-x="300" />
<glyph unicode="&#x2009;" horiz-adv-x="481" />
<glyph unicode="&#x200a;" horiz-adv-x="133" />
<glyph unicode="&#x2010;" horiz-adv-x="913" d="M127 461v262h659v-262h-659z" />
<glyph unicode="&#x2011;" horiz-adv-x="913" d="M127 461v262h659v-262h-659z" />
<glyph unicode="&#x2012;" horiz-adv-x="913" d="M127 461v262h659v-262h-659z" />
<glyph unicode="&#x2013;" horiz-adv-x="1130" d="M45 463v260h1045v-260h-1045z" />
<glyph unicode="&#x2014;" horiz-adv-x="2164" d="M45 463v260h2077v-260h-2077z" />
<glyph unicode="&#x2018;" horiz-adv-x="536" d="M61 1255q0 242 263 465l79 -63l-8 -10q-8 -10 -19 -23.5t-25.5 -36t-27 -47t-23.5 -56.5t-17 -65q59 -14 99 -59t40 -105q0 -76 -52.5 -129t-128 -53t-128 53t-52.5 129z" />
<glyph unicode="&#x2019;" horiz-adv-x="536" d="M115 1538q0 76 52 129t128 53t128 -53t52 -129q0 -242 -262 -465l-80 64l8 10q8 10 19.5 23.5t26 36t26.5 47t23.5 56t17.5 64.5q-59 14 -99 59.5t-40 104.5z" />
<glyph unicode="&#x201a;" horiz-adv-x="542" d="M121 166q0 76 52 129t128 53t128 -53t52 -129q0 -242 -262 -465l-80 63l8 11q8 10 19.5 23.5t26 36t26.5 47t23.5 56t17.5 64.5q-59 14 -99 59t-40 105z" />
<glyph unicode="&#x201c;" horiz-adv-x="987" d="M61 1255q0 242 263 465l79 -63l-8 -10q-8 -10 -19 -23.5t-25.5 -36t-27 -47t-23.5 -56.5t-17 -65q59 -14 99 -59t40 -105q0 -76 -52.5 -129t-128 -53t-128 53t-52.5 129zM512 1255q0 242 262 465l80 -63l-8 -10q-8 -10 -19.5 -23.5t-26 -36t-26.5 -47t-23.5 -56.5 t-17.5 -65q59 -14 99 -59t40 -105q0 -76 -52 -129t-128 -53t-128 53t-52 129z" />
<glyph unicode="&#x201d;" horiz-adv-x="987" d="M115 1538q0 76 52 129t128 53t128 -53t52 -129q0 -242 -262 -465l-80 64l8 10q8 10 19.5 23.5t26 36t26.5 47t23.5 56t17.5 64.5q-59 14 -99 59.5t-40 104.5zM565 1538q0 76 52.5 129t128 53t128 -53t52.5 -129q0 -242 -262 -465l-80 64l8 10q8 10 19.5 23.5t25.5 36 t26.5 47t23.5 56t18 64.5q-59 14 -99.5 59.5t-40.5 104.5z" />
<glyph unicode="&#x201e;" horiz-adv-x="985" d="M121 166q0 76 52 129t128 53t128 -53t52 -129q0 -242 -262 -465l-80 63l8 11q8 10 19.5 23.5t26 36t26.5 47t23.5 56t17.5 64.5q-59 14 -99 59t-40 105zM561 166q0 76 52.5 129t128 53t128 -53t52.5 -129q0 -242 -263 -465l-79 63l8 11q8 10 19 23.5t25.5 36t27 47 t23.5 56t17 64.5q-59 14 -99 59t-40 105z" />
<glyph unicode="&#x2022;" horiz-adv-x="1243" d="M289 731q0 139 97 236.5t234.5 97.5t234.5 -97.5t97 -236.5t-97 -236.5t-234.5 -97.5t-234.5 97.5t-97 236.5z" />
<glyph unicode="&#x2026;" horiz-adv-x="1865" d="M119 166q0 84 57 141.5t141 57.5t141.5 -57.5t57.5 -141.5t-57.5 -141.5t-141.5 -57.5t-141 57.5t-57 141.5zM733 166q0 84 57.5 141.5t141.5 57.5t141 -57.5t57 -141.5t-57 -141.5t-141 -57.5t-141.5 57.5t-57.5 141.5zM1348 166q0 84 57 141.5t141 57.5t141.5 -57.5 t57.5 -141.5t-57.5 -141.5t-141.5 -57.5t-141 57.5t-57 141.5z" />
<glyph unicode="&#x202f;" horiz-adv-x="481" />
<glyph unicode="&#x2039;" horiz-adv-x="716" d="M57 571l400 512l161 -127l-299 -385l299 -385l-161 -127z" />
<glyph unicode="&#x203a;" horiz-adv-x="716" d="M98 186l299 385l-299 385l162 127l399 -512l-399 -512z" />
<glyph unicode="&#x205f;" horiz-adv-x="601" />
<glyph unicode="&#x20ac;" horiz-adv-x="1699" d="M39 578v186h149q-8 33 -8 80q0 45 8 78h-149v186h190q90 268 331 440t532 172q332 0 553 -161l-140 -271q-164 117 -366 117q-184 0 -323.5 -82t-207.5 -215h707v-186h-778q-8 -49 -9 -78q0 -31 9 -80h778v-186h-707q68 -133 205 -214t326 -81q88 0 176 26.5t127 49 t63 40.5l140 -270q-221 -162 -553 -162q-291 0 -530.5 171t-332.5 440h-190z" />
<glyph unicode="&#x2122;" horiz-adv-x="1046" d="M37 1602v88h371v-88h-136v-441h-100v441h-135zM428 1161l53 529h107l127 -336l129 336h106l51 -529h-98l-35 348l-123 -338h-59l-123 338l-35 -348h-100z" />
<glyph unicode="&#x25fc;" horiz-adv-x="1044" d="M0 0v1044h1044v-1044h-1044z" />
<glyph unicode="&#xfb01;" horiz-adv-x="1284" d="M55 819v230h138v268q0 219 100 347t276 128q129 0 236.5 -39t150.5 -78l43 -39l-106 -215q-12 12 -32.5 29.5t-80 46.5t-116.5 29q-94 0 -131 -49.5t-37 -165.5v-262h641v-1049h-303v819h-338v-819h-303v819h-138z" />
<glyph unicode="&#xfb02;" horiz-adv-x="1290" d="M55 819v230h138v268q0 219 100 347t276 128q63 0 121 -15.5t84 -29.5l27 -14l-74 -236q-41 29 -106 29q-70 0 -97.5 -49.5t-27.5 -165.5v-262h247v-230h-247v-819h-303v819h-138zM844 0v1761h303v-1761h-303z" />
<glyph unicode="&#xfb03;" horiz-adv-x="1978" d="M88 819v230h137v268q0 219 100.5 347t276.5 128q72 0 138.5 -20.5t97.5 -40.5l30 -21l-106 -213q-43 29 -109 29q-70 0 -97.5 -49.5t-27.5 -165.5v-262h357v268q0 219 100 347t277 128q129 0 236.5 -39t150.5 -78l43 -39l-107 -215q-12 12 -32.5 29.5t-80 46.5t-116.5 29 q-94 0 -131 -49.5t-37 -165.5v-262h641v-1049h-303v819h-338v-819h-303v819h-357v-819h-303v819h-137z" />
<glyph unicode="&#xfb04;" horiz-adv-x="1986" d="M88 819v230h137v268q0 219 100.5 347t276.5 128q72 0 138.5 -20.5t97.5 -40.5l30 -21l-106 -213q-43 29 -109 29q-70 0 -97.5 -49.5t-27.5 -165.5v-262h359v268q0 219 100 347t277 128q63 0 120.5 -15.5t83.5 -29.5l27 -14l-74 -236q-41 29 -106 29q-70 0 -97.5 -49.5 t-27.5 -165.5v-262h248v-230h-248v-819h-303v819h-359v-819h-303v819h-137zM1538 0v1761h303v-1761h-303z" />
</font>
</defs>
</svg>
